SplineFontDB: 3.0
FontName: AbhayaLibre-Regular
FullName: AbhayaLibre
FamilyName: AbhayaLibre
Weight: Regular
Copyright: Copyright (c) 1997 Pushpananda Ekanayake (http://isiwara.lk)Copyright (c) 2015 Sol Matas (http://sonnenshine.com.ar/) Copyright (c) 2015 moonaik (http://mooniak.com)
UComments: "2015-2-15: Created with FontForge (http://fontforge.org) The  Free Font Editor"
Version: 1.0
ItalicAngle: 0
UnderlinePosition: -99
UnderlineWidth: 49
Ascent: 800
Descent: 200
InvalidEm: 0
UFOAscent: 799.805
UFODescent: -200.195
LayerCount: 2
Layer: 0 0 "Back" 1
Layer: 1 0 "Fore" 0
PreferredKerning: 4
StyleMap: 0x0040
FSType: 0
OS2Version: 0
OS2_WeightWidthSlopeOnly: 0
OS2_UseTypoMetrics: 0
CreationTime: 1440051439
ModificationTime: 1487243148
PfmFamily: 16
TTFWeight: 400
TTFWidth: 5
LineGap: 92
VLineGap: 0
OS2TypoAscent: 800
OS2TypoAOffset: 0
OS2TypoDescent: -200
OS2TypoDOffset: 0
OS2TypoLinegap: 92
OS2WinAscent: 896
OS2WinAOffset: 0
OS2WinDescent: 200
OS2WinDOffset: 0
HheadAscent: 896
HheadAOffset: 0
HheadDescent: -200
HheadDOffset: 0
OS2Vendor: 'PfEd'
OS2UnicodeRanges: 00000002.00000000.00000000.00000000
Lookup: 259 0 0 "'curs' Cursive Attachment in Sinhala lookup 2" { "'curs' Cursive Attachment in Sinhala lookup 2-1"  } ['curs' ('DFLT' <'dflt' > 'sinh' <'dflt' > ) ]
MarkAttachClasses: 1
DEI: 91125
LangName: 1033 "Copyright (c) 1997-2015 Pushpananda Ekanayake (http://isiwara.lk), Copyright (c) 2015 mooniak (http://mooniak.com)+AAoA" "" "" "" "" "Version 1.0.1" "" "" "" "" "" "" "" "This Font Software is licensed under the SIL Open Font License, Version 1.1. This license is available with a FAQ at: http://scripts.sil.org/OFL" "" "" "" "Regular"
PickledDataWithLists: "(dp1
S'public.glyphOrder'
p2
(lp3
S'A'
aS'Aacute'
p4
aS'Acircumflex'
p5
aS'Adieresis'
p6
aS'Agrave'
p7
aS'Aring'
p8
aS'Atilde'
p9
aS'AE'
p10
aS'B'
aS'C'
aS'Ccedilla'
p11
aS'D'
aS'Eth'
p12
aS'E'
aS'Eacute'
p13
aS'Ecircumflex'
p14
aS'Edieresis'
p15
aS'Egrave'
p16
aS'F'
aS'G'
aS'H'
aS'I'
aS'Iacute'
p17

StartChar: si_NdAa.halant
Encoding: 304 -1 0
GlifName: N_ameM_e.544
Width: 641
VWidth: 0
Flags: HW
LayerCount: 2
Fore
SplineSet
112 165 m 256
 112 268 184 310 300 310 c 258
 417 310 l 257
 407 355 379 387 336 387 c 256
 317 387 303 375 294 357 c 256
 284 336 268 328 253 328 c 256
 229 328 216 342 216 363 c 256
 216 398 255 423 309 423 c 256
 393 423 434 380 452 287 c 257
 318 287 l 258
 232 287 188 251 188 169 c 256
 188 87 251 25 334 25 c 256
 383 25 424 45 463 90 c 257
 485 73 l 257
 465 56 450 40 435 32 c 257
 438 33 435 33 439 33 c 256
 486 33 519 -18 519 -85 c 256
 519 -171 480 -207 422 -207 c 256
 374 -207 358 -183 358 -162 c 257
 385 -162 l 257
 385 -172 393 -183 412 -183 c 256
 453 -183 464 -145 464 -85 c 256
 464 -41 449 0 419 0 c 256
 391 0 379 -28 379 -44 c 257
 354 -44 l 257
 354 -28 361 -6 374 4 c 257
 347 -1 332 -1 311 -1 c 256
 183 -1 112 67 112 165 c 256
492 -52 m 257
 492 664 l 257
 545 623 639 618 639 528 c 256
 639 485 604 456 562 456 c 256
 547 456 533 459 518 466 c 257
 518 -99 l 257
 492 -52 l 257
518 490 m 261
 527 485 538 483 551 483 c 256
 588 483 602 508 602 531 c 256
 602 572 564 592 518 622 c 257
 518 490 l 261
26 216 m 256
 26 329 96 426 260 426 c 256
 285 426 314 426 346 420 c 257
 325 409 259 402 250 397 c 257
 168 397 55 363 55 213 c 256
 55 131 84 71 132 29 c 257
 132 0 l 257
 68 32 26 117 26 216 c 256
EndSplineSet
Validated: 5
EndChar

StartChar: si_JnyAe
Encoding: 188 -1 1
GlifName: N_ameM_e.559
Width: 819
VWidth: 0
Flags: HW
LayerCount: 2
Fore
SplineSet
411 165 m 260
 411 268 483 310 599 310 c 258
 716 310 l 257
 706 355 678 387 635 387 c 256
 616 387 601 375 592 357 c 256
 582 336 567 328 552 328 c 256
 528 328 515 342 515 363 c 256
 515 398 553 423 607 423 c 256
 691 423 733 380 751 287 c 257
 617 287 l 258
 531 287 486 251 486 169 c 256
 486 87 551 25 634 25 c 256
 683 25 717 45 756 90 c 257
 778 73 l 257
 752 44 742 5 742 -58 c 256
 742 -124 769 -199 803 -199 c 257
 803 -223 l 257
 800 -224 796 -225 792 -225 c 256
 737 -225 695 -173 695 -102 c 256
 695 -48 719 6 729 30 c 257
 666 -9 620 -50 620 -113 c 256
 620 -171 654 -195 688 -201 c 257
 688 -223 l 257
 684 -224 675 -225 670 -225 c 256
 609 -225 562 -193 562 -129 c 256
 562 -77 600 -40 646 1 c 257
 633 -1 620 -1 614 -1 c 256
 479 -1 411 67 411 165 c 260
658 416 m 257
 540 399 l 257
 534 399 531 400 525 400 c 256
 421 400 360 332 339 230 c 257
 347 234 354 235 361 235 c 256
 408 235 441 197 441 133 c 256
 441 55 386 -2 301 -2 c 256
 193 -2 131 94 131 202 c 256
 131 322 204 422 312 422 c 256
 316 422 321 421 325 421 c 257
 325 398 l 257
 322 398 317 398 314 398 c 256
 230 398 165 325 165 225 c 256
 165 144 212 69 299 69 c 256
 357 69 408 96 408 154 c 256
 408 191 388 212 358 212 c 256
 351 212 341 209 336 205 c 257
 335 199 334 191 334 188 c 257
 308 188 l 257
 322 344 397 428 547 428 c 256
 577 428 626 426 658 416 c 257
316 422 m 257
 312 422 226 396 226 396 c 257
 95 396 55 305 55 213 c 256
 55 134 81 73 132 29 c 257
 132 0 l 257
 68 32 26 117 26 216 c 256
 26 345 97 423 233 423 c 256
 242 423 294 424 316 422 c 257
EndSplineSet
Validated: 37
EndChar

StartChar: si_JnyAee
Encoding: 189 -1 2
GlifName: N_ameM_e.560
Width: 819
VWidth: 0
Flags: HW
LayerCount: 2
Fore
SplineSet
411 165 m 256
 411 268 483 310 599 310 c 258
 716 310 l 257
 706 355 678 387 635 387 c 256
 616 387 602 375 593 357 c 256
 583 336 567 328 552 328 c 256
 528 328 515 342 515 363 c 256
 515 398 553 423 607 423 c 256
 691 423 733 380 751 287 c 257
 617 287 l 258
 531 287 486 251 486 169 c 256
 486 87 552 25 635 25 c 256
 684 25 717 45 756 90 c 257
 774 74 l 257
 774 67 727 27 727 27 c 257
 797 27 l 257
 797 5 l 257
 734 -35 l 257
 795 -35 l 257
 795 -57 l 257
 774 -65 750 -90 750 -133 c 256
 750 -172 769 -199 803 -199 c 257
 803 -223 l 257
 800 -224 796 -225 792 -225 c 256
 737 -225 697 -183 697 -139 c 256
 697 -101 722 -73 752 -59 c 257
 686 -59 l 257
 686 -39 l 257
 708 -25 733 -10 756 4 c 257
 754 4 688 4 688 4 c 257
 669 -12 620 -50 620 -113 c 256
 620 -171 654 -195 688 -201 c 257
 688 -223 l 257
 684 -224 675 -225 670 -225 c 256
 609 -225 562 -193 562 -129 c 256
 562 -77 600 -40 646 1 c 257
 633 -1 621 -1 615 -1 c 256
 480 -1 411 67 411 165 c 256
658 416 m 257
 540 399 l 257
 534 399 531 400 525 400 c 256
 421 400 360 332 339 230 c 257
 347 234 354 235 361 235 c 256
 408 235 441 197 441 133 c 256
 441 55 386 -2 301 -2 c 256
 193 -2 131 94 131 202 c 256
 131 322 204 422 312 422 c 256
 316 422 321 421 325 421 c 257
 325 398 l 257
 322 398 317 398 314 398 c 256
 230 398 165 325 165 225 c 256
 165 144 212 69 299 69 c 256
 357 69 408 96 408 154 c 256
 408 191 388 212 358 212 c 256
 351 212 341 209 336 205 c 257
 335 199 334 191 334 188 c 257
 308 188 l 257
 322 344 397 428 547 428 c 256
 577 428 626 426 658 416 c 257
316 422 m 257
 312 422 226 396 226 396 c 257
 95 396 55 305 55 213 c 256
 55 134 81 73 132 29 c 257
 132 0 l 257
 68 32 26 117 26 216 c 256
 26 345 97 423 233 423 c 256
 242 423 294 424 316 422 c 257
EndSplineSet
Validated: 37
EndChar

StartChar: si_NyAa.halant
Encoding: 177 -1 3
GlifName: N_ameM_e.562
Width: 1124
VWidth: 0
Flags: HW
LayerCount: 2
Fore
SplineSet
589 165 m 256
 589 268 660 310 776 310 c 258
 894 310 l 257
 884 355 833 387 790 387 c 256
 771 387 757 375 748 357 c 256
 738 336 722 328 707 328 c 256
 683 328 670 342 670 363 c 256
 670 398 709 423 763 423 c 256
 847 423 911 380 929 287 c 257
 795 287 l 258
 709 287 664 251 664 169 c 256
 664 87 728 25 811 25 c 256
 860 25 900 45 939 90 c 257
 961 73 l 257
 941 56 926 40 911 32 c 257
 914 33 912 33 916 33 c 256
 963 33 995 -18 995 -85 c 256
 995 -171 956 -207 898 -207 c 256
 850 -207 834 -183 834 -162 c 257
 861 -162 l 257
 861 -172 870 -183 889 -183 c 256
 930 -183 939 -145 939 -85 c 256
 939 -41 926 0 896 0 c 256
 868 0 855 -28 855 -44 c 257
 829 -44 l 257
 829 -28 838 -6 851 4 c 257
 824 -1 808 -1 787 -1 c 256
 659 -1 589 67 589 165 c 256
968 -52 m 257
 968 664 l 257
 1021 623 1114 618 1114 528 c 256
 1114 485 1080 456 1038 456 c 256
 1023 456 1009 459 994 466 c 257
 994 -99 l 257
 968 -52 l 257
994 490 m 261
 1003 485 1013 483 1026 483 c 256
 1063 483 1078 508 1078 531 c 256
 1078 572 1040 592 994 622 c 257
 994 490 l 261
143 21 m 257
 151 88 195 180 229 227 c 256
 254 262 268 275 286 294 c 257
 298 307 311 323 311 344 c 256
 311 365 300 383 276 383 c 256
 262 383 241 375 235 354 c 256
 228 332 233 332 226 315 c 256
 219 297 204 290 189 290 c 256
 156 290 150 320 150 332 c 256
 150 385 199 423 255 423 c 256
 304 423 337 393 337 348 c 256
 337 343 337 338 336 333 c 257
 363 354 400 379 469 402 c 256
 538 425 594 432 673 432 c 256
 699 432 766 429 809 417 c 257
 708 404 l 257
 697 405 677 405 667 405 c 256
 619 405 582 402 551 396 c 256
 470 381 409 357 336 301 c 257
 359 307 391 309 417 309 c 256
 534 309 625 245 625 123 c 256
 625 66 593 -1 510 -1 c 256
 465 -1 432 20 411 62 c 257
 394 22 362 -1 321 -1 c 256
 236 -1 239 71 207 71 c 256
 186 71 171 50 168 11 c 257
 143 21 l 257
300 267 m 257
 283 252 264 229 248 207 c 256
 220 167 201 129 190 93 c 257
 196 96 202 98 209 98 c 256
 237 98 260 69 316 69 c 256
 366 69 396 99 396 158 c 256
 396 160 396 157 396 159 c 257
 422 159 l 257
 422 158 422 159 422 158 c 256
 422 95 448 69 505 69 c 256
 566 69 585 120 585 155 c 256
 585 236 514 284 413 284 c 256
 357 284 321 276 300 267 c 257
26 216 m 256
 26 345 97 424 233 424 c 256
 242 424 265 424 286 418 c 257
 265 407 190 397 173 391 c 257
 100 373 55 312 55 213 c 256
 55 134 81 73 132 29 c 257
 132 0 l 257
 68 32 26 117 26 216 c 256
EndSplineSet
Validated: 5
EndChar

StartChar: si_NyAe
Encoding: 175 -1 4
GlifName: N_ameM_e.563
Width: 994
VWidth: 0
Flags: HW
LayerCount: 2
Fore
SplineSet
589 165 m 260
 589 268 660 310 776 310 c 258
 894 310 l 257
 884 355 834 387 791 387 c 256
 772 387 757 375 748 357 c 256
 738 336 722 328 707 328 c 256
 683 328 670 342 670 363 c 256
 670 398 710 423 764 423 c 256
 848 423 911 380 929 287 c 257
 795 287 l 258
 709 287 664 251 664 169 c 256
 664 87 729 25 812 25 c 256
 861 25 895 45 934 90 c 257
 956 73 l 257
 930 44 920 5 920 -58 c 256
 920 -124 946 -199 980 -199 c 257
 980 -223 l 257
 977 -224 974 -225 970 -225 c 256
 915 -225 873 -173 873 -102 c 256
 873 -48 896 6 906 30 c 257
 843 -9 798 -50 798 -113 c 256
 798 -171 832 -195 866 -201 c 257
 866 -223 l 257
 862 -224 853 -225 848 -225 c 256
 787 -225 740 -193 740 -129 c 256
 740 -77 778 -40 824 1 c 257
 811 -1 798 -1 792 -1 c 256
 657 -1 589 67 589 165 c 260
300 267 m 257
 283 252 264 229 248 207 c 256
 220 167 201 129 190 93 c 257
 196 96 202 98 209 98 c 256
 237 98 260 69 316 69 c 256
 366 69 396 99 396 158 c 256
 396 160 396 157 396 159 c 257
 422 159 l 257
 422 158 422 159 422 158 c 256
 422 95 448 69 505 69 c 256
 566 69 585 120 585 155 c 256
 585 236 514 284 413 284 c 256
 357 284 321 276 300 267 c 257
143 21 m 257
 151 88 195 180 229 227 c 256
 254 262 268 275 286 294 c 257
 298 307 311 323 311 344 c 256
 311 365 300 383 276 383 c 256
 262 383 241 375 235 354 c 256
 228 332 233 332 226 315 c 256
 219 297 204 290 189 290 c 256
 156 290 150 320 150 332 c 256
 150 385 199 423 255 423 c 256
 304 423 337 393 337 348 c 256
 337 343 337 338 336 333 c 257
 363 354 400 379 469 402 c 256
 538 425 594 432 673 432 c 256
 699 432 766 429 809 417 c 257
 708 404 l 257
 697 405 677 405 667 405 c 256
 619 405 582 402 551 396 c 256
 470 381 409 357 336 301 c 257
 359 307 391 309 417 309 c 256
 534 309 625 245 625 123 c 256
 625 66 593 -1 510 -1 c 256
 465 -1 432 20 411 62 c 257
 394 22 362 -1 321 -1 c 256
 236 -1 239 71 207 71 c 256
 186 71 171 50 168 11 c 257
 143 21 l 257
26 216 m 256
 26 345 97 424 233 424 c 256
 242 424 265 424 286 418 c 257
 265 407 190 397 173 391 c 257
 100 373 55 312 55 213 c 256
 55 134 81 73 132 29 c 257
 132 0 l 257
 68 32 26 117 26 216 c 256
EndSplineSet
Validated: 5
EndChar

StartChar: si_NyAee
Encoding: 176 -1 5
GlifName: N_ameM_e.564
Width: 994
VWidth: 0
Flags: HW
LayerCount: 2
Fore
SplineSet
589 165 m 260
 589 268 660 310 776 310 c 258
 894 310 l 257
 884 355 834 387 791 387 c 256
 772 387 757 375 748 357 c 256
 738 336 722 328 707 328 c 256
 683 328 670 342 670 363 c 256
 670 398 710 423 764 423 c 256
 848 423 911 380 929 287 c 257
 795 287 l 258
 709 287 664 251 664 169 c 256
 664 87 729 25 812 25 c 256
 861 25 895 45 934 90 c 257
 952 74 l 257
 952 67 904 27 904 27 c 257
 975 27 l 257
 975 5 l 257
 912 -35 l 257
 973 -35 l 257
 973 -57 l 257
 952 -65 928 -90 928 -133 c 256
 928 -172 946 -199 980 -199 c 257
 980 -223 l 257
 977 -224 974 -225 970 -225 c 256
 915 -225 874 -183 874 -139 c 256
 874 -101 900 -73 930 -59 c 257
 863 -59 l 257
 863 -39 l 257
 885 -25 910 -10 933 4 c 257
 931 4 865 4 865 4 c 257
 846 -12 798 -50 798 -113 c 256
 798 -171 832 -195 866 -201 c 257
 866 -223 l 257
 862 -224 853 -225 848 -225 c 256
 787 -225 740 -193 740 -129 c 256
 740 -77 778 -40 824 1 c 257
 811 -1 798 -1 792 -1 c 256
 657 -1 589 67 589 165 c 260
300 267 m 257
 283 252 264 229 248 207 c 256
 220 167 201 129 190 93 c 257
 196 96 202 98 209 98 c 256
 237 98 260 69 316 69 c 256
 366 69 396 99 396 158 c 256
 396 160 396 157 396 159 c 257
 422 159 l 257
 422 158 422 159 422 158 c 256
 422 95 448 69 505 69 c 256
 566 69 585 120 585 155 c 256
 585 236 514 284 413 284 c 256
 357 284 321 276 300 267 c 257
143 21 m 257
 151 88 195 180 229 227 c 256
 254 262 268 275 286 294 c 257
 298 307 311 323 311 344 c 256
 311 365 300 383 276 383 c 256
 262 383 241 375 235 354 c 256
 228 332 233 332 226 315 c 256
 219 297 204 290 189 290 c 256
 156 290 150 320 150 332 c 256
 150 385 199 423 255 423 c 256
 304 423 337 393 337 348 c 256
 337 343 337 338 336 333 c 257
 363 354 400 379 469 402 c 256
 538 425 594 432 673 432 c 256
 699 432 766 429 809 417 c 257
 708 404 l 257
 697 405 677 405 667 405 c 256
 619 405 582 402 551 396 c 256
 470 381 409 357 336 301 c 257
 359 307 391 309 417 309 c 256
 534 309 625 245 625 123 c 256
 625 66 593 -1 510 -1 c 256
 465 -1 432 20 411 62 c 257
 394 22 362 -1 321 -1 c 256
 236 -1 239 71 207 71 c 256
 186 71 171 50 168 11 c 257
 143 21 l 257
26 216 m 256
 26 345 97 424 233 424 c 256
 242 424 265 424 286 418 c 257
 265 407 190 397 173 391 c 257
 100 373 55 312 55 213 c 256
 55 134 81 73 132 29 c 257
 132 0 l 257
 68 32 26 117 26 216 c 256
EndSplineSet
Validated: 5
EndChar

StartChar: zwj
Encoding: 82 8205 6
GlifName: zwj
Width: 0
VWidth: 0
Flags: HW
LayerCount: 2
Fore
SplineSet
26 640 m 257
 147 520 l 257
 121 493 l 257
 20 596 l 257
 20 10 l 257
 -20 10 l 257
 -20 596 l 257
 -121 493 l 257
 -147 520 l 257
 -26 640 l 257
 -147 759 l 257
 -121 784 l 257
 0 663 l 257
 121 784 l 257
 147 759 l 257
 26 640 l 257
EndSplineSet
Validated: 1
EndChar

StartChar: zwnj
Encoding: 81 8204 7
GlifName: zwnj
Width: 0
VWidth: 0
Flags: HW
LayerCount: 2
Fore
SplineSet
-20 9 m 257
 -20 743 l 257
 20 743 l 257
 20 9 l 257
 -20 9 l 257
EndSplineSet
Validated: 1
EndChar

StartChar: si_B.halant
Encoding: 326 -1 8
GlifName: si_B_.halant
Width: 604
VWidth: 0
Flags: HW
LayerCount: 2
Fore
SplineSet
99 74 m 256
 99 49 121 26 146 26 c 256
 171 26 194 49 194 74 c 256
 194 99 171 122 146 122 c 256
 121 122 99 99 99 74 c 256
134 530 m 256
 134 518 157 514 157 503 c 256
 157 501 156 498 154 496 c 257
 186 502 226 507 271 507 c 256
 376 507 466 474 513 412 c 257
 481 524 388 576 275 576 c 256
 205 576 134 553 134 530 c 256
32 183 m 256
 32 307 117 387 241 387 c 256
 331 387 413 337 413 251 c 256
 413 123 297 163 297 99 c 256
 297 75 313 62 343 62 c 256
 454 62 521 184 521 282 c 256
 521 418 414 482 263 482 c 256
 228 482 193 479 158 472 c 256
 120 464 81 452 39 432 c 257
 39 462 l 257
 70 474 121 487 121 496 c 256
 121 508 94 512 94 533 c 256
 94 569 158 614 270 614 c 256
 473 614 542 479 554 348 c 256
 557 335 562 293 562 261 c 256
 561 135 505 -2 372 -2 c 256
 313 -2 267 34 267 92 c 256
 267 182 379 152 379 231 c 256
 379 289 301 312 231 312 c 256
 142 312 62 261 62 158 c 256
 62 133 67 104 75 89 c 257
 79 123 106 149 146 149 c 256
 188 149 224 116 224 75 c 256
 224 28 185 -1 146 -1 c 256
 66 -1 32 89 32 183 c 256
EndSplineSet
Validated: 1
EndChar

StartChar: si_BI
Encoding: 327 -1 9
GlifName: si_B_I_
Width: 604
VWidth: 0
Flags: HW
LayerCount: 2
Fore
SplineSet
65 549 m 256
 65 637 193 654 291 654 c 256
 424 654 531 624 531 541 c 256
 531 490 478 469 445 463 c 257
 396 479 l 257
 431 480 485 494 485 531 c 256
 485 586 396 597 291 597 c 256
 217 597 106 592 106 541 c 256
 106 496 170 496 270 492 c 256
 333 489 425 487 479 448 c 256
 527 413 562 348 562 268 c 257
 523 290 l 257
 523 330 512 375 485 404 c 256
 433 461 370 461 271 467 c 256
 184 472 65 465 65 549 c 256
99 74 m 256
 99 49 121 26 146 26 c 256
 171 26 194 49 194 74 c 256
 194 99 171 122 146 122 c 256
 121 122 99 99 99 74 c 256
32 183 m 256
 32 307 117 387 241 387 c 256
 331 387 413 337 413 251 c 256
 413 123 297 163 297 99 c 256
 297 75 313 62 343 62 c 256
 451 62 523 186 523 294 c 257
 541 286 547 275 562 271 c 257
 562 136 506 -2 372 -2 c 256
 313 -2 267 34 267 92 c 256
 267 182 379 152 379 231 c 256
 379 289 301 312 231 312 c 256
 142 312 62 261 62 158 c 256
 62 133 67 104 75 89 c 257
 79 123 106 149 146 149 c 256
 188 149 224 116 224 75 c 256
 224 28 185 -1 146 -1 c 256
 66 -1 32 89 32 183 c 256
EndSplineSet
Validated: 5
EndChar

StartChar: si_BIi
Encoding: 328 -1 10
GlifName: si_B_I_i
Width: 604
VWidth: 0
Flags: HW
LayerCount: 2
Fore
SplineSet
382 542 m 256
 382 513 409 489 441 489 c 256
 473 489 500 513 500 542 c 256
 500 571 473 595 441 595 c 256
 409 595 382 571 382 542 c 256
65 549 m 256
 65 637 193 654 291 654 c 256
 424 654 531 624 531 545 c 256
 531 493 484 463 441 463 c 256
 398 463 352 493 352 545 c 256
 352 569 364 586 370 594 c 257
 363 595 332 597 291 597 c 256
 217 597 106 592 106 541 c 256
 106 496 170 496 270 492 c 256
 333 489 425 487 479 448 c 256
 527 413 562 351 562 268 c 257
 562 268 531 274 523 289 c 257
 523 330 512 375 485 404 c 256
 433 461 370 461 271 467 c 256
 184 472 65 465 65 549 c 256
99 74 m 256
 99 49 121 26 146 26 c 256
 171 26 194 49 194 74 c 256
 194 99 171 122 146 122 c 256
 121 122 99 99 99 74 c 256
32 183 m 256
 32 307 117 387 241 387 c 256
 331 387 413 337 413 251 c 256
 413 123 297 163 297 99 c 256
 297 75 313 62 343 62 c 256
 451 62 523 186 523 294 c 257
 541 286 547 275 562 271 c 257
 562 136 506 -2 372 -2 c 256
 313 -2 267 34 267 92 c 256
 267 182 379 152 379 231 c 256
 379 289 301 312 231 312 c 256
 142 312 62 261 62 158 c 256
 62 133 67 104 75 89 c 257
 79 123 106 149 146 149 c 256
 188 149 224 116 224 75 c 256
 224 28 185 -1 146 -1 c 256
 66 -1 32 89 32 183 c 256
EndSplineSet
Validated: 5
EndChar

StartChar: si_BRI
Encoding: 334 -1 11
GlifName: si_B_R_I_
Width: 604
VWidth: 0
Flags: HW
LayerCount: 2
Fore
SplineSet
57 -43 m 257
 85 -43 l 257
 118 -116 181 -153 281 -153 c 256
 417 -153 525 -85 525 49 c 256
 525 70 521 91 514 100 c 257
 529 130 l 257
 546 104 555 73 555 37 c 256
 555 -121 434 -214 297 -214 c 256
 171 -214 92 -149 57 -43 c 257
EndSplineSet
Refer: 9 -1 N 1 0 0 1 0 0 2
Validated: 5
EndChar

StartChar: si_BRIi
Encoding: 335 -1 12
GlifName: si_B_R_I_i
Width: 604
VWidth: 0
Flags: HW
LayerCount: 2
Fore
SplineSet
57 -43 m 257
 85 -43 l 257
 118 -116 181 -153 281 -153 c 256
 417 -153 525 -85 525 49 c 256
 525 70 521 91 514 100 c 257
 529 130 l 257
 546 104 555 73 555 37 c 256
 555 -121 434 -214 297 -214 c 256
 171 -214 92 -149 57 -43 c 257
EndSplineSet
Refer: 10 -1 N 1 0 0 1 0 0 2
Validated: 5
EndChar

StartChar: si_BRa
Encoding: 333 -1 13
GlifName: si_B_R_a
Width: 604
VWidth: 0
Flags: HW
LayerCount: 2
Fore
SplineSet
57 -43 m 261
 85 -43 l 261
 118 -116 181 -153 281 -153 c 260
 417 -153 525 -85 525 49 c 260
 525 70 521 91 514 100 c 261
 529 130 l 261
 546 104 555 73 555 37 c 260
 555 -121 434 -214 297 -214 c 260
 171 -214 92 -149 57 -43 c 261
EndSplineSet
Refer: 466 3510 N 1 0 0 1 0 0 2
Validated: 5
EndChar

StartChar: si_BU
Encoding: 329 -1 14
GlifName: si_B_U_
Width: 604
VWidth: 0
Flags: HW
LayerCount: 2
Fore
SplineSet
48 -139 m 256
 48 -88 93 -49 147 -49 c 256
 188 -49 224 -72 239 -107 c 257
 210 -119 l 257
 203 -99 179 -78 147 -78 c 256
 111 -78 81 -104 81 -139 c 256
 81 -167 104 -194 168 -194 c 258
 520 -194 l 257
 520 125 l 257
 553 214 l 257
 553 -229 l 257
 151 -229 l 258
 84 -229 48 -182 48 -139 c 256
EndSplineSet
Refer: 466 3510 N 1 0 0 1 0 0 2
Validated: 5
EndChar

StartChar: si_BUu
Encoding: 330 -1 15
GlifName: si_B_U_u
Width: 604
VWidth: 0
Flags: HW
LayerCount: 2
Fore
SplineSet
48 -135 m 256
 48 -78 95 -39 147 -39 c 256
 188 -39 220 -54 242 -89 c 257
 213 -100 l 257
 201 -81 180 -66 152 -66 c 256
 114 -66 83 -90 83 -126 c 256
 83 -162 113 -187 155 -187 c 256
 237 -187 310 -114 403 -114 c 256
 445 -114 494 -133 520 -164 c 257
 520 148 l 257
 552 207 l 257
 552 -226 l 257
 529 -226 l 257
 514 -191 472 -141 406 -141 c 256
 317 -141 252 -231 156 -231 c 256
 102 -231 48 -201 48 -135 c 256
EndSplineSet
Refer: 466 3510 N 1 0 0 1 0 0 2
Validated: 5
EndChar

StartChar: si_Bh.halant
Encoding: 336 -1 17
GlifName: si_B_h.halant
Width: 654
VWidth: 0
Flags: HW
LayerCount: 2
Fore
SplineSet
457 378 m 257
 457 665 l 257
 510 624 604 619 604 529 c 256
 604 486 569 457 527 457 c 256
 512 457 498 460 483 467 c 257
 483 361 l 257
 457 378 l 257
483 491 m 257
 492 486 503 484 516 484 c 256
 553 484 567 509 567 532 c 256
 567 573 529 593 483 623 c 257
 483 491 l 257
EndSplineSet
Refer: 467 3511 N 1 0 0 1 0 0 2
Validated: 5
EndChar

StartChar: si_BhI
Encoding: 337 -1 18
GlifName: si_B_hI_
Width: 654
VWidth: 0
Flags: HW
LayerCount: 2
Fore
SplineSet
174 524 m 256
 174 613 270 651 370 651 c 256
 473 651 573 604 573 511 c 256
 573 450 535 405 456 399 c 257
 438 421 l 257
 441 421 443 421 446 421 c 256
 503 421 545 451 545 500 c 256
 545 563 448 584 370 584 c 256
 291 584 214 555 214 504 c 256
 214 445 345 421 429 421 c 256
 430 421 430 422 431 422 c 257
 415 400 l 257
 259 403 174 451 174 524 c 256
EndSplineSet
Refer: 467 3511 N 1 0 0 1 0 0 2
Validated: 5
EndChar

StartChar: si_BhIi
Encoding: 338 -1 19
GlifName: si_B_hI_i
Width: 654
VWidth: 0
Flags: HW
LayerCount: 2
Fore
SplineSet
409 508 m 256
 409 475 440 447 477 447 c 256
 514 447 545 475 545 508 c 256
 545 541 514 568 477 568 c 256
 440 568 409 541 409 508 c 256
174 524 m 256
 174 613 270 651 370 651 c 256
 473 651 573 604 573 513 c 256
 573 446 517 421 475 421 c 256
 432 421 380 453 380 507 c 256
 380 552 413 577 429 580 c 257
 408 583 393 584 370 584 c 256
 291 584 214 555 214 504 c 256
 214 445 345 421 429 421 c 256
 430 421 430 422 431 422 c 257
 415 399 l 257
 259 402 174 451 174 524 c 256
EndSplineSet
Refer: 467 3511 N 1 0 0 1 0 0 2
Validated: 5
EndChar

StartChar: si_BhRI
Encoding: 344 -1 20
GlifName: si_B_hR_I_
Width: 654
VWidth: 0
Flags: HW
LayerCount: 2
Fore
SplineSet
74 -43 m 257
 101 -43 l 257
 135 -116 203 -153 306 -153 c 256
 446 -153 561 -88 561 49 c 256
 561 70 556 91 549 100 c 257
 562 130 l 257
 580 104 588 73 588 37 c 256
 588 -121 462 -214 321 -214 c 256
 191 -214 110 -149 74 -43 c 257
EndSplineSet
Refer: 18 -1 N 1 0 0 1 0 0 2
Validated: 5
EndChar

StartChar: si_BhRIi
Encoding: 345 -1 21
GlifName: si_B_hR_I_i
Width: 654
VWidth: 0
Flags: HW
LayerCount: 2
Fore
SplineSet
408 508 m 256
 408 474 439 446 477 446 c 256
 515 446 546 474 546 508 c 256
 546 542 515 569 477 569 c 256
 439 569 408 542 408 508 c 256
174 524 m 256
 174 613 270 651 370 651 c 256
 473 651 573 604 573 513 c 256
 573 446 517 421 475 421 c 256
 432 421 380 453 380 507 c 256
 380 552 413 577 429 580 c 257
 408 583 393 584 370 584 c 256
 291 584 214 555 214 504 c 256
 214 445 345 421 429 421 c 256
 430 421 430 422 431 422 c 257
 415 398 l 257
 259 401 174 451 174 524 c 256
74 -43 m 257
 101 -43 l 257
 135 -116 203 -153 306 -153 c 256
 446 -153 561 -88 561 49 c 256
 561 70 556 91 549 100 c 257
 562 130 l 257
 580 104 588 73 588 37 c 256
 588 -121 462 -214 321 -214 c 256
 191 -214 110 -149 74 -43 c 257
EndSplineSet
Refer: 467 3511 N 1 0 0 1 0 0 2
Validated: 5
EndChar

StartChar: si_BhRa
Encoding: 343 -1 22
GlifName: si_B_hR_a
Width: 654
VWidth: 0
Flags: HW
LayerCount: 2
Fore
SplineSet
74 -43 m 261
 101 -43 l 261
 135 -116 203 -153 306 -153 c 260
 446 -153 561 -88 561 49 c 260
 561 70 556 91 549 100 c 261
 562 130 l 261
 580 104 588 73 588 37 c 260
 588 -121 462 -214 321 -214 c 260
 191 -214 110 -149 74 -43 c 261
EndSplineSet
Refer: 467 3511 N 1 0 0 1 0 0 2
Validated: 5
EndChar

StartChar: si_BhU
Encoding: 339 -1 23
GlifName: si_B_hU_
Width: 654
VWidth: 0
Flags: HW
LayerCount: 2
Fore
SplineSet
6 265 m 257
 6 296 l 257
 207 296 l 257
 167 271 l 257
 137 271 l 258
 68 270 22 268 6 265 c 257
48 355 m 256
 48 384 75 422 131 422 c 256
 208 422 248 351 249 271 c 257
 237 273 228 273 224 273 c 256
 160 273 84 239 84 171 c 256
 84 103 147 70 219 70 c 256
 283 70 338 98 338 160 c 256
 338 190 324 207 304 207 c 256
 291 207 278 199 271 178 c 257
 249 188 l 257
 258 310 337 422 436 422 c 256
 545 422 606 321 606 206 c 256
 606 95 528 0 450 0 c 256
 440 0 419 -2 405 -8 c 257
 396 18 l 257
 415 26 431 26 439 26 c 256
 501 26 560 96 560 188 c 256
 560 281 509 354 420 354 c 256
 349 354 301 311 280 224 c 257
 290 230 300 231 309 231 c 256
 346 231 373 195 373 142 c 256
 373 52 304 -1 212 -1 c 256
 116 -1 48 59 48 151 c 256
 48 247 145 296 213 296 c 256
 217 296 213 296 217 296 c 257
 217 337 193 374 156 374 c 256
 135 374 125 363 119 348 c 256
 113 332 101 319 80 319 c 256
 60 319 48 333 48 355 c 256
333 -78 m 256
 333 -29 362 9 404 21 c 257
 410 -6 l 257
 389 -14 370 -34 370 -62 c 256
 370 -107 419 -129 469 -129 c 256
 529 -129 574 -92 574 -44 c 256
 574 -41 574 -38 574 -35 c 257
 604 -35 l 257
 606 -44 605 -59 605 -68 c 256
 605 -120 564 -188 465 -188 c 256
 400 -188 333 -145 333 -78 c 256
EndSplineSet
Validated: 37
EndChar

StartChar: si_BhUu
Encoding: 340 -1 24
GlifName: si_B_hU_u
Width: 654
VWidth: 0
Flags: HW
LayerCount: 2
Fore
SplineSet
364 -126 m 256
 364 -91 396 -70 427 -65 c 257
 373 -38 l 257
 458 -14 l 257
 367 1 l 257
 414 13 l 257
 531 -7 l 257
 429 -43 l 257
 486 -74 l 257
 459 -81 403 -83 403 -112 c 256
 403 -142 444 -151 485 -151 c 256
 538 -151 583 -128 583 -80 c 256
 583 -75 582 -68 577 -58 c 257
 609 -58 l 257
 613 -70 613 -81 613 -92 c 256
 613 -157 563 -200 483 -200 c 256
 426 -200 364 -183 364 -126 c 256
EndSplineSet
Refer: 467 3511 N 1 0 0 1 0 0 2
Validated: 5
EndChar

StartChar: si_Bha.reph
Encoding: 341 -1 25
GlifName: si_B_ha.reph
Width: 654
VWidth: 0
Flags: HW
AnchorPoint: "cursive" 24 0 entry 0
LayerCount: 2
Fore
SplineSet
289 499 m 256
 289 478 308 463 329 463 c 256
 350 463 369 478 369 499 c 256
 369 520 350 535 329 535 c 256
 308 535 289 520 289 499 c 256
189 518 m 256
 189 580 246 616 326 616 c 256
 401 616 464 574 464 505 c 256
 464 482 456 460 439 441 c 257
 406 441 l 257
 419 453 435 478 435 504 c 256
 435 560 385 590 325 590 c 256
 273 590 220 570 220 518 c 256
 220 480 261 461 283 459 c 257
 275 465 263 479 263 500 c 256
 263 534 293 559 328 559 c 256
 368 559 396 532 396 498 c 256
 396 460 362 435 305 435 c 256
 247 435 189 463 189 518 c 256
EndSplineSet
Refer: 467 3511 N 1 0 0 1 0 0 2
Validated: 5
EndChar

StartChar: si_C.halant
Encoding: 136 -1 26
GlifName: si_C_.halant
Width: 606
VWidth: 0
Flags: HW
LayerCount: 2
Fore
SplineSet
136 530 m 256
 136 518 159 514 159 503 c 256
 159 501 158 498 156 496 c 257
 188 502 227 507 272 507 c 256
 377 507 468 474 515 412 c 257
 483 524 390 576 277 576 c 256
 207 576 136 553 136 530 c 256
41 432 m 257
 41 462 l 257
 72 474 123 487 123 496 c 256
 123 508 96 512 96 533 c 256
 96 569 159 614 271 614 c 256
 474 614 544 479 556 348 c 257
 559 335 563 294 563 261 c 257
 526 272 l 257
 526 280 526 287 526 291 c 256
 526 403 436 482 265 482 c 256
 191 482 120 469 41 432 c 257
62 161 m 256
 62 191 73 222 95 242 c 256
 111 256 129 266 154 271 c 257
 187 283 228 295 264 295 c 258
 280 295 l 257
 280 297 280 299 280 301 c 256
 280 354 248 386 210 386 c 256
 165 386 159 363 154 347 c 256
 148 328 138 315 117 315 c 256
 101 315 81 327 81 352 c 256
 81 396 130 422 184 422 c 256
 270 422 312 367 312 283 c 256
 312 280 312 274 312 271 c 257
 244 271 l 258
 201 271 162 259 138 243 c 256
 112 226 99 201 99 176 c 256
 99 92 203 69 291 69 c 256
 440 69 526 152 526 297 c 257
 563 268 l 257
 563 112 467 0 288 0 c 256
 170 0 62 45 62 161 c 256
14 264 m 257
 14 295 l 257
 278 295 l 257
 308 271 l 257
 145 271 l 258
 76 270 30 267 14 264 c 257
EndSplineSet
Validated: 5
EndChar

StartChar: si_CI
Encoding: 137 -1 27
GlifName: si_C_I_
Width: 606
VWidth: 0
Flags: HW
LayerCount: 2
Fore
SplineSet
67 549 m 256
 67 637 195 654 293 654 c 256
 426 654 533 624 533 541 c 256
 533 490 480 469 447 463 c 257
 398 479 l 257
 433 480 487 494 487 531 c 256
 487 586 398 597 293 597 c 256
 219 597 108 592 108 541 c 256
 108 496 171 496 271 492 c 256
 334 489 426 487 480 448 c 256
 528 413 563 348 563 268 c 257
 525 290 l 257
 525 330 514 375 487 404 c 256
 435 461 371 461 272 467 c 256
 185 472 67 465 67 549 c 256
62 161 m 256
 62 191 73 222 95 242 c 256
 111 256 129 266 154 271 c 257
 187 283 228 295 264 295 c 258
 280 295 l 257
 280 297 280 299 280 301 c 256
 280 354 248 386 210 386 c 256
 165 386 159 363 154 347 c 256
 148 328 138 315 117 315 c 256
 101 315 81 327 81 352 c 256
 81 396 130 422 184 422 c 256
 270 422 312 367 312 283 c 256
 312 280 312 274 312 271 c 257
 244 271 l 258
 201 271 162 259 138 243 c 256
 112 226 99 201 99 176 c 256
 99 92 203 69 291 69 c 256
 440 69 525 152 525 297 c 257
 563 268 l 257
 563 112 467 0 288 0 c 256
 170 0 62 45 62 161 c 256
14 264 m 257
 14 295 l 257
 278 295 l 257
 308 271 l 257
 145 271 l 258
 76 270 30 267 14 264 c 257
EndSplineSet
Validated: 5
EndChar

StartChar: si_CIi
Encoding: 138 -1 28
GlifName: si_C_I_i
Width: 606
VWidth: 0
Flags: HW
LayerCount: 2
Fore
SplineSet
385 542 m 256
 385 513 411 489 443 489 c 256
 475 489 502 513 502 542 c 256
 502 571 475 595 443 595 c 256
 411 595 385 571 385 542 c 256
67 549 m 256
 67 637 195 654 293 654 c 256
 426 654 533 624 533 545 c 256
 533 493 486 463 443 463 c 256
 400 463 354 493 354 545 c 256
 354 569 366 586 372 594 c 257
 365 595 334 597 293 597 c 256
 219 597 108 592 108 541 c 256
 108 496 171 496 271 492 c 256
 334 489 426 487 480 448 c 256
 528 413 563 351 563 268 c 257
 525 279 l 257
 525 325 514 375 487 404 c 256
 435 461 371 461 272 467 c 256
 185 472 67 465 67 549 c 256
62 161 m 256
 62 191 73 222 95 242 c 256
 111 256 129 266 154 271 c 257
 187 283 228 295 264 295 c 258
 280 295 l 257
 280 297 280 299 280 301 c 256
 280 354 248 386 210 386 c 256
 165 386 159 363 154 347 c 256
 148 328 138 315 117 315 c 256
 101 315 81 327 81 352 c 256
 81 396 130 422 184 422 c 256
 270 422 312 367 312 283 c 256
 312 280 312 274 312 271 c 257
 244 271 l 258
 201 271 162 259 138 243 c 256
 112 226 99 201 99 176 c 256
 99 92 203 69 291 69 c 256
 440 69 525 152 525 297 c 257
 563 268 l 257
 563 112 467 0 288 0 c 256
 170 0 62 45 62 161 c 256
14 264 m 257
 14 295 l 257
 278 295 l 257
 308 271 l 257
 145 271 l 258
 76 270 30 267 14 264 c 257
EndSplineSet
Validated: 5
EndChar

StartChar: si_CRI
Encoding: 144 -1 29
GlifName: si_C_R_I_
Width: 606
VWidth: 0
Flags: HW
LayerCount: 2
Fore
SplineSet
55 -43 m 257
 82 -43 l 257
 116 -116 182 -153 285 -153 c 256
 425 -153 535 -88 535 49 c 256
 535 70 530 96 517 109 c 257
 532 137 l 257
 554 105 562 73 562 37 c 256
 562 -121 442 -214 301 -214 c 256
 171 -214 91 -149 55 -43 c 257
EndSplineSet
Refer: 27 -1 N 1 0 0 1 0 0 2
Validated: 5
EndChar

StartChar: si_CRIi
Encoding: 145 -1 30
GlifName: si_C_R_I_i
Width: 606
VWidth: 0
Flags: HW
LayerCount: 2
Fore
SplineSet
55 -43 m 257
 82 -43 l 257
 116 -116 182 -153 285 -153 c 256
 425 -153 535 -88 535 49 c 256
 535 70 530 96 517 109 c 257
 532 137 l 257
 554 105 562 73 562 37 c 256
 562 -121 442 -214 301 -214 c 256
 171 -214 91 -149 55 -43 c 257
EndSplineSet
Refer: 28 -1 N 1 0 0 1 0 0 2
Validated: 5
EndChar

StartChar: si_CRa
Encoding: 143 -1 31
GlifName: si_C_R_a
Width: 583
VWidth: 0
Flags: HW
LayerCount: 2
Fore
SplineSet
55 -43 m 261
 82 -43 l 261
 116 -116 182 -153 285 -153 c 260
 425 -153 535 -88 535 49 c 260
 535 70 530 96 517 109 c 261
 532 137 l 261
 554 105 562 73 562 37 c 260
 562 -121 442 -214 301 -214 c 260
 171 -214 91 -149 55 -43 c 261
EndSplineSet
Refer: 445 3488 N 1 0 0 1 0 0 2
Validated: 5
EndChar

StartChar: si_CU
Encoding: 139 -1 32
GlifName: si_C_U_
Width: 583
VWidth: 0
Flags: HW
LayerCount: 2
Fore
SplineSet
68 -139 m 256
 68 -88 114 -49 168 -49 c 256
 209 -49 245 -72 260 -107 c 257
 230 -119 l 257
 223 -99 200 -78 168 -78 c 256
 132 -78 102 -104 102 -139 c 256
 102 -167 124 -194 188 -194 c 258
 521 -194 l 257
 521 125 l 257
 553 214 l 257
 553 -229 l 257
 172 -229 l 258
 105 -229 68 -182 68 -139 c 256
EndSplineSet
Refer: 445 3488 N 1 0 0 1 0 0 2
Validated: 5
EndChar

StartChar: si_CUu
Encoding: 140 -1 33
GlifName: si_C_U_u
Width: 583
VWidth: 0
Flags: HW
LayerCount: 2
Fore
SplineSet
68 -135 m 256
 68 -78 116 -39 168 -39 c 256
 209 -39 242 -54 264 -89 c 257
 234 -100 l 257
 222 -81 202 -66 174 -66 c 256
 136 -66 104 -90 104 -126 c 256
 104 -162 134 -187 176 -187 c 256
 258 -187 320 -114 413 -114 c 256
 460 -114 495 -133 521 -164 c 257
 521 148 l 257
 553 207 l 257
 553 -226 l 257
 530 -226 l 257
 515 -191 479 -141 416 -141 c 256
 327 -141 274 -231 178 -231 c 256
 124 -231 68 -201 68 -135 c 256
EndSplineSet
Refer: 445 3488 N 1 0 0 1 0 0 2
Validated: 5
EndChar

StartChar: si_Ca.reph
Encoding: 141 -1 34
GlifName: si_C_a.reph
Width: 583
VWidth: 0
Flags: HW
AnchorPoint: "cursive" 71 0 entry 0
LayerCount: 2
Fore
SplineSet
268 613 m 256
 268 592 286 576 307 576 c 256
 328 576 347 592 347 613 c 256
 347 634 328 649 307 649 c 256
 286 649 268 634 268 613 c 256
168 631 m 256
 168 693 225 730 305 730 c 256
 380 730 441 688 441 619 c 256
 441 596 435 574 418 555 c 257
 385 555 l 257
 398 567 412 591 412 617 c 256
 412 673 363 703 303 703 c 256
 251 703 198 683 198 631 c 256
 198 593 239 575 261 573 c 257
 253 579 240 592 240 613 c 256
 240 647 272 672 307 672 c 256
 347 672 373 645 373 611 c 256
 373 573 340 549 283 549 c 256
 225 549 168 576 168 631 c 256
EndSplineSet
Refer: 445 3488 N 1 0 0 1 0 0 2
Validated: 5
EndChar

StartChar: si_Ch.halant
Encoding: 146 -1 35
GlifName: si_C_h.halant
Width: 583
VWidth: 0
Flags: HW
LayerCount: 2
Fore
SplineSet
282 348 m 257
 282 738 l 257
 338 692 426 687 426 611 c 256
 426 566 393 537 351 537 c 256
 337 537 323 538 308 543 c 257
 308 391 l 257
 282 348 l 257
308 567 m 257
 318 563 329 562 344 562 c 256
 376 562 390 585 390 607 c 256
 390 656 344 671 308 695 c 257
 308 567 l 257
EndSplineSet
Refer: 446 3489 N 1 0 0 1 0 0 2
Validated: 5
EndChar

StartChar: si_ChI
Encoding: 147 -1 36
GlifName: si_C_hI_
Width: 583
VWidth: 0
Flags: HW
LayerCount: 2
Fore
SplineSet
228 479 m 256
 228 564 296 642 373 642 c 256
 419 642 450 611 450 569 c 256
 450 565 449 563 449 559 c 257
 420 531 l 257
 424 537 426 551 426 562 c 256
 426 590 414 607 384 607 c 256
 328 607 270 537 270 475 c 256
 270 444 284 419 324 419 c 256
 338 419 348 421 365 426 c 257
 361 415 l 257
 348 407 321 398 319 397 c 257
 318 397 316 397 315 397 c 256
 253 397 228 430 228 479 c 256
EndSplineSet
Refer: 446 3489 N 1 0 0 1 0 0 2
Validated: 5
EndChar

StartChar: si_ChIi
Encoding: 148 -1 37
GlifName: si_C_hI_i
Width: 583
VWidth: 0
Flags: HW
LayerCount: 2
Fore
SplineSet
330 565 m 256
 330 539 351 518 377 518 c 256
 403 518 425 539 425 565 c 256
 425 591 403 613 377 613 c 256
 351 613 330 591 330 565 c 256
228 479 m 256
 228 564 297 641 378 641 c 256
 422 641 453 604 453 565 c 256
 453 528 424 490 378 490 c 256
 331 490 305 528 305 561 c 256
 305 561 305 562 305 563 c 257
 286 539 270 508 270 475 c 256
 270 444 284 419 324 419 c 256
 338 419 348 421 365 426 c 257
 361 415 l 257
 348 407 321 398 319 397 c 257
 318 397 316 397 315 397 c 256
 253 397 228 430 228 479 c 256
EndSplineSet
Refer: 446 3489 N 1 0 0 1 0 0 2
Validated: 5
EndChar

StartChar: si_ChU
Encoding: 149 -1 38
GlifName: si_C_hU_
Width: 583
VWidth: 0
Flags: HW
LayerCount: 2
Fore
SplineSet
38 -139 m 256
 38 -88 83 -49 137 -49 c 256
 178 -49 214 -72 229 -107 c 257
 199 -119 l 257
 192 -99 169 -78 137 -78 c 256
 101 -78 70 -104 70 -139 c 256
 70 -167 93 -194 157 -194 c 258
 496 -194 l 257
 496 125 l 257
 527 193 l 257
 527 -229 l 257
 141 -229 l 258
 74 -229 38 -182 38 -139 c 256
EndSplineSet
Refer: 446 3489 N 1 0 0 1 0 0 2
Validated: 5
EndChar

StartChar: si_ChUu
Encoding: 150 -1 39
GlifName: si_C_hU_u
Width: 583
VWidth: 0
Flags: HW
LayerCount: 2
Fore
SplineSet
38 -135 m 256
 38 -78 86 -39 138 -39 c 256
 179 -39 210 -54 232 -89 c 257
 203 -100 l 257
 191 -81 171 -66 143 -66 c 256
 105 -66 73 -90 73 -126 c 256
 73 -162 104 -187 146 -187 c 256
 228 -187 293 -114 386 -114 c 256
 433 -114 472 -135 496 -164 c 257
 496 138 l 257
 528 196 l 257
 528 -226 l 257
 506 -226 l 257
 491 -191 452 -141 389 -141 c 256
 300 -141 242 -231 146 -231 c 256
 92 -231 38 -201 38 -135 c 256
EndSplineSet
Refer: 446 3489 N 1 0 0 1 0 0 2
Validated: 5
EndChar

StartChar: si_D.halant
Encoding: 263 -1 40
GlifName: si_D_.halant
Width: 445
VWidth: 0
Flags: HW
LayerCount: 2
Fore
SplineSet
258 403 m 261
 258 664 l 261
 311 623 404 618 404 528 c 260
 404 485 370 456 328 456 c 260
 313 456 300 459 285 466 c 261
 285 387 l 261
 258 403 l 261
285 490 m 261
 294 485 303 483 316 483 c 260
 353 483 369 508 369 531 c 260
 369 572 331 592 285 622 c 261
 285 490 l 261
EndSplineSet
Refer: 460 3503 N 1 0 0 1 0 0 2
Validated: 5
EndChar

StartChar: si_DAa
Encoding: 264 -1 41
GlifName: si_D_A_a
Width: 445
VWidth: 0
Flags: HW
LayerCount: 2
Fore
SplineSet
30 165 m 256
 30 268 102 310 218 310 c 258
 335 310 l 257
 325 355 297 387 254 387 c 256
 235 387 220 375 211 357 c 256
 201 336 186 328 171 328 c 256
 147 328 134 342 134 363 c 256
 134 398 173 423 227 423 c 256
 311 423 352 380 370 287 c 257
 236 287 l 258
 150 287 105 251 105 169 c 256
 105 87 169 25 252 25 c 256
 301 25 342 45 381 90 c 257
 402 73 l 257
 382 56 368 40 353 32 c 257
 356 33 353 33 357 33 c 256
 404 33 437 -18 437 -85 c 256
 437 -171 398 -207 340 -207 c 256
 292 -207 275 -183 275 -162 c 257
 303 -162 l 257
 303 -172 311 -183 330 -183 c 256
 371 -183 381 -145 381 -85 c 256
 381 -41 367 0 337 0 c 256
 309 0 297 -28 297 -44 c 257
 271 -44 l 257
 271 -28 279 -6 292 4 c 257
 265 -1 250 -1 229 -1 c 256
 101 -1 30 67 30 165 c 256
EndSplineSet
Validated: 1
EndChar

StartChar: si_DAa.halant
Encoding: 273 -1 42
GlifName: si_D_A_a.halant
Width: 594
VWidth: 0
Flags: HW
LayerCount: 2
Fore
SplineSet
30 165 m 256
 30 268 102 310 218 310 c 258
 335 310 l 257
 325 355 297 387 254 387 c 256
 235 387 220 375 211 357 c 256
 201 336 186 328 171 328 c 256
 147 328 134 342 134 363 c 256
 134 398 173 423 227 423 c 256
 311 423 352 380 370 287 c 257
 236 287 l 258
 150 287 105 251 105 169 c 256
 105 87 169 25 252 25 c 256
 301 25 342 45 381 90 c 257
 402 73 l 257
 382 56 368 40 353 32 c 257
 356 33 353 33 357 33 c 256
 404 33 437 -18 437 -85 c 256
 437 -171 398 -207 340 -207 c 256
 292 -207 275 -183 275 -162 c 257
 303 -162 l 257
 303 -172 311 -183 330 -183 c 256
 371 -183 381 -145 381 -85 c 256
 381 -41 367 0 337 0 c 256
 309 0 297 -28 297 -44 c 257
 271 -44 l 257
 271 -28 279 -6 292 4 c 257
 265 -1 250 -1 229 -1 c 256
 101 -1 30 67 30 165 c 256
409 -52 m 261
 409 664 l 261
 462 623 556 618 556 528 c 260
 556 485 521 456 479 456 c 260
 464 456 451 459 436 466 c 261
 436 -99 l 261
 409 -52 l 261
436 490 m 261
 445 485 455 483 468 483 c 260
 505 483 520 508 520 531 c 260
 520 572 482 592 436 622 c 261
 436 490 l 261
EndSplineSet
Validated: 5
EndChar

StartChar: si_DAae
Encoding: 266 -1 43
GlifName: si_D_A_ae
Width: 450
VWidth: 0
Flags: HW
LayerCount: 2
Fore
SplineSet
30 165 m 256
 30 268 102 310 218 310 c 258
 335 310 l 257
 325 355 297 387 254 387 c 256
 235 387 220 375 211 357 c 256
 201 336 186 328 171 328 c 256
 147 328 134 342 134 363 c 256
 134 398 173 423 227 423 c 256
 311 423 352 380 370 287 c 257
 236 287 l 258
 150 287 105 251 105 169 c 256
 105 87 170 25 253 25 c 256
 302 25 336 45 375 90 c 257
 394 74 l 257
 394 67 346 27 346 27 c 257
 416 27 l 257
 416 5 l 257
 354 -35 l 257
 414 -35 l 257
 414 -57 l 257
 393 -65 369 -90 369 -133 c 256
 369 -172 388 -199 422 -199 c 257
 422 -223 l 257
 419 -224 415 -225 411 -225 c 256
 356 -225 315 -183 315 -139 c 256
 315 -101 341 -73 371 -59 c 257
 305 -59 l 257
 305 -39 l 257
 327 -25 351 -10 374 4 c 257
 372 4 307 4 307 4 c 257
 288 -12 239 -50 239 -113 c 256
 239 -171 274 -195 308 -201 c 257
 308 -223 l 257
 304 -224 294 -225 289 -225 c 256
 228 -225 182 -193 182 -129 c 256
 182 -77 220 -40 266 1 c 257
 253 -1 239 -1 233 -1 c 256
 98 -1 30 67 30 165 c 256
EndSplineSet
Validated: 1
EndChar

StartChar: si_DAe
Encoding: 265 -1 44
GlifName: si_D_A_e
Width: 445
VWidth: 0
Flags: HW
LayerCount: 2
Fore
SplineSet
30 165 m 256
 30 268 102 310 218 310 c 258
 335 310 l 257
 325 355 297 387 254 387 c 256
 235 387 220 375 211 357 c 256
 201 336 186 328 171 328 c 256
 147 328 134 342 134 363 c 256
 134 398 173 423 227 423 c 256
 311 423 352 380 370 287 c 257
 236 287 l 258
 150 287 105 251 105 169 c 256
 105 87 170 25 253 25 c 256
 302 25 336 45 375 90 c 257
 397 73 l 257
 371 44 361 5 361 -58 c 256
 361 -124 388 -199 422 -199 c 257
 422 -223 l 257
 419 -224 415 -225 411 -225 c 256
 356 -225 314 -173 314 -102 c 256
 314 -48 338 6 348 30 c 257
 285 -9 239 -50 239 -113 c 256
 239 -171 274 -195 308 -201 c 257
 308 -223 l 257
 304 -224 294 -225 289 -225 c 256
 228 -225 182 -193 182 -129 c 256
 182 -77 220 -40 266 1 c 257
 253 -1 239 -1 233 -1 c 256
 98 -1 30 67 30 165 c 256
EndSplineSet
Validated: 1
EndChar

StartChar: si_DDdh.halant
Encoding: 510 -1 45
GlifName: si_D_D_dh.halant
Width: 711
VWidth: 0
Flags: HW
LayerCount: 2
Fore
SplineSet
226 530 m 256
 226 518 249 514 249 503 c 256
 249 501 248 498 246 496 c 257
 278 502 317 507 362 507 c 256
 467 507 550 478 607 412 c 257
 575 524 480 576 367 576 c 256
 297 576 226 553 226 530 c 256
122 190 m 256
 122 281 174 356 238 378 c 256
 259 385 282 389 306 389 c 257
 306 364 l 258
 303 364 299 364 296 364 c 256
 219 364 155 294 155 207 c 256
 155 133 202 69 273 69 c 256
 323 69 373 90 373 152 c 258
 373 191 l 257
 400 191 l 257
 400 152 l 258
 400 90 449 69 497 69 c 256
 595 69 631 184 631 260 c 256
 631 404 522 482 365 482 c 256
 291 482 210 466 131 442 c 257
 131 473 l 257
 162 481 213 490 213 496 c 256
 213 508 186 512 186 533 c 256
 186 569 249 614 361 614 c 256
 564 614 636 479 648 348 c 257
 657 324 666 280 666 239 c 256
 666 131 625 0 502 0 c 256
 454 0 415 20 386 58 c 257
 356 20 319 0 275 0 c 256
 175 0 122 93 122 190 c 256
26 207 m 256
 26 336 99 423 215 423 c 256
 240 423 283 417 306 389 c 257
 293 387 273 385 269 385 c 257
 261 393 239 397 221 397 c 256
 90 397 55 288 55 203 c 256
 55 128 81 73 132 29 c 257
 132 0 l 257
 68 32 26 108 26 207 c 256
EndSplineSet
Validated: 5
EndChar

StartChar: si_DDhI
Encoding: 511 -1 46
GlifName: si_D_D_hI_
Width: 711
VWidth: 0
Flags: HW
LayerCount: 2
Fore
SplineSet
26 207 m 256
 26 336 99 423 215 423 c 256
 240 423 283 417 306 389 c 257
 293 387 273 385 269 385 c 257
 261 393 239 397 221 397 c 256
 90 397 55 288 55 203 c 256
 55 128 81 73 132 29 c 257
 132 0 l 257
 68 32 26 108 26 207 c 256
EndSplineSet
Refer: 85 -1 N 1 0 0 1 90 0 2
Validated: 5
EndChar

StartChar: si_DDhIi
Encoding: 512 -1 47
GlifName: si_D_D_hI_i
Width: 711
VWidth: 0
Flags: HW
LayerCount: 2
Fore
SplineSet
26 207 m 256
 26 336 99 423 215 423 c 256
 240 423 283 417 306 389 c 257
 293 387 273 385 269 385 c 257
 261 393 239 397 221 397 c 256
 90 397 55 288 55 203 c 256
 55 128 81 73 132 29 c 257
 132 0 l 257
 68 32 26 108 26 207 c 256
EndSplineSet
Refer: 86 -1 N 1 0 0 1 90 0 2
Validated: 5
EndChar

StartChar: si_DDhU
Encoding: 513 -1 48
GlifName: si_D_D_hU_
Width: 711
VWidth: 0
Flags: HW
LayerCount: 2
Fore
SplineSet
141 -139 m 256
 141 -88 185 -49 239 -49 c 256
 280 -49 316 -72 331 -107 c 257
 302 -119 l 257
 295 -99 271 -78 239 -78 c 256
 203 -78 173 -104 173 -139 c 256
 173 -167 196 -194 260 -194 c 258
 619 -194 l 257
 619 125 l 257
 651 214 l 257
 651 -229 l 257
 243 -229 l 258
 176 -229 141 -182 141 -139 c 256
EndSplineSet
Refer: 50 -1 N 1 0 0 1 0 0 2
Validated: 5
EndChar

StartChar: si_DDhUu
Encoding: 514 -1 49
GlifName: si_D_D_hU_u
Width: 711
VWidth: 0
Flags: HW
LayerCount: 2
Fore
SplineSet
140 -135 m 256
 140 -78 187 -39 239 -39 c 256
 280 -39 312 -54 334 -89 c 257
 305 -100 l 257
 293 -81 272 -66 244 -66 c 256
 206 -66 175 -90 175 -126 c 256
 175 -162 205 -187 247 -187 c 256
 329 -187 410 -114 503 -114 c 256
 545 -114 593 -133 619 -164 c 257
 619 148 l 257
 651 207 l 257
 651 -226 l 257
 629 -226 l 257
 614 -191 572 -141 506 -141 c 256
 417 -141 344 -231 248 -231 c 256
 194 -231 140 -201 140 -135 c 256
EndSplineSet
Refer: 50 -1 N 1 0 0 1 0 0 2
Validated: 5
EndChar

StartChar: si_DDha
Encoding: 460 -1 50
GlifName: si_D_D_ha
Width: 711
VWidth: 0
Flags: HW
LayerCount: 2
Fore
SplineSet
26 207 m 256
 26 336 99 423 215 423 c 256
 240 423 283 417 306 389 c 257
 269 385 l 257
 261 393 239 397 221 397 c 256
 90 397 55 288 55 203 c 256
 55 128 81 73 132 29 c 257
 132 0 l 257
 68 32 26 108 26 207 c 256
EndSplineSet
Refer: 461 3504 N 1 0 0 1 90 0 2
Validated: 5
EndChar

StartChar: si_DI
Encoding: 267 -1 51
GlifName: si_D_I_
Width: 445
VWidth: 0
Flags: HW
LayerCount: 2
Fore
SplineSet
34 506 m 256
 34 605 123 655 218 655 c 256
 313 655 401 603 401 506 c 256
 401 433 339 397 288 396 c 257
 276 416 l 257
 329 416 372 451 372 497 c 256
 372 558 288 584 218 584 c 256
 148 584 64 559 64 497 c 256
 64 450 106 415 189 415 c 257
 147 396 l 257
 83 406 34 441 34 506 c 256
EndSplineSet
Refer: 460 3503 N 1 0 0 1 0 0 2
Validated: 5
EndChar

StartChar: si_DIi
Encoding: 268 -1 52
GlifName: si_D_I_i
Width: 445
VWidth: 0
Flags: HW
LayerCount: 2
Fore
SplineSet
241 502 m 256
 241 472 271 447 306 447 c 256
 341 447 370 472 370 502 c 256
 370 532 341 557 306 557 c 256
 271 557 241 532 241 502 c 256
34 506 m 256
 34 605 123 655 218 655 c 256
 313 655 401 601 401 511 c 256
 401 453 355 419 305 419 c 256
 246 419 210 459 210 503 c 256
 210 547 245 573 271 578 c 257
 260 581 232 584 218 584 c 256
 148 584 64 559 64 497 c 256
 64 450 106 415 189 415 c 257
 147 396 l 257
 83 406 34 441 34 506 c 256
EndSplineSet
Refer: 460 3503 N 1 0 0 1 0 0 2
Validated: 5
EndChar

StartChar: si_DRI
Encoding: 277 -1 53
GlifName: si_D_R_I_
Width: 445
VWidth: 0
Flags: HW
LayerCount: 2
Fore
SplineSet
34 506 m 256
 34 605 123 655 218 655 c 256
 313 655 401 603 401 506 c 256
 401 433 339 397 288 396 c 257
 276 416 l 257
 329 416 372 451 372 497 c 256
 372 558 288 584 218 584 c 256
 148 584 64 559 64 497 c 256
 64 450 106 415 189 415 c 257
 147 396 l 257
 83 406 34 441 34 506 c 256
33 -42 m 257
 58 -42 l 257
 79 -109 123 -139 198 -139 c 256
 300 -139 373 -70 373 50 c 256
 373 71 373 64 372 72 c 257
 397 77 l 257
 397 57 397 74 397 38 c 256
 397 -107 313 -199 210 -199 c 256
 107 -199 53 -142 33 -42 c 257
30 165 m 256
 30 268 102 310 218 310 c 258
 335 310 l 257
 325 355 297 387 254 387 c 256
 235 387 220 375 211 357 c 256
 201 336 186 328 171 328 c 256
 147 328 134 342 134 363 c 256
 134 398 173 423 227 423 c 256
 311 423 352 380 370 287 c 257
 236 287 l 258
 150 287 105 251 105 169 c 256
 105 87 174 26 255 26 c 256
 300 26 343 49 375 90 c 257
 397 77 l 257
 358 33 321 -1 229 -1 c 256
 101 -1 30 67 30 165 c 256
EndSplineSet
Validated: 5
EndChar

StartChar: si_DRIi
Encoding: 278 -1 54
GlifName: si_D_R_I_i
Width: 445
VWidth: 0
Flags: HW
LayerCount: 2
Fore
SplineSet
241 502 m 256
 241 472 271 447 306 447 c 256
 341 447 370 472 370 502 c 256
 370 532 341 557 306 557 c 256
 271 557 241 532 241 502 c 256
34 506 m 256
 34 605 123 655 218 655 c 256
 313 655 401 601 401 511 c 256
 401 453 355 419 305 419 c 256
 246 419 210 459 210 503 c 256
 210 547 245 573 271 578 c 257
 260 581 232 584 218 584 c 256
 148 584 64 559 64 497 c 256
 64 450 106 415 189 415 c 257
 147 396 l 257
 83 406 34 441 34 506 c 256
33 -42 m 257
 58 -42 l 257
 79 -109 123 -139 198 -139 c 256
 300 -139 373 -70 373 50 c 256
 373 71 373 64 372 72 c 257
 397 77 l 257
 397 57 397 74 397 38 c 256
 397 -107 313 -199 210 -199 c 256
 107 -199 53 -142 33 -42 c 257
30 165 m 256
 30 268 102 310 218 310 c 258
 335 310 l 257
 325 355 297 387 254 387 c 256
 235 387 220 375 211 357 c 256
 201 336 186 328 171 328 c 256
 147 328 134 342 134 363 c 256
 134 398 173 423 227 423 c 256
 311 423 352 380 370 287 c 257
 236 287 l 258
 150 287 105 251 105 169 c 256
 105 87 174 26 255 26 c 256
 300 26 343 49 375 90 c 257
 397 77 l 257
 358 33 321 -1 229 -1 c 256
 101 -1 30 67 30 165 c 256
EndSplineSet
Validated: 5
EndChar

StartChar: si_DRa
Encoding: 276 -1 55
GlifName: si_D_R_a
Width: 445
VWidth: 0
Flags: HW
LayerCount: 2
Fore
SplineSet
33 -42 m 257
 58 -42 l 257
 79 -109 123 -139 198 -139 c 256
 300 -139 373 -70 373 50 c 256
 373 71 373 64 372 72 c 257
 397 77 l 257
 397 57 397 74 397 38 c 256
 397 -107 313 -199 210 -199 c 256
 107 -199 53 -142 33 -42 c 257
30 165 m 256
 30 268 102 310 218 310 c 258
 335 310 l 257
 325 355 297 387 254 387 c 256
 235 387 220 375 211 357 c 256
 201 336 186 328 171 328 c 256
 147 328 134 342 134 363 c 256
 134 398 173 423 227 423 c 256
 311 423 352 380 370 287 c 257
 236 287 l 258
 150 287 105 251 105 169 c 256
 105 87 174 26 255 26 c 256
 300 26 343 49 375 90 c 257
 397 77 l 257
 358 33 321 -1 229 -1 c 256
 101 -1 30 67 30 165 c 256
EndSplineSet
Validated: 5
EndChar

StartChar: si_DU
Encoding: 269 -1 56
GlifName: si_D_U_
Width: 445
VWidth: 0
Flags: HW
LayerCount: 2
Fore
SplineSet
32 -139 m 256
 32 -88 77 -49 131 -49 c 256
 172 -49 208 -72 223 -107 c 257
 193 -119 l 257
 186 -99 163 -78 131 -78 c 256
 95 -78 64 -104 64 -139 c 256
 64 -167 87 -194 151 -194 c 258
 365 -194 l 257
 365 67 l 257
 397 77 l 257
 397 -229 l 257
 135 -229 l 258
 68 -229 32 -182 32 -139 c 256
30 165 m 256
 30 268 102 310 218 310 c 258
 335 310 l 257
 325 355 297 387 254 387 c 256
 235 387 220 375 211 357 c 256
 201 336 186 328 171 328 c 256
 147 328 134 342 134 363 c 256
 134 398 173 423 227 423 c 256
 311 423 352 380 370 287 c 257
 236 287 l 258
 150 287 105 251 105 169 c 256
 105 87 174 26 255 26 c 256
 300 26 343 49 375 90 c 257
 397 77 l 257
 358 33 321 -1 229 -1 c 256
 101 -1 30 67 30 165 c 256
EndSplineSet
Validated: 5
EndChar

StartChar: si_DUu
Encoding: 270 -1 57
GlifName: si_D_U_u
Width: 445
VWidth: 0
Flags: HW
LayerCount: 2
Fore
SplineSet
32 -136 m 256
 32 -79 80 -40 132 -40 c 256
 173 -40 205 -55 227 -90 c 257
 197 -101 l 257
 185 -82 165 -67 137 -67 c 256
 99 -67 67 -91 67 -127 c 256
 67 -163 95 -188 137 -188 c 256
 191 -188 217 -125 293 -125 c 256
 317 -125 346 -133 365 -156 c 257
 365 70 l 257
 397 77 l 257
 397 -227 l 257
 375 -227 l 257
 361 -190 343 -150 299 -150 c 256
 224 -150 203 -232 129 -232 c 256
 82 -232 32 -202 32 -136 c 256
30 165 m 256
 30 268 102 310 218 310 c 258
 335 310 l 257
 325 355 297 387 254 387 c 256
 235 387 220 375 211 357 c 256
 201 336 186 328 171 328 c 256
 147 328 134 342 134 363 c 256
 134 398 173 423 227 423 c 256
 311 423 352 380 370 287 c 257
 236 287 l 258
 150 287 105 251 105 169 c 256
 105 87 174 26 255 26 c 256
 300 26 343 49 375 90 c 257
 397 77 l 257
 358 33 321 -1 229 -1 c 256
 101 -1 30 67 30 165 c 256
EndSplineSet
Validated: 5
EndChar

StartChar: si_DV.halant
Encoding: 515 -1 58
GlifName: si_D_V_.halant
Width: 671
VWidth: 0
Flags: HW
LayerCount: 2
Fore
SplineSet
123 161 m 256
 123 244 186 297 285 297 c 258
 345 297 l 258
 345 299 345 299 345 301 c 256
 345 354 311 386 275 386 c 256
 231 386 225 363 219 347 c 256
 212 328 203 315 182 315 c 256
 166 315 146 326 146 351 c 256
 146 395 194 422 248 422 c 256
 334 422 376 367 376 283 c 256
 376 280 376 276 376 273 c 258
 288 273 l 258
 216 273 157 239 157 176 c 256
 157 92 266 69 354 69 c 256
 500 69 589 150 593 283 c 257
 593 398 501 482 350 482 c 256
 276 482 207 469 129 437 c 257
 129 467 l 257
 160 477 209 488 209 496 c 256
 209 508 182 512 182 533 c 256
 182 569 243 614 355 614 c 256
 545 614 606 479 618 348 c 256
 623 325 626 298 626 268 c 257
 626 111 530 0 352 0 c 256
 234 0 123 45 123 161 c 256
223 530 m 256
 223 518 246 514 246 503 c 256
 246 501 244 498 242 496 c 257
 274 502 312 507 357 507 c 256
 444 507 530 475 577 412 c 257
 545 524 465 576 361 576 c 256
 291 576 223 553 223 530 c 256
26 216 m 256
 26 345 97 423 233 423 c 256
 242 423 265 423 286 417 c 257
 265 406 190 397 173 391 c 257
 100 373 55 312 55 213 c 256
 55 134 81 73 132 29 c 257
 132 0 l 257
 68 32 26 117 26 216 c 256
EndSplineSet
Validated: 5
EndChar

StartChar: si_DVI
Encoding: 516 -1 59
GlifName: si_D_V_I_
Width: 671
VWidth: 0
Flags: HW
LayerCount: 2
Fore
SplineSet
135 549 m 256
 135 637 259 654 357 654 c 256
 490 654 595 624 595 541 c 256
 595 490 542 469 509 463 c 257
 460 479 l 257
 495 480 549 494 549 531 c 256
 549 586 462 597 357 597 c 256
 283 597 176 592 176 541 c 256
 176 496 236 496 336 492 c 256
 399 489 488 487 542 448 c 256
 590 413 625 348 625 266 c 257
 592 287 l 257
 592 327 576 375 549 404 c 256
 497 461 437 461 338 467 c 256
 251 472 135 465 135 549 c 256
122 161 m 256
 122 244 185 297 284 297 c 258
 344 297 l 257
 344 299 344 299 344 301 c 256
 344 354 310 386 274 386 c 256
 230 386 223 363 217 347 c 256
 210 328 201 315 180 315 c 256
 164 315 145 326 145 351 c 256
 145 395 193 422 247 422 c 256
 333 422 375 367 375 283 c 256
 375 280 375 276 375 273 c 257
 287 273 l 258
 215 273 156 239 156 176 c 256
 156 92 266 69 354 69 c 256
 503 69 592 154 592 293 c 257
 604 282 610 276 625 268 c 257
 625 112 530 0 351 0 c 256
 233 0 122 45 122 161 c 256
26 216 m 256
 26 345 97 423 233 423 c 256
 242 423 265 423 286 417 c 257
 265 406 190 397 173 391 c 257
 100 373 55 312 55 213 c 256
 55 134 81 73 132 29 c 257
 132 0 l 257
 68 32 26 117 26 216 c 256
EndSplineSet
Validated: 5
EndChar

StartChar: si_DVIi
Encoding: 517 -1 60
GlifName: si_D_V_I_i
Width: 671
VWidth: 0
Flags: HW
LayerCount: 2
Fore
SplineSet
446 542 m 256
 446 513 473 489 505 489 c 256
 537 489 563 513 563 542 c 256
 563 571 537 595 505 595 c 256
 473 595 446 571 446 542 c 256
136 549 m 256
 136 637 259 654 357 654 c 256
 490 654 595 624 595 545 c 256
 595 493 548 463 505 463 c 256
 462 463 415 493 415 545 c 256
 415 569 428 586 434 594 c 257
 427 595 398 597 357 597 c 256
 283 597 177 592 177 541 c 256
 177 496 236 496 336 492 c 256
 399 489 488 487 542 448 c 256
 590 413 625 351 625 268 c 257
 592 279 l 257
 592 329 576 375 549 404 c 256
 497 461 436 461 337 467 c 256
 250 472 136 465 136 549 c 256
122 161 m 256
 122 244 185 297 284 297 c 258
 344 297 l 257
 344 299 344 299 344 301 c 256
 344 354 310 386 274 386 c 256
 230 386 223 363 217 347 c 256
 210 328 201 315 180 315 c 256
 164 315 145 326 145 351 c 256
 145 395 193 422 247 422 c 256
 333 422 375 367 375 283 c 256
 375 280 375 276 375 273 c 257
 287 273 l 258
 215 273 156 239 156 176 c 256
 156 92 266 69 354 69 c 256
 503 69 592 154 592 293 c 257
 604 282 610 276 625 268 c 257
 625 112 530 0 351 0 c 256
 233 0 122 45 122 161 c 256
26 216 m 256
 26 345 97 423 233 423 c 256
 242 423 265 423 286 417 c 257
 265 406 190 397 173 391 c 257
 100 373 55 312 55 213 c 256
 55 134 81 73 132 29 c 257
 132 0 l 257
 68 32 26 117 26 216 c 256
EndSplineSet
Validated: 5
EndChar

StartChar: si_DVU
Encoding: 518 -1 61
GlifName: si_D_V_U_
Width: 671
VWidth: 0
Flags: HW
LayerCount: 2
Fore
SplineSet
133 -139 m 256
 133 -88 178 -49 232 -49 c 256
 273 -49 309 -72 324 -107 c 257
 295 -119 l 257
 288 -99 264 -78 232 -78 c 256
 196 -78 166 -104 166 -139 c 256
 166 -167 188 -194 252 -194 c 258
 583 -194 l 257
 583 125 l 257
 615 214 l 257
 615 -229 l 257
 236 -229 l 258
 169 -229 133 -182 133 -139 c 256
122 161 m 256
 122 244 185 297 284 297 c 258
 344 297 l 257
 344 299 344 299 344 301 c 256
 344 354 310 386 274 386 c 256
 230 386 223 363 217 347 c 256
 210 328 202 315 181 315 c 256
 165 315 145 326 145 352 c 256
 145 394 193 422 247 422 c 256
 333 422 375 367 375 283 c 256
 375 280 375 276 375 273 c 257
 287 273 l 258
 215 273 156 239 156 176 c 256
 156 92 266 69 354 69 c 256
 503 69 592 154 592 293 c 256
 592 432 490 540 359 540 c 256
 282 540 221 513 177 459 c 257
 146 459 l 257
 194 527 263 563 359 563 c 256
 515 563 625 433 625 268 c 256
 625 112 530 0 351 0 c 256
 233 0 122 45 122 161 c 256
26 216 m 256
 26 345 97 423 233 423 c 256
 242 423 265 423 286 417 c 257
 265 406 190 397 173 391 c 257
 100 373 55 312 55 213 c 256
 55 134 81 73 132 29 c 257
 132 0 l 257
 68 32 26 117 26 216 c 256
EndSplineSet
Validated: 5
EndChar

StartChar: si_DVUu
Encoding: 519 -1 62
GlifName: si_D_V_U_u
Width: 671
VWidth: 0
Flags: HW
LayerCount: 2
Fore
SplineSet
135 -135 m 256
 135 -78 182 -39 234 -39 c 256
 275 -39 307 -54 329 -89 c 257
 300 -100 l 257
 288 -81 267 -66 239 -66 c 256
 201 -66 170 -90 170 -126 c 256
 170 -162 200 -187 242 -187 c 256
 324 -187 389 -114 482 -114 c 256
 529 -114 560 -131 583 -156 c 257
 583 148 l 257
 615 207 l 257
 615 -226 l 257
 593 -226 l 257
 578 -191 548 -141 485 -141 c 256
 396 -141 339 -231 243 -231 c 256
 189 -231 135 -201 135 -135 c 256
122 161 m 256
 122 244 185 297 284 297 c 258
 344 297 l 257
 344 299 344 299 344 301 c 256
 344 354 310 386 274 386 c 256
 230 386 223 363 217 347 c 256
 210 328 202 315 181 315 c 256
 165 315 145 326 145 352 c 256
 145 394 193 422 247 422 c 256
 333 422 375 367 375 283 c 256
 375 280 375 276 375 273 c 257
 287 273 l 258
 215 273 156 239 156 176 c 256
 156 92 266 69 354 69 c 256
 503 69 592 154 592 293 c 256
 592 432 490 540 359 540 c 256
 282 540 221 513 177 459 c 257
 146 459 l 257
 194 527 263 563 359 563 c 256
 515 563 625 433 625 268 c 256
 625 112 530 0 351 0 c 256
 233 0 122 45 122 161 c 256
26 216 m 256
 26 345 97 423 233 423 c 256
 242 423 265 423 286 417 c 257
 265 406 190 397 173 391 c 257
 100 373 55 312 55 213 c 256
 55 134 81 73 132 29 c 257
 132 0 l 257
 68 32 26 117 26 216 c 256
EndSplineSet
Validated: 5
EndChar

StartChar: si_DVa
Encoding: 461 -1 63
GlifName: si_D_V_a
Width: 671
VWidth: 0
Flags: HW
LayerCount: 2
Fore
SplineSet
122 161 m 256
 122 244 185 297 284 297 c 258
 344 297 l 257
 344 299 344 299 344 301 c 256
 344 354 310 386 274 386 c 256
 230 386 223 363 217 347 c 256
 210 328 202 315 181 315 c 256
 165 315 145 326 145 352 c 256
 145 394 193 422 247 422 c 256
 333 422 375 367 375 283 c 256
 375 280 375 276 375 273 c 257
 287 273 l 258
 215 273 156 239 156 176 c 256
 156 92 266 69 354 69 c 256
 503 69 592 154 592 293 c 256
 592 432 490 540 359 540 c 256
 282 540 221 513 177 459 c 257
 146 459 l 257
 194 527 263 563 359 563 c 256
 515 563 625 433 625 268 c 256
 625 112 530 0 351 0 c 256
 233 0 122 45 122 161 c 256
26 216 m 256
 26 345 97 423 233 423 c 256
 242 423 265 423 286 417 c 257
 265 406 190 397 173 391 c 257
 100 373 55 312 55 213 c 256
 55 134 81 73 132 29 c 257
 132 0 l 257
 68 32 26 117 26 216 c 256
EndSplineSet
Validated: 5
EndChar

StartChar: si_DYAa.post
Encoding: 280 -1 64
GlifName: si_D_Y_A_a.post
Width: 768
VWidth: 0
Flags: HW
LayerCount: 2
Fore
SplineSet
578 -30 m 257
 604 -30 l 257
 604 -7 617 19 645 19 c 256
 675 19 689 -27 689 -71 c 256
 689 -131 679 -169 638 -169 c 256
 619 -169 609 -158 609 -148 c 257
 584 -148 l 257
 584 -169 599 -193 647 -193 c 256
 705 -193 744 -157 744 -71 c 256
 744 -4 711 47 658 47 c 256
 600 47 578 7 578 -30 c 257
332 45 m 257
 341 47 345 49 355 49 c 256
 379 49 414 10 414 -41 c 256
 414 -75 408 -101 391 -131 c 257
 414 -146 444 -149 465 -149 c 256
 501 -149 545 -133 545 -92 c 256
 545 -56 515 -42 479 -42 c 256
 460 -42 434 -34 434 4 c 256
 434 33 461 53 496 53 c 256
 530 53 558 33 558 -1 c 256
 558 -5 558 -9 557 -13 c 257
 531 -13 l 257
 532 -9 533 -6 533 -2 c 256
 533 19 521 31 496 31 c 256
 475 31 459 21 459 4 c 256
 459 -17 474 -21 496 -21 c 256
 530 -21 579 -44 579 -104 c 256
 579 -162 528 -200 477 -200 c 256
 431 -200 402 -188 374 -152 c 257
 355 -173 330 -192 305 -200 c 257
 290 -180 l 257
 344 -158 389 -117 389 -43 c 256
 389 -2 365 29 342 29 c 256
 333 29 327 28 320 27 c 257
 332 45 l 257
229 -1 m 256
 101 -1 30 67 30 165 c 256
 30 268 102 310 218 310 c 258
 335 310 l 257
 325 355 297 387 254 387 c 256
 235 387 220 375 211 357 c 256
 201 336 186 328 171 328 c 256
 147 328 134 342 134 363 c 256
 134 398 173 423 227 423 c 256
 311 423 352 380 370 287 c 257
 236 287 l 258
 150 287 105 251 105 169 c 256
 105 87 169 25 252 25 c 256
 301 25 342 45 381 90 c 257
 402 73 l 257
 363 41 337 -1 229 -1 c 256
EndSplineSet
Validated: 5
EndChar

StartChar: si_DYOo.post
Encoding: 283 -1 65
GlifName: si_D_Y_O_o.post
Width: 874
VWidth: 0
Flags: HW
LayerCount: 2
Fore
SplineSet
714 -52 m 257
 714 664 l 257
 767 623 860 618 860 528 c 256
 860 485 826 456 784 456 c 256
 769 456 755 459 740 466 c 257
 740 -99 l 257
 714 -52 l 257
740 622 m 257
 740 490 l 257
 749 485 759 483 772 483 c 256
 809 483 824 508 824 531 c 256
 824 572 786 592 740 622 c 257
578 -30 m 257
 578 7 600 47 658 47 c 256
 711 47 744 -4 744 -71 c 256
 744 -157 705 -193 647 -193 c 256
 599 -193 584 -169 584 -148 c 257
 609 -148 l 257
 609 -158 619 -169 638 -169 c 256
 679 -169 689 -131 689 -71 c 256
 689 -27 675 19 645 19 c 256
 617 19 604 -7 604 -30 c 257
 578 -30 l 257
332 45 m 257
 341 47 345 49 355 49 c 256
 379 49 414 10 414 -41 c 256
 414 -75 408 -101 391 -131 c 257
 414 -146 444 -149 465 -149 c 256
 501 -149 545 -133 545 -92 c 256
 545 -56 515 -42 479 -42 c 256
 460 -42 434 -34 434 4 c 256
 434 33 461 53 496 53 c 256
 530 53 558 33 558 -1 c 256
 558 -5 558 -9 557 -13 c 257
 531 -13 l 257
 532 -9 533 -6 533 -2 c 256
 533 19 521 31 496 31 c 256
 475 31 459 21 459 4 c 256
 459 -17 474 -21 496 -21 c 256
 530 -21 579 -44 579 -104 c 256
 579 -162 528 -200 477 -200 c 256
 431 -200 402 -188 374 -152 c 257
 355 -173 330 -192 305 -200 c 257
 290 -180 l 257
 344 -158 389 -117 389 -43 c 256
 389 -2 365 29 342 29 c 256
 333 29 327 28 320 27 c 257
 332 45 l 257
229 -1 m 256
 101 -1 30 67 30 165 c 256
 30 268 102 310 218 310 c 258
 335 310 l 257
 325 355 297 387 254 387 c 256
 235 387 220 375 211 357 c 256
 201 336 186 328 171 328 c 256
 147 328 134 342 134 363 c 256
 134 398 173 423 227 423 c 256
 311 423 352 380 370 287 c 257
 236 287 l 258
 150 287 105 251 105 169 c 256
 105 87 169 25 252 25 c 256
 301 25 342 45 381 90 c 257
 402 73 l 257
 363 41 337 -1 229 -1 c 256
EndSplineSet
Validated: 5
EndChar

StartChar: si_DYUu.post
Encoding: 282 -1 66
GlifName: si_D_Y_U_u.post
Width: 599
VWidth: 0
Flags: HW
LayerCount: 2
Fore
SplineSet
332 45 m 257
 341 47 345 49 355 49 c 256
 379 49 414 10 414 -41 c 256
 414 -75 408 -101 391 -131 c 257
 414 -146 444 -149 465 -149 c 256
 501 -149 545 -133 545 -92 c 256
 545 -56 515 -42 479 -42 c 256
 460 -42 434 -34 434 4 c 256
 434 33 461 53 496 53 c 256
 530 53 558 33 558 -1 c 256
 558 -5 558 -9 557 -13 c 257
 531 -13 l 257
 532 -9 533 -6 533 -2 c 256
 533 19 521 31 496 31 c 256
 475 31 459 21 459 4 c 256
 459 -17 474 -21 496 -21 c 256
 530 -21 579 -44 579 -104 c 256
 579 -162 528 -200 477 -200 c 256
 431 -200 402 -188 374 -152 c 257
 355 -173 330 -192 305 -200 c 257
 290 -180 l 257
 344 -158 389 -117 389 -43 c 256
 389 -2 365 27 342 27 c 256
 333 27 327 26 320 25 c 257
 332 45 l 257
229 -1 m 256
 101 -1 30 67 30 165 c 256
 30 268 102 310 218 310 c 258
 335 310 l 257
 325 355 297 387 254 387 c 256
 235 387 220 375 211 357 c 256
 201 336 186 328 171 328 c 256
 147 328 134 342 134 363 c 256
 134 398 173 423 227 423 c 256
 311 423 352 380 370 287 c 257
 236 287 l 258
 150 287 105 251 105 169 c 256
 105 87 169 25 252 25 c 256
 301 25 342 45 381 90 c 257
 402 73 l 257
 363 41 337 -1 229 -1 c 256
572 -136 m 257
 572 -336 l 257
 572 -336 557 -336 549 -335 c 257
 541 -319 520 -307 488 -307 c 256
 442 -307 422 -340 368 -340 c 256
 330 -340 300 -315 300 -275 c 256
 300 -238 326 -215 364 -215 c 256
 394 -215 411 -230 421 -251 c 257
 399 -262 l 257
 392 -245 378 -236 362 -236 c 256
 341 -236 326 -249 326 -270 c 256
 326 -296 347 -307 372 -307 c 256
 421 -307 443 -285 492 -285 c 256
 529 -285 546 -301 546 -301 c 257
 546 -172 l 257
 572 -136 l 257
EndSplineSet
Validated: 5
EndChar

StartChar: si_DYa.post
Encoding: 279 -1 67
GlifName: si_D_Y_a.post
Width: 599
VWidth: 0
Flags: HW
LayerCount: 2
Fore
SplineSet
332 45 m 257
 341 47 345 49 355 49 c 256
 379 49 414 10 414 -41 c 256
 414 -75 408 -101 391 -131 c 257
 414 -146 444 -149 465 -149 c 256
 501 -149 545 -133 545 -92 c 256
 545 -56 515 -42 479 -42 c 256
 460 -42 434 -34 434 4 c 256
 434 33 461 53 496 53 c 256
 530 53 558 33 558 -1 c 256
 558 -5 558 -9 557 -13 c 257
 531 -13 l 257
 532 -9 533 -6 533 -2 c 256
 533 19 521 31 496 31 c 256
 475 31 459 21 459 4 c 256
 459 -17 474 -21 496 -21 c 256
 530 -21 579 -44 579 -104 c 256
 579 -162 528 -200 477 -200 c 256
 431 -200 402 -188 374 -152 c 257
 355 -173 330 -192 305 -200 c 257
 290 -180 l 257
 344 -158 389 -117 389 -43 c 256
 389 -2 365 29 342 29 c 256
 333 29 327 28 320 27 c 257
 332 45 l 257
229 -1 m 256
 101 -1 30 67 30 165 c 256
 30 268 102 310 218 310 c 258
 335 310 l 257
 325 355 297 387 254 387 c 256
 235 387 220 375 211 357 c 256
 201 336 186 328 171 328 c 256
 147 328 134 342 134 363 c 256
 134 398 173 423 227 423 c 256
 311 423 352 380 370 287 c 257
 236 287 l 258
 150 287 105 251 105 169 c 256
 105 87 169 25 252 25 c 256
 301 25 342 45 381 90 c 257
 402 73 l 257
 363 41 337 -1 229 -1 c 256
EndSplineSet
Validated: 5
EndChar

StartChar: si_DYu.post
Encoding: 281 -1 68
GlifName: si_D_Y_u.post
Width: 599
VWidth: 0
Flags: HW
LayerCount: 2
Fore
SplineSet
332 45 m 257
 341 47 345 49 355 49 c 256
 379 49 414 10 414 -41 c 256
 414 -75 408 -101 391 -131 c 257
 414 -146 444 -149 465 -149 c 256
 501 -149 545 -133 545 -92 c 256
 545 -56 515 -42 479 -42 c 256
 460 -42 434 -34 434 4 c 256
 434 33 461 53 496 53 c 256
 530 53 558 33 558 -1 c 256
 558 -5 558 -9 557 -13 c 257
 531 -13 l 257
 532 -9 533 -6 533 -2 c 256
 533 19 521 31 496 31 c 256
 475 31 459 21 459 4 c 256
 459 -17 474 -21 496 -21 c 256
 530 -21 579 -44 579 -104 c 256
 579 -162 528 -200 477 -200 c 256
 431 -200 402 -188 374 -152 c 257
 355 -173 330 -192 305 -200 c 257
 290 -180 l 257
 344 -158 389 -117 389 -43 c 256
 389 -2 365 27 342 27 c 256
 333 27 327 26 320 25 c 257
 332 45 l 257
229 -1 m 256
 101 -1 30 67 30 165 c 256
 30 268 102 310 218 310 c 258
 335 310 l 257
 325 355 297 387 254 387 c 256
 235 387 220 375 211 357 c 256
 201 336 186 328 171 328 c 256
 147 328 134 342 134 363 c 256
 134 398 173 423 227 423 c 256
 311 423 352 380 370 287 c 257
 236 287 l 258
 150 287 105 251 105 169 c 256
 105 87 169 25 252 25 c 256
 301 25 342 45 381 90 c 257
 402 73 l 257
 363 41 337 -1 229 -1 c 256
572 -136 m 257
 572 -340 l 257
 380 -340 l 258
 326 -340 300 -310 300 -273 c 256
 300 -239 326 -215 364 -215 c 256
 394 -215 411 -230 421 -251 c 257
 399 -262 l 257
 392 -245 378 -236 362 -236 c 256
 341 -236 326 -251 326 -268 c 256
 326 -287 334 -306 393 -306 c 258
 546 -306 l 257
 546 -172 l 257
 572 -136 l 257
EndSplineSet
Validated: 5
EndChar

StartChar: si_Da.reph
Encoding: 274 -1 69
GlifName: si_D_a.reph
Width: 445
VWidth: 0
Flags: HW
AnchorPoint: "cursive" 50 0 entry 0
LayerCount: 2
Fore
SplineSet
194 499 m 256
 194 478 213 463 234 463 c 256
 255 463 273 478 273 499 c 256
 273 520 255 535 234 535 c 256
 213 535 194 520 194 499 c 256
94 518 m 256
 94 580 150 616 230 616 c 256
 305 616 369 574 369 505 c 256
 369 482 361 460 344 441 c 257
 312 441 l 257
 325 453 339 478 339 504 c 256
 339 560 290 590 230 590 c 256
 178 590 125 570 125 518 c 256
 125 480 166 461 188 459 c 257
 180 465 168 479 168 500 c 256
 168 534 197 559 232 559 c 256
 272 559 301 532 301 498 c 256
 301 460 266 435 209 435 c 256
 151 435 94 463 94 518 c 256
EndSplineSet
Refer: 460 3503 N 1 0 0 1 0 0 2
Validated: 1
EndChar

StartChar: si_Dd.halant
Encoding: 221 -1 70
GlifName: si_D_d.halant
Width: 631
VWidth: 0
Flags: HW
LayerCount: 2
Fore
SplineSet
144 530 m 256
 144 518 167 514 167 503 c 256
 167 501 166 498 164 496 c 257
 196 502 235 507 280 507 c 256
 385 507 468 478 525 412 c 257
 493 524 398 576 285 576 c 256
 215 576 144 553 144 530 c 256
49 432 m 257
 49 462 l 257
 80 474 131 487 131 496 c 256
 131 508 104 512 104 533 c 256
 104 569 167 614 279 614 c 256
 482 614 554 479 566 348 c 257
 577 322 584 289 584 248 c 257
 548 244 l 257
 548 247 549 261 549 266 c 256
 549 400 440 481 283 481 c 256
 209 481 128 469 49 432 c 257
15 281 m 257
 15 308 l 257
 255 308 l 257
 252 350 222 382 193 382 c 256
 175 382 161 377 147 354 c 256
 136 335 124 331 110 331 c 256
 90 331 74 344 74 365 c 256
 74 404 120 422 161 422 c 256
 243 422 287 365 288 281 c 257
 215 281 l 258
 124 281 81 225 81 170 c 256
 81 119 120 69 193 69 c 256
 241 69 292 93 292 140 c 258
 292 174 l 257
 318 174 l 257
 318 140 l 258
 318 95 365 69 414 69 c 256
 508 69 549 163 549 267 c 257
 564 264 577 256 584 252 c 257
 584 123 534 0 418 0 c 256
 355 0 327 29 306 58 c 257
 277 22 244 0 194 0 c 256
 95 0 45 79 45 158 c 256
 45 207 69 258 122 281 c 257
 15 281 l 257
EndSplineSet
Validated: 5
EndChar

StartChar: si_DdI
Encoding: 222 -1 71
GlifName: si_D_dI_
Width: 631
VWidth: 0
Flags: HW
LayerCount: 2
Fore
SplineSet
77 549 m 256
 77 637 210 654 308 654 c 256
 441 654 553 624 553 541 c 256
 553 490 500 469 467 463 c 257
 418 479 l 257
 453 480 507 494 507 531 c 256
 507 586 413 597 308 597 c 256
 234 597 118 592 118 541 c 256
 118 496 186 496 286 492 c 256
 349 489 446 487 500 448 c 256
 548 413 584 336 584 249 c 257
 549 262 l 257
 549 320 534 375 507 404 c 256
 455 461 386 461 287 467 c 256
 200 472 77 465 77 549 c 256
15 281 m 257
 15 308 l 257
 255 308 l 257
 252 350 222 382 193 382 c 256
 175 382 161 377 147 354 c 256
 136 335 124 331 110 331 c 256
 90 331 74 344 74 365 c 256
 74 404 120 422 161 422 c 256
 243 422 287 365 288 281 c 257
 215 281 l 258
 124 281 81 225 81 170 c 256
 81 119 120 69 193 69 c 256
 241 69 292 93 292 140 c 258
 292 174 l 257
 318 174 l 257
 318 140 l 258
 318 95 365 69 414 69 c 256
 508 69 549 163 549 267 c 257
 564 264 577 256 584 252 c 257
 584 123 534 0 418 0 c 256
 355 0 327 29 306 58 c 257
 277 22 244 0 194 0 c 256
 95 0 45 79 45 158 c 256
 45 207 69 258 122 281 c 257
 15 281 l 257
EndSplineSet
Validated: 5
EndChar

StartChar: si_DdIi
Encoding: 223 -1 72
GlifName: si_D_dI_i
Width: 631
VWidth: 0
Flags: HW
LayerCount: 2
Fore
SplineSet
404 542 m 256
 404 513 432 489 464 489 c 256
 496 489 522 513 522 542 c 256
 522 571 496 595 464 595 c 256
 432 595 404 571 404 542 c 256
78 549 m 256
 78 637 210 654 308 654 c 256
 441 654 554 628 554 545 c 256
 554 493 507 463 464 463 c 256
 421 463 374 493 374 545 c 256
 374 569 387 586 393 594 c 257
 386 595 349 597 308 597 c 256
 234 597 119 592 119 541 c 256
 119 496 186 496 286 492 c 256
 349 489 447 487 501 448 c 256
 549 413 584 340 584 248 c 257
 549 264 l 257
 549 326 535 375 508 404 c 256
 456 461 386 461 287 467 c 256
 200 472 78 465 78 549 c 256
15 281 m 257
 15 308 l 257
 255 308 l 257
 252 350 222 382 193 382 c 256
 175 382 161 377 147 354 c 256
 136 335 124 331 110 331 c 256
 90 331 74 344 74 365 c 256
 74 404 120 422 161 422 c 256
 243 422 287 365 288 281 c 257
 215 281 l 258
 124 281 81 225 81 170 c 256
 81 119 120 69 193 69 c 256
 241 69 292 93 292 140 c 258
 292 174 l 257
 318 174 l 257
 318 140 l 258
 318 95 365 69 414 69 c 256
 508 69 549 163 549 267 c 257
 564 264 577 256 584 252 c 257
 584 123 534 0 418 0 c 256
 355 0 327 29 306 58 c 257
 277 22 244 0 194 0 c 256
 95 0 45 79 45 158 c 256
 45 207 69 258 122 281 c 257
 15 281 l 257
EndSplineSet
Validated: 5
EndChar

StartChar: si_DdRI
Encoding: 229 -1 73
GlifName: si_D_dR_I_
Width: 631
VWidth: 0
Flags: HW
LayerCount: 2
Fore
SplineSet
55 -43 m 257
 81 -43 l 257
 115 -116 183 -153 286 -153 c 256
 426 -153 541 -88 541 49 c 256
 541 70 536 91 529 100 c 257
 542 130 l 257
 560 104 568 73 568 37 c 256
 568 -121 443 -214 302 -214 c 256
 172 -214 91 -149 55 -43 c 257
EndSplineSet
Refer: 71 -1 N 1 0 0 1 0 0 2
Validated: 5
EndChar

StartChar: si_DdRIi
Encoding: 230 -1 74
GlifName: si_D_dR_I_i
Width: 631
VWidth: 0
Flags: HW
LayerCount: 2
Fore
SplineSet
55 -43 m 257
 81 -43 l 257
 115 -116 183 -153 286 -153 c 256
 426 -153 541 -88 541 49 c 256
 541 70 536 91 529 100 c 257
 542 130 l 257
 560 104 568 73 568 37 c 256
 568 -121 443 -214 302 -214 c 256
 172 -214 91 -149 55 -43 c 257
EndSplineSet
Refer: 72 -1 N 1 0 0 1 0 0 2
Validated: 5
EndChar

StartChar: si_DdRa
Encoding: 228 -1 75
GlifName: si_D_dR_a
Width: 631
VWidth: 0
Flags: HW
LayerCount: 2
Fore
SplineSet
55 -43 m 261
 81 -43 l 261
 115 -116 183 -153 286 -153 c 260
 426 -153 541 -88 541 49 c 260
 541 70 536 91 529 100 c 261
 542 130 l 261
 560 104 568 73 568 37 c 260
 568 -121 443 -214 302 -214 c 260
 172 -214 91 -149 55 -43 c 261
EndSplineSet
Refer: 454 3497 N 1 0 0 1 0 0 2
Validated: 5
EndChar

StartChar: si_DdU
Encoding: 224 -1 76
GlifName: si_D_dU_
Width: 631
VWidth: 0
Flags: HW
LayerCount: 2
Fore
SplineSet
51 -139 m 256
 51 -88 95 -49 149 -49 c 256
 190 -49 226 -72 241 -107 c 257
 212 -119 l 257
 205 -99 181 -78 149 -78 c 256
 113 -78 83 -104 83 -139 c 256
 83 -167 106 -194 170 -194 c 258
 539 -194 l 257
 539 125 l 257
 571 214 l 257
 571 -229 l 257
 153 -229 l 258
 86 -229 51 -182 51 -139 c 256
EndSplineSet
Refer: 454 3497 N 1 0 0 1 0 0 2
Validated: 5
EndChar

StartChar: si_DdUu
Encoding: 225 -1 77
GlifName: si_D_dU_u
Width: 631
VWidth: 0
Flags: HW
LayerCount: 2
Fore
SplineSet
50 -135 m 256
 50 -78 97 -39 149 -39 c 256
 190 -39 222 -54 244 -89 c 257
 215 -100 l 257
 203 -81 182 -66 154 -66 c 256
 116 -66 85 -90 85 -126 c 256
 85 -162 115 -187 157 -187 c 256
 239 -187 323 -114 416 -114 c 256
 465 -114 514 -133 540 -164 c 257
 540 148 l 257
 572 207 l 257
 572 -226 l 257
 550 -226 l 257
 530 -189 489 -142 420 -142 c 256
 331 -142 254 -231 158 -231 c 256
 104 -231 50 -201 50 -135 c 256
EndSplineSet
Refer: 454 3497 N 1 0 0 1 0 0 2
Validated: 5
EndChar

StartChar: si_Dda.reph
Encoding: 226 -1 78
GlifName: si_D_da.reph
Width: 631
VWidth: 0
Flags: HW
AnchorPoint: "cursive" 42 0 entry 0
LayerCount: 2
Fore
SplineSet
271 607 m 256
 271 586 290 571 311 571 c 256
 332 571 351 586 351 607 c 256
 351 628 332 644 311 644 c 256
 290 644 271 628 271 607 c 256
171 626 m 256
 171 688 228 725 308 725 c 256
 383 725 445 682 445 613 c 256
 445 590 438 569 421 550 c 257
 389 550 l 257
 402 562 416 586 416 612 c 256
 416 668 367 698 307 698 c 256
 255 698 201 678 201 626 c 256
 201 588 243 569 265 567 c 257
 257 573 244 587 244 608 c 256
 244 642 275 667 310 667 c 256
 350 667 377 640 377 606 c 256
 377 568 343 543 286 543 c 256
 228 543 171 571 171 626 c 256
EndSplineSet
Refer: 454 3497 N 1 0 0 1 0 0 2
Validated: 5
EndChar

StartChar: si_Ddh.halant
Encoding: 231 -1 79
GlifName: si_D_dh.halant
Width: 631
VWidth: 0
Flags: HW
LayerCount: 2
Fore
SplineSet
466 507 m 257
 472 504 487 501 498 501 c 256
 527 501 550 514 550 549 c 256
 550 604 487 620 466 637 c 257
 466 507 l 257
438 472 m 257
 438 681 l 257
 493 635 590 639 590 548 c 256
 590 509 561 477 515 477 c 256
 492 477 475 481 466 484 c 257
 466 442 l 257
 438 472 l 257
322 469 m 256
 322 421 342 382 398 382 c 256
 421 382 451 392 466 426 c 257
 438 465 381 516 344 543 c 257
 334 528 322 503 322 469 c 256
15 281 m 257
 15 308 l 257
 252 308 l 257
 249 350 219 382 190 382 c 256
 172 382 159 377 145 354 c 256
 134 335 121 331 107 331 c 256
 87 331 71 344 71 365 c 256
 71 404 117 422 158 422 c 256
 240 422 284 365 285 281 c 257
 215 281 l 258
 124 281 81 225 81 170 c 256
 81 119 120 69 193 69 c 256
 241 69 292 93 292 140 c 258
 292 174 l 257
 318 174 l 257
 318 140 l 258
 318 95 365 69 414 69 c 256
 508 69 546 163 546 227 c 256
 546 311 505 367 484 398 c 257
 463 364 433 347 391 347 c 256
 329 347 293 401 293 465 c 256
 293 514 310 548 334 579 c 257
 394 547 465 475 506 418 c 256
 548 359 583 285 583 212 c 256
 583 125 540 0 416 0 c 256
 355 0 327 29 306 58 c 257
 277 22 244 0 194 0 c 256
 95 0 45 79 45 158 c 256
 45 207 69 258 122 281 c 257
 15 281 l 257
EndSplineSet
Validated: 5
EndChar

StartChar: si_DdhI
Encoding: 232 -1 80
GlifName: si_D_dhI_
Width: 631
VWidth: 0
Flags: HW
LayerCount: 2
Fore
SplineSet
334 469 m 256
 334 421 352 382 408 382 c 256
 431 382 462 392 478 426 c 257
 450 465 391 516 354 543 c 257
 344 528 334 503 334 469 c 256
15 281 m 257
 15 308 l 257
 252 308 l 257
 249 350 219 382 190 382 c 256
 172 382 159 377 145 354 c 256
 134 335 121 331 107 331 c 256
 87 331 71 344 71 365 c 256
 71 404 117 422 158 422 c 256
 240 422 284 365 285 281 c 257
 215 281 l 258
 124 281 81 225 81 170 c 256
 81 119 120 69 193 69 c 256
 241 69 292 93 292 140 c 258
 292 174 l 257
 318 174 l 257
 318 140 l 258
 318 95 365 69 414 69 c 256
 508 69 546 163 546 227 c 256
 546 311 518 369 497 398 c 257
 476 364 445 347 402 347 c 256
 340 347 305 401 305 465 c 256
 305 514 322 548 346 579 c 257
 406 548 474 482 517 424 c 256
 564 361 583 288 583 212 c 256
 583 125 540 0 416 0 c 256
 355 0 327 29 306 58 c 257
 277 22 244 0 194 0 c 256
 95 0 45 79 45 158 c 256
 45 207 69 258 122 281 c 257
 15 281 l 257
109 561 m 256
 109 651 221 684 326 684 c 256
 426 684 543 649 543 560 c 256
 543 514 507 487 453 487 c 257
 447 492 441 501 437 509 c 257
 450 510 508 508 508 552 c 256
 508 608 401 620 329 620 c 256
 213 620 147 597 147 553 c 256
 147 515 190 502 223 502 c 256
 267 502 299 514 316 522 c 257
 315 516 316 509 312 493 c 257
 288 485 263 478 221 478 c 256
 162 478 109 504 109 561 c 256
EndSplineSet
Validated: 5
EndChar

StartChar: si_DdhIi
Encoding: 233 -1 81
GlifName: si_D_dhI_i
Width: 631
VWidth: 0
Flags: HW
LayerCount: 2
Fore
SplineSet
334 469 m 256
 334 421 352 382 408 382 c 256
 431 382 462 392 478 426 c 257
 450 465 391 516 354 543 c 257
 344 528 334 503 334 469 c 256
15 281 m 257
 15 308 l 257
 252 308 l 257
 249 350 219 382 190 382 c 256
 172 382 159 377 145 354 c 256
 134 335 121 331 107 331 c 256
 87 331 71 344 71 365 c 256
 71 404 117 422 158 422 c 256
 240 422 284 365 285 281 c 257
 215 281 l 258
 124 281 81 225 81 170 c 256
 81 119 120 69 193 69 c 256
 241 69 292 93 292 140 c 258
 292 174 l 257
 318 174 l 257
 318 140 l 258
 318 95 365 69 414 69 c 256
 508 69 546 163 546 227 c 256
 546 311 518 369 497 398 c 257
 476 364 445 347 402 347 c 256
 340 347 305 401 305 465 c 256
 305 514 322 548 346 579 c 257
 406 548 474 482 517 424 c 256
 564 361 583 288 583 212 c 256
 583 125 540 0 416 0 c 256
 355 0 327 29 306 58 c 257
 277 22 244 0 194 0 c 256
 95 0 45 79 45 158 c 256
 45 207 69 258 122 281 c 257
 15 281 l 257
438 562 m 256
 438 534 459 512 487 512 c 256
 515 512 537 534 537 562 c 256
 537 590 515 612 487 612 c 256
 459 612 438 590 438 562 c 256
109 561 m 256
 109 651 221 684 327 684 c 256
 490 684 566 636 566 562 c 256
 566 523 536 483 487 483 c 256
 440 483 408 522 408 561 c 256
 408 575 414 597 431 614 c 257
 410 619 370 623 322 623 c 256
 211 623 147 597 147 553 c 256
 147 515 190 502 223 502 c 256
 267 502 299 514 316 522 c 257
 315 516 316 509 312 493 c 257
 288 485 263 478 221 478 c 256
 162 478 109 504 109 561 c 256
EndSplineSet
Validated: 5
EndChar

StartChar: si_DdhU
Encoding: 234 -1 82
GlifName: si_D_dhU_
Width: 631
VWidth: 0
Flags: HW
LayerCount: 2
Fore
SplineSet
51 -139 m 256
 51 -88 95 -49 149 -49 c 256
 190 -49 226 -72 241 -107 c 257
 212 -119 l 257
 205 -99 181 -78 149 -78 c 256
 113 -78 83 -104 83 -139 c 256
 83 -167 106 -194 170 -194 c 258
 539 -194 l 257
 539 125 l 257
 571 214 l 257
 571 -229 l 257
 153 -229 l 258
 86 -229 51 -182 51 -139 c 256
EndSplineSet
Refer: 455 3498 N 1 0 0 1 0 0 2
Validated: 5
EndChar

StartChar: si_DdhUu
Encoding: 235 -1 83
GlifName: si_D_dhU_u
Width: 631
VWidth: 0
Flags: HW
LayerCount: 2
Fore
SplineSet
50 -135 m 256
 50 -78 97 -39 149 -39 c 256
 190 -39 222 -54 244 -89 c 257
 215 -100 l 257
 203 -81 182 -66 154 -66 c 256
 116 -66 85 -90 85 -126 c 256
 85 -162 115 -187 157 -187 c 256
 239 -187 323 -114 416 -114 c 256
 465 -114 514 -133 540 -164 c 257
 540 148 l 257
 572 207 l 257
 572 -226 l 257
 550 -226 l 257
 530 -189 489 -142 420 -142 c 256
 331 -142 254 -231 158 -231 c 256
 104 -231 50 -201 50 -135 c 256
EndSplineSet
Refer: 455 3498 N 1 0 0 1 0 0 2
Validated: 5
EndChar

StartChar: si_Dh.halant
Encoding: 284 -1 84
GlifName: si_D_h.halant
Width: 623
VWidth: 0
Flags: HW
LayerCount: 2
Fore
SplineSet
136 530 m 256
 136 518 159 514 159 503 c 256
 159 501 158 498 156 496 c 257
 188 502 227 507 272 507 c 256
 377 507 461 478 518 412 c 257
 486 524 390 576 277 576 c 256
 207 576 136 553 136 530 c 256
32 190 m 256
 32 281 84 356 148 378 c 256
 169 385 192 389 216 389 c 257
 216 364 l 258
 213 364 209 364 206 364 c 256
 129 364 65 294 65 207 c 256
 65 133 113 69 184 69 c 256
 234 69 283 90 283 152 c 258
 283 191 l 257
 311 191 l 257
 311 152 l 258
 311 90 359 69 407 69 c 256
 505 69 541 184 541 260 c 256
 541 404 432 482 275 482 c 256
 201 482 120 469 41 432 c 257
 41 462 l 257
 72 474 123 487 123 496 c 256
 123 508 96 512 96 533 c 256
 96 569 159 614 271 614 c 256
 474 614 547 479 559 348 c 257
 568 324 576 280 576 239 c 256
 576 131 535 0 412 0 c 256
 364 0 325 20 296 58 c 257
 266 20 230 0 186 0 c 256
 86 0 32 93 32 190 c 256
EndSplineSet
Validated: 1
EndChar

StartChar: si_DhI
Encoding: 285 -1 85
GlifName: si_D_hI_
Width: 623
VWidth: 0
Flags: HW
LayerCount: 2
Fore
SplineSet
32 190 m 256
 32 281 84 356 148 378 c 256
 169 385 192 389 216 389 c 257
 216 364 l 258
 213 364 209 364 206 364 c 256
 129 364 65 293 65 203 c 256
 65 129 113 69 184 69 c 256
 234 69 283 90 283 152 c 258
 283 191 l 257
 311 191 l 257
 311 152 l 258
 311 90 359 69 407 69 c 256
 487 69 540 155 540 257 c 256
 540 295 531 362 493 404 c 256
 441 461 377 461 278 467 c 256
 191 472 73 465 73 549 c 256
 73 637 201 654 299 654 c 256
 432 654 539 624 539 541 c 256
 539 493 492 471 459 464 c 257
 469 459 477 454 486 448 c 256
 533 414 574 345 576 242 c 256
 576 133 534 0 412 0 c 256
 364 0 325 20 296 58 c 257
 266 20 230 0 186 0 c 256
 86 0 32 93 32 190 c 256
114 541 m 256
 114 496 177 496 277 492 c 256
 316 490 367 489 412 479 c 257
 447 482 493 497 493 531 c 256
 493 586 404 597 299 597 c 256
 225 597 114 592 114 541 c 256
EndSplineSet
Validated: 1
EndChar

StartChar: si_DhIi
Encoding: 286 -1 86
GlifName: si_D_hI_i
Width: 623
VWidth: 0
Flags: HW
LayerCount: 2
Fore
SplineSet
32 190 m 256
 32 281 84 356 148 378 c 256
 169 385 192 389 216 389 c 257
 216 364 l 258
 213 364 209 364 206 364 c 256
 129 364 65 293 65 203 c 256
 65 129 113 69 184 69 c 256
 234 69 283 90 283 152 c 258
 283 191 l 257
 311 191 l 257
 311 152 l 258
 311 90 359 69 407 69 c 256
 487 69 540 155 540 257 c 256
 540 311 529 365 493 404 c 256
 441 461 377 461 278 467 c 256
 191 472 73 465 73 549 c 256
 73 637 201 654 299 654 c 256
 432 654 539 624 539 545 c 256
 539 497 500 469 460 464 c 257
 470 460 478 454 486 448 c 256
 540 407 576 336 576 235 c 256
 576 128 532 0 412 0 c 256
 364 0 325 20 296 58 c 257
 266 20 230 0 186 0 c 256
 86 0 32 93 32 190 c 256
391 542 m 256
 391 513 417 489 449 489 c 256
 481 489 508 513 508 542 c 256
 508 571 481 595 449 595 c 256
 417 595 391 571 391 542 c 256
390 483 m 257
 372 497 359 519 359 545 c 256
 359 569 372 586 378 594 c 257
 371 595 340 597 299 597 c 256
 225 597 114 592 114 541 c 256
 114 496 177 496 277 492 c 256
 310 491 351 490 390 483 c 257
EndSplineSet
Validated: 1
EndChar

StartChar: si_DhRI
Encoding: 292 -1 87
GlifName: si_D_hR_I_
Width: 623
VWidth: 0
Flags: HW
LayerCount: 2
Fore
SplineSet
55 -43 m 257
 81 -43 l 257
 115 -116 183 -153 286 -153 c 256
 426 -153 541 -88 541 49 c 256
 541 70 536 91 529 100 c 257
 542 130 l 257
 560 104 568 73 568 37 c 256
 568 -121 443 -214 302 -214 c 256
 172 -214 91 -149 55 -43 c 257
EndSplineSet
Refer: 85 -1 N 1 0 0 1 0 0 2
Validated: 5
EndChar

StartChar: si_DhRIi
Encoding: 293 -1 88
GlifName: si_D_hR_I_i
Width: 623
VWidth: 0
Flags: HW
LayerCount: 2
Fore
SplineSet
55 -43 m 257
 81 -43 l 257
 115 -116 183 -153 286 -153 c 256
 426 -153 541 -88 541 49 c 256
 541 70 536 91 529 100 c 257
 542 130 l 257
 560 104 568 73 568 37 c 256
 568 -121 443 -214 302 -214 c 256
 172 -214 91 -149 55 -43 c 257
EndSplineSet
Refer: 86 -1 N 1 0 0 1 0 0 2
Validated: 5
EndChar

StartChar: si_DhRa
Encoding: 291 -1 89
GlifName: si_D_hR_a
Width: 623
VWidth: 0
Flags: HW
LayerCount: 2
Fore
SplineSet
55 -43 m 261
 81 -43 l 261
 115 -116 183 -153 286 -153 c 260
 426 -153 541 -88 541 49 c 260
 541 70 536 91 529 100 c 261
 542 130 l 261
 560 104 568 73 568 37 c 260
 568 -121 443 -214 302 -214 c 260
 172 -214 91 -149 55 -43 c 261
EndSplineSet
Refer: 461 3504 N 1 0 0 1 0 0 2
Validated: 5
EndChar

StartChar: si_DhU
Encoding: 287 -1 90
GlifName: si_D_hU_
Width: 623
VWidth: 0
Flags: HW
LayerCount: 2
Fore
SplineSet
51 -139 m 256
 51 -88 95 -49 149 -49 c 256
 190 -49 226 -72 241 -107 c 257
 212 -119 l 257
 205 -99 181 -78 149 -78 c 256
 113 -78 83 -104 83 -139 c 256
 83 -167 106 -194 170 -194 c 258
 529 -194 l 257
 529 125 l 257
 562 214 l 257
 562 -229 l 257
 153 -229 l 258
 86 -229 51 -182 51 -139 c 256
EndSplineSet
Refer: 461 3504 N 1 0 0 1 0 0 2
Validated: 5
EndChar

StartChar: si_DhUu
Encoding: 288 -1 91
GlifName: si_D_hU_u
Width: 623
VWidth: 0
Flags: HW
LayerCount: 2
Fore
SplineSet
50 -135 m 256
 50 -78 97 -39 149 -39 c 256
 190 -39 222 -54 244 -89 c 257
 215 -100 l 257
 203 -81 182 -66 154 -66 c 256
 116 -66 85 -90 85 -126 c 256
 85 -162 115 -187 157 -187 c 256
 239 -187 320 -114 413 -114 c 256
 455 -114 503 -133 529 -164 c 257
 529 148 l 257
 562 207 l 257
 562 -226 l 257
 539 -226 l 257
 524 -191 482 -141 416 -141 c 256
 327 -141 254 -231 158 -231 c 256
 104 -231 50 -201 50 -135 c 256
EndSplineSet
Refer: 461 3504 N 1 0 0 1 0 0 2
Validated: 5
EndChar

StartChar: si_Dha.reph
Encoding: 289 -1 92
GlifName: si_D_ha.reph
Width: 623
VWidth: 0
Flags: HW
AnchorPoint: "cursive" 45 0 entry 0
LayerCount: 2
Fore
SplineSet
268 607 m 260
 268 586 286 571 307 571 c 260
 328 571 347 586 347 607 c 260
 347 628 328 644 307 644 c 260
 286 644 268 628 268 607 c 260
168 626 m 260
 168 688 225 725 305 725 c 260
 380 725 441 682 441 613 c 260
 441 590 435 569 418 550 c 261
 385 550 l 261
 398 562 412 586 412 612 c 260
 412 668 363 698 303 698 c 260
 251 698 198 678 198 626 c 260
 198 588 239 569 261 567 c 261
 253 573 240 587 240 608 c 260
 240 642 272 667 307 667 c 260
 347 667 373 640 373 606 c 260
 373 568 340 543 283 543 c 260
 225 543 168 571 168 626 c 260
EndSplineSet
Refer: 461 3504 N 1 0 0 1 0 0 2
Validated: 5
EndChar

StartChar: si_DvocR
Encoding: 271 -1 93
GlifName: si_D_vocR_
Width: 686
VWidth: 0
Flags: HW
LayerCount: 2
Fore
SplineSet
416 243 m 256
 416 321 451 384 523 384 c 256
 608 384 642 291 642 198 c 256
 642 140 625 50 625 22 c 256
 625 15 625 9 626 3 c 257
 597 3 l 257
 594 12 589 17 582 17 c 256
 570 17 545 -1 512 -1 c 256
 454 -1 416 48 416 104 c 256
 416 150 437 181 480 200 c 256
 505 211 546 217 582 217 c 257
 582 305 556 350 514 350 c 256
 463 350 440 301 440 240 c 256
 440 238 440 238 440 236 c 257
 416 236 l 257
 416 239 416 240 416 243 c 256
445 104 m 256
 445 63 474 27 514 27 c 256
 539 27 565 42 575 42 c 256
 578 42 581 41 584 39 c 257
 582 52 581 76 581 113 c 256
 581 143 582 164 582 182 c 256
 582 185 582 188 582 190 c 257
 567 190 532 190 504 181 c 256
 469 170 445 147 445 104 c 256
EndSplineSet
Refer: 460 3503 N 1 0 0 1 0 0 2
Validated: 1
EndChar

StartChar: si_DvocRr
Encoding: 272 -1 94
GlifName: si_D_vocR_r
Width: 939
VWidth: 0
Flags: HW
LayerCount: 2
Fore
SplineSet
666 243 m 256
 666 321 701 384 773 384 c 256
 858 384 892 291 892 198 c 256
 892 140 875 50 875 22 c 256
 875 15 875 9 876 3 c 257
 847 3 l 257
 844 12 839 17 832 17 c 256
 820 17 795 -1 762 -1 c 256
 704 -1 666 48 666 104 c 256
 666 150 687 181 730 200 c 256
 755 211 796 217 832 217 c 257
 832 305 806 350 764 350 c 256
 713 350 690 301 690 240 c 256
 690 238 690 238 690 236 c 257
 666 236 l 257
 666 239 666 240 666 243 c 256
695 104 m 256
 695 63 724 27 764 27 c 256
 789 27 815 42 825 42 c 256
 828 42 831 41 834 39 c 257
 832 52 831 76 831 113 c 256
 831 143 832 164 832 182 c 256
 832 185 832 188 832 190 c 257
 817 190 782 190 754 181 c 256
 719 170 695 147 695 104 c 256
416 243 m 256
 416 321 451 384 523 384 c 256
 608 384 642 291 642 198 c 256
 642 140 625 50 625 22 c 256
 625 15 625 9 626 3 c 257
 597 3 l 257
 594 12 589 17 582 17 c 256
 570 17 545 -1 512 -1 c 256
 454 -1 416 48 416 104 c 256
 416 150 437 181 480 200 c 256
 505 211 546 217 582 217 c 257
 582 305 556 350 514 350 c 256
 463 350 440 301 440 240 c 256
 440 238 440 238 440 236 c 257
 416 236 l 257
 416 239 416 240 416 243 c 256
445 104 m 256
 445 63 474 27 514 27 c 256
 539 27 565 42 575 42 c 256
 578 42 581 41 584 39 c 257
 582 52 581 76 581 113 c 256
 581 143 582 164 582 182 c 256
 582 185 582 188 582 190 c 257
 567 190 532 190 504 181 c 256
 469 170 445 147 445 104 c 256
EndSplineSet
Refer: 460 3503 N 1 0 0 1 0 0 2
Validated: 1
EndChar

StartChar: si_F.halant
Encoding: 441 -1 95
GlifName: si_F_.halant
Width: 592
VWidth: 0
Flags: HW
LayerCount: 2
Fore
SplineSet
396 403 m 257
 396 664 l 257
 449 623 542 618 542 528 c 256
 542 485 508 456 466 456 c 256
 451 456 437 459 422 466 c 257
 422 400 l 257
 396 403 l 257
422 490 m 257
 431 485 441 483 454 483 c 256
 491 483 506 508 506 531 c 256
 506 572 468 592 422 622 c 257
 422 490 l 257
EndSplineSet
Refer: 479 3526 N 1 0 0 1 0 0 2
Validated: 5
EndChar

StartChar: si_FI
Encoding: 442 -1 96
GlifName: si_F_I_
Width: 592
VWidth: 0
Flags: HW
LayerCount: 2
Fore
SplineSet
62 506 m 256
 62 611 173 655 289 655 c 256
 405 655 516 611 516 506 c 256
 516 433 451 399 376 396 c 257
 376 416 l 257
 429 419 482 443 482 497 c 256
 482 566 376 584 289 584 c 256
 202 584 96 566 96 497 c 256
 96 443 149 419 202 416 c 257
 202 396 l 257
 127 399 62 433 62 506 c 256
EndSplineSet
Refer: 479 3526 N 1 0 0 1 0 0 2
Validated: 5
EndChar

StartChar: si_FIi
Encoding: 443 -1 97
GlifName: si_F_I_i
Width: 592
VWidth: 0
Flags: HW
LayerCount: 2
Fore
SplineSet
367 502 m 256
 367 472 397 447 432 447 c 256
 467 447 496 472 496 502 c 256
 496 532 467 557 432 557 c 256
 397 557 367 532 367 502 c 256
47 505 m 256
 47 606 161 655 285 655 c 256
 399 655 530 613 530 512 c 256
 530 458 487 419 432 419 c 256
 375 419 336 459 336 503 c 256
 336 547 367 568 386 577 c 257
 375 580 339 586 286 586 c 256
 194 586 83 560 83 487 c 256
 83 449 109 425 146 416 c 257
 135 396 l 257
 82 404 47 445 47 505 c 256
EndSplineSet
Refer: 479 3526 N 1 0 0 1 0 0 2
Validated: 5
EndChar

StartChar: si_FRI
Encoding: 449 -1 98
GlifName: si_F_R_I_
Width: 592
VWidth: 0
Flags: HW
LayerCount: 2
Fore
SplineSet
62 506 m 256
 62 611 173 655 289 655 c 256
 405 655 516 611 516 506 c 256
 516 433 451 399 376 396 c 257
 376 416 l 257
 429 419 482 443 482 497 c 256
 482 566 376 584 289 584 c 256
 202 584 96 566 96 497 c 256
 96 443 149 419 202 416 c 257
 202 396 l 257
 127 399 62 433 62 506 c 256
59 -43 m 257
 86 -43 l 257
 119 -116 177 -153 275 -153 c 256
 408 -153 509 -88 509 49 c 256
 509 70 506 88 498 100 c 257
 511 139 l 257
 532 107 537 73 537 37 c 256
 537 -121 425 -214 291 -214 c 256
 168 -214 93 -149 59 -43 c 257
EndSplineSet
Refer: 479 3526 N 1 0 0 1 0 0 2
Validated: 5
EndChar

StartChar: si_FRIi
Encoding: 450 -1 99
GlifName: si_F_R_I_i
Width: 592
VWidth: 0
Flags: HW
LayerCount: 2
Fore
SplineSet
367 502 m 256
 367 472 397 447 432 447 c 256
 467 447 496 472 496 502 c 256
 496 532 467 557 432 557 c 256
 397 557 367 532 367 502 c 256
47 505 m 256
 47 606 161 655 285 655 c 256
 399 655 530 613 530 512 c 256
 530 458 487 419 432 419 c 256
 375 419 336 459 336 503 c 256
 336 547 367 568 386 577 c 257
 375 580 339 586 286 586 c 256
 194 586 83 560 83 487 c 256
 83 449 109 425 146 416 c 257
 135 396 l 257
 82 404 47 445 47 505 c 256
59 -43 m 257
 86 -43 l 257
 119 -116 177 -153 275 -153 c 256
 408 -153 509 -88 509 49 c 256
 509 70 506 88 498 100 c 257
 511 139 l 257
 532 107 537 73 537 37 c 256
 537 -121 425 -214 291 -214 c 256
 168 -214 93 -149 59 -43 c 257
EndSplineSet
Refer: 479 3526 N 1 0 0 1 0 0 2
Validated: 5
EndChar

StartChar: si_FRa
Encoding: 448 -1 100
GlifName: si_F_R_a
Width: 592
VWidth: 0
Flags: HW
LayerCount: 2
Fore
SplineSet
59 -43 m 261
 86 -43 l 261
 119 -116 177 -153 275 -153 c 260
 408 -153 509 -88 509 49 c 260
 509 70 506 88 498 100 c 261
 511 139 l 261
 532 107 537 73 537 37 c 260
 537 -121 425 -214 291 -214 c 260
 168 -214 93 -149 59 -43 c 261
EndSplineSet
Refer: 479 3526 N 1 0 0 1 0 0 2
Validated: 5
EndChar

StartChar: si_FU
Encoding: 444 -1 101
GlifName: si_F_U_
Width: 592
VWidth: 0
Flags: HW
LayerCount: 2
Fore
SplineSet
53 -139 m 256
 53 -88 97 -49 151 -49 c 256
 192 -49 228 -72 243 -107 c 257
 214 -119 l 257
 207 -99 183 -78 151 -78 c 256
 115 -78 85 -104 85 -139 c 256
 85 -167 108 -194 172 -194 c 258
 501 -194 l 257
 501 108 l 257
 533 177 l 257
 533 -229 l 257
 155 -229 l 258
 88 -229 53 -182 53 -139 c 256
EndSplineSet
Refer: 479 3526 N 1 0 0 1 0 0 2
Validated: 5
EndChar

StartChar: si_FUu
Encoding: 445 -1 102
GlifName: si_F_U_u
Width: 592
VWidth: 0
Flags: HW
LayerCount: 2
Fore
SplineSet
52 -135 m 256
 52 -78 99 -39 151 -39 c 256
 192 -39 224 -54 246 -89 c 257
 217 -100 l 257
 205 -81 184 -66 156 -66 c 256
 118 -66 87 -90 87 -126 c 256
 87 -162 117 -187 159 -187 c 256
 241 -187 303 -114 396 -114 c 256
 443 -114 477 -129 501 -158 c 257
 501 97 l 257
 533 196 l 257
 533 -226 l 257
 511 -226 l 257
 496 -191 463 -141 400 -141 c 256
 311 -141 256 -231 160 -231 c 256
 106 -231 52 -201 52 -135 c 256
EndSplineSet
Refer: 479 3526 N 1 0 0 1 0 0 2
Validated: 5
EndChar

StartChar: si_Fa.reph
Encoding: 446 -1 103
GlifName: si_F_a.reph
Width: 592
VWidth: 0
Flags: HW
AnchorPoint: "cursive" 43 0 entry 0
LayerCount: 2
Fore
SplineSet
253 499 m 256
 253 478 272 463 293 463 c 256
 314 463 333 478 333 499 c 256
 333 520 314 535 293 535 c 256
 272 535 253 520 253 499 c 256
153 518 m 256
 153 580 210 616 290 616 c 256
 365 616 428 574 428 505 c 256
 428 482 420 460 403 441 c 257
 370 441 l 257
 383 453 398 478 398 504 c 256
 398 560 349 590 289 590 c 256
 237 590 184 570 184 518 c 256
 184 480 224 461 246 459 c 257
 238 465 227 479 227 500 c 256
 227 534 257 559 292 559 c 256
 332 559 359 532 359 498 c 256
 359 460 326 435 269 435 c 256
 211 435 153 463 153 518 c 256
EndSplineSet
Refer: 479 3526 N 1 0 0 1 0 0 2
Validated: 1
EndChar

StartChar: si_G.halant
Encoding: 108 -1 104
GlifName: si_G_.halant
Width: 621
VWidth: 0
Flags: HW
LayerCount: 2
Fore
SplineSet
426 378 m 257
 426 665 l 257
 479 624 572 619 572 529 c 256
 572 486 538 457 496 457 c 256
 481 457 467 460 452 467 c 257
 452 361 l 257
 426 378 l 257
452 491 m 257
 461 486 471 484 484 484 c 256
 521 484 536 509 536 532 c 256
 536 573 498 593 452 623 c 257
 452 491 l 257
EndSplineSet
Refer: 441 3484 N 1 0 0 1 0 0 2
Validated: 5
EndChar

StartChar: si_GDha
Encoding: 459 -1 105
GlifName: si_G_D_ha
Width: 919
VWidth: 0
Flags: HW
LayerCount: 2
Fore
SplineSet
33 202 m 256
 33 322 107 422 215 422 c 256
 219 422 224 421 228 421 c 257
 228 398 l 257
 225 398 220 398 217 398 c 256
 133 398 67 325 67 225 c 256
 67 144 114 69 201 69 c 256
 259 69 311 96 311 154 c 256
 311 191 291 212 261 212 c 256
 254 212 245 210 238 205 c 257
 237 199 236 191 236 188 c 257
 211 188 l 257
 221 310 281 422 400 422 c 256
 456 422 481 411 516 389 c 257
 503 382 483 386 471 383 c 257
 448 393 421 395 404 395 c 256
 301 395 260 312 242 230 c 257
 250 234 257 235 264 235 c 256
 311 235 344 197 344 133 c 256
 344 55 288 -2 203 -2 c 256
 95 -2 33 94 33 202 c 256
EndSplineSet
Refer: 461 3504 N 1 0 0 1 300 0 2
Validated: 5
EndChar

StartChar: si_GI
Encoding: 109 -1 106
GlifName: si_G_I_
Width: 621
VWidth: 0
Flags: HW
LayerCount: 2
Fore
SplineSet
146 524 m 256
 146 613 243 651 343 651 c 256
 446 651 546 604 546 511 c 256
 546 450 508 405 429 399 c 257
 411 421 l 257
 414 421 416 421 419 421 c 256
 476 421 518 451 518 500 c 256
 518 563 421 584 343 584 c 256
 264 584 187 555 187 504 c 256
 187 445 317 421 401 421 c 256
 402 421 402 422 403 422 c 257
 388 402 l 257
 232 405 146 451 146 524 c 256
33 202 m 256
 33 322 107 422 202 422 c 256
 206 422 203 421 207 421 c 257
 207 398 l 257
 204 398 206 398 203 398 c 256
 133 398 67 325 67 225 c 256
 67 144 114 69 201 69 c 256
 259 69 311 96 311 154 c 256
 311 191 291 212 261 212 c 256
 254 212 244 210 237 205 c 257
 236 199 235 191 235 188 c 257
 211 188 l 257
 221 310 281 422 400 422 c 256
 509 422 572 324 572 212 c 256
 572 93 488 -1 360 -1 c 256
 350 -1 341 0 330 1 c 257
 330 25 l 257
 338 24 346 23 354 23 c 256
 458 23 530 97 530 195 c 256
 530 294 473 362 384 362 c 256
 309 362 257 305 241 230 c 257
 249 234 257 235 264 235 c 256
 311 235 344 197 344 133 c 256
 344 55 288 -2 203 -2 c 256
 95 -2 33 94 33 202 c 256
EndSplineSet
Validated: 5
EndChar

StartChar: si_GIi
Encoding: 110 -1 107
GlifName: si_G_I_i
Width: 621
VWidth: 0
Flags: HW
LayerCount: 2
Fore
SplineSet
33 202 m 256
 33 322 107 422 202 422 c 256
 206 422 203 421 207 421 c 257
 207 398 l 258
 204 398 206 398 203 398 c 256
 133 398 67 325 67 225 c 256
 67 144 114 69 201 69 c 256
 259 69 311 96 311 154 c 256
 311 191 291 212 261 212 c 256
 254 212 244 210 237 205 c 257
 236 199 235 191 235 188 c 258
 211 188 l 257
 219 283 257 371 329 406 c 257
 210 419 146 461 146 524 c 256
 146 613 243 651 343 651 c 256
 446 651 546 604 546 513 c 256
 546 446 489 421 447 421 c 256
 404 421 353 453 353 507 c 256
 353 552 385 577 401 580 c 257
 380 583 366 584 343 584 c 256
 264 584 187 555 187 504 c 256
 187 444 318 421 403 421 c 257
 510 419 572 323 572 212 c 256
 572 93 488 -1 360 -1 c 256
 350 -1 341 0 330 1 c 257
 330 25 l 257
 338 24 346 23 354 23 c 256
 458 23 530 97 530 195 c 256
 530 294 473 362 384 362 c 256
 309 362 257 305 241 230 c 257
 249 234 257 235 264 235 c 256
 311 235 344 197 344 133 c 256
 344 55 288 -2 203 -2 c 256
 95 -2 33 94 33 202 c 256
380 508 m 256
 380 474 411 446 449 446 c 256
 487 446 519 474 519 508 c 256
 519 542 487 569 449 569 c 256
 411 569 380 542 380 508 c 256
EndSplineSet
Validated: 1
EndChar

StartChar: si_GR.halant
Encoding: 115 -1 108
GlifName: si_G_R_.halant
Width: 621
VWidth: 0
Flags: HW
LayerCount: 2
Fore
SplineSet
55 -43 m 257
 81 -43 l 257
 115 -116 183 -153 286 -153 c 256
 426 -153 541 -88 541 49 c 256
 541 70 536 91 529 100 c 257
 542 130 l 257
 560 104 568 73 568 37 c 256
 568 -121 443 -214 302 -214 c 256
 172 -214 91 -149 55 -43 c 257
EndSplineSet
Refer: 104 -1 N 1 0 0 1 0 0 2
Validated: 5
EndChar

StartChar: si_GRI
Encoding: 116 -1 109
GlifName: si_G_R_I_
Width: 621
VWidth: 0
Flags: HW
LayerCount: 2
Fore
SplineSet
55 -43 m 257
 81 -43 l 257
 115 -116 183 -153 286 -153 c 256
 426 -153 541 -88 541 49 c 256
 541 70 536 91 529 100 c 257
 542 130 l 257
 560 104 568 73 568 37 c 256
 568 -121 443 -214 302 -214 c 256
 172 -214 91 -149 55 -43 c 257
EndSplineSet
Refer: 106 -1 N 1 0 0 1 0 0 2
Validated: 5
EndChar

StartChar: si_GRIi
Encoding: 117 -1 110
GlifName: si_G_R_I_i
Width: 621
VWidth: 0
Flags: HW
LayerCount: 2
Fore
SplineSet
55 -43 m 257
 81 -43 l 257
 115 -116 183 -153 286 -153 c 256
 426 -153 541 -88 541 49 c 256
 541 70 536 91 529 100 c 257
 542 130 l 257
 560 104 568 73 568 37 c 256
 568 -121 443 -214 302 -214 c 256
 172 -214 91 -149 55 -43 c 257
EndSplineSet
Refer: 107 -1 N 1 0 0 1 0 0 2
Validated: 5
EndChar

StartChar: si_GRa
Encoding: 114 -1 111
GlifName: si_G_R_a
Width: 621
VWidth: 0
Flags: HW
LayerCount: 2
Fore
SplineSet
55 -43 m 257
 81 -43 l 257
 115 -116 183 -153 286 -153 c 256
 426 -153 541 -88 541 49 c 256
 541 70 536 91 529 100 c 257
 542 130 l 257
 560 104 568 73 568 37 c 256
 568 -121 443 -214 302 -214 c 256
 172 -214 91 -149 55 -43 c 257
EndSplineSet
Refer: 441 3484 N 1 0 0 1 0 0 2
Validated: 5
EndChar

StartChar: si_GU
Encoding: 111 -1 112
GlifName: si_G_U_
Width: 621
VWidth: 0
Flags: HW
LayerCount: 2
Fore
SplineSet
299 -78 m 256
 299 -29 328 9 370 21 c 257
 376 -6 l 257
 355 -14 336 -34 336 -62 c 256
 336 -107 386 -129 436 -129 c 256
 496 -129 541 -92 541 -44 c 256
 541 -41 540 -38 540 -35 c 257
 569 -35 l 257
 571 -44 571 -59 571 -68 c 256
 571 -120 530 -188 431 -188 c 256
 369 -188 299 -145 299 -78 c 256
33 202 m 256
 33 322 107 422 215 422 c 256
 219 422 224 421 228 421 c 257
 228 398 l 257
 225 398 220 398 217 398 c 256
 133 398 67 325 67 225 c 256
 67 144 114 69 201 69 c 256
 259 69 311 96 311 154 c 256
 311 191 291 212 261 212 c 256
 254 212 244 210 237 205 c 257
 236 199 235 191 235 188 c 257
 211 188 l 257
 221 310 281 422 400 422 c 256
 509 422 572 324 572 212 c 256
 572 93 494 0 416 0 c 256
 406 0 385 -2 371 -8 c 257
 361 18 l 257
 380 26 397 26 405 26 c 256
 467 26 530 97 530 195 c 256
 530 294 473 362 384 362 c 256
 309 362 257 305 241 230 c 257
 249 234 257 235 264 235 c 256
 311 235 344 197 344 133 c 256
 344 55 288 -2 203 -2 c 256
 95 -2 33 94 33 202 c 256
EndSplineSet
Validated: 5
EndChar

StartChar: si_GUu
Encoding: 112 -1 113
GlifName: si_G_U_u
Width: 621
VWidth: 0
Flags: HW
LayerCount: 2
Fore
SplineSet
328 -126 m 256
 328 -91 360 -70 391 -65 c 257
 337 -38 l 257
 422 -14 l 257
 330 1 l 257
 378 13 l 257
 494 -7 l 257
 393 -43 l 257
 450 -74 l 257
 423 -81 367 -83 367 -112 c 256
 367 -142 408 -151 449 -151 c 256
 502 -151 547 -128 547 -80 c 256
 547 -75 546 -68 541 -58 c 257
 573 -58 l 257
 577 -70 577 -81 577 -92 c 256
 577 -157 527 -200 447 -200 c 256
 390 -200 328 -183 328 -126 c 256
EndSplineSet
Refer: 441 3484 N 1 0 0 1 0 0 2
Validated: 5
EndChar

StartChar: si_Gh.halant
Encoding: 118 -1 115
GlifName: si_G_h.halant
Width: 661
VWidth: 0
Flags: HW
LayerCount: 2
Fore
SplineSet
467 403 m 257
 467 664 l 257
 520 623 613 618 613 528 c 256
 613 485 579 456 537 456 c 256
 522 456 508 459 493 466 c 257
 493 387 l 257
 467 403 l 257
493 490 m 257
 502 485 512 483 525 483 c 256
 562 483 577 508 577 531 c 256
 577 572 539 592 493 622 c 257
 493 490 l 257
EndSplineSet
Refer: 442 3485 N 1 0 0 1 0 0 2
Validated: 5
EndChar

StartChar: si_GhI
Encoding: 119 -1 116
GlifName: si_G_hI_
Width: 661
VWidth: 0
Flags: HW
LayerCount: 2
Fore
SplineSet
100 505 m 256
 100 610 210 654 326 654 c 256
 442 654 553 610 553 505 c 256
 553 432 489 398 414 395 c 257
 441 420 l 257
 464 422 520 442 520 496 c 256
 520 565 413 583 326 583 c 256
 239 583 133 565 133 496 c 256
 133 442 186 424 211 419 c 257
 240 395 l 257
 165 398 100 432 100 505 c 256
EndSplineSet
Refer: 442 3485 N 1 0 0 1 0 0 2
Validated: 5
EndChar

StartChar: si_GhIi
Encoding: 120 -1 117
GlifName: si_G_hI_i
Width: 661
VWidth: 0
Flags: HW
LayerCount: 2
Fore
SplineSet
412 502 m 256
 412 472 442 447 477 447 c 256
 512 447 541 472 541 502 c 256
 541 532 512 557 477 557 c 256
 442 557 412 532 412 502 c 256
84 505 m 256
 84 609 204 655 328 655 c 256
 442 655 576 613 576 512 c 256
 576 458 532 419 477 419 c 256
 420 419 381 459 381 503 c 256
 381 547 413 568 432 577 c 257
 421 580 383 586 330 586 c 256
 238 586 119 564 119 487 c 256
 119 449 141 425 178 416 c 257
 172 396 l 257
 120 401 84 445 84 505 c 256
EndSplineSet
Refer: 442 3485 N 1 0 0 1 0 0 2
Validated: 5
EndChar

StartChar: si_GhRI
Encoding: 125 -1 118
GlifName: si_G_hR_I_
Width: 661
VWidth: 0
Flags: HW
LayerCount: 2
Fore
SplineSet
62 -43 m 261
 88 -43 l 261
 122 -116 207 -153 310 -153 c 260
 450 -153 588 -88 588 49 c 260
 588 70 583 91 576 100 c 261
 586 130 l 261
 604 104 613 73 613 37 c 260
 613 -121 472 -214 325 -214 c 260
 187 -214 98 -149 62 -43 c 261
EndSplineSet
Refer: 116 -1 N 1 0 0 1 0 0 2
Validated: 5
EndChar

StartChar: si_GhRIi
Encoding: 126 -1 119
GlifName: si_G_hR_I_i
Width: 661
VWidth: 0
Flags: HW
LayerCount: 2
Fore
SplineSet
62 -43 m 257
 88 -43 l 257
 122 -116 207 -153 310 -153 c 256
 450 -153 588 -88 588 49 c 256
 588 70 583 91 576 100 c 257
 586 130 l 257
 604 104 613 73 613 37 c 256
 613 -121 472 -214 325 -214 c 256
 187 -214 98 -149 62 -43 c 257
EndSplineSet
Refer: 117 -1 N 1 0 0 1 0 0 2
Validated: 5
EndChar

StartChar: si_GhRa
Encoding: 127 -1 120
GlifName: si_G_hR_a
Width: 661
VWidth: 0
Flags: HW
LayerCount: 2
Fore
SplineSet
62 -43 m 257
 88 -43 l 257
 122 -116 207 -153 310 -153 c 256
 450 -153 588 -88 588 49 c 256
 588 70 583 91 576 100 c 257
 586 130 l 257
 604 104 613 73 613 37 c 256
 613 -121 472 -214 325 -214 c 256
 187 -214 98 -149 62 -43 c 257
EndSplineSet
Refer: 442 3485 N 1 0 0 1 0 0 2
Validated: 5
EndChar

StartChar: si_GhU
Encoding: 121 -1 121
GlifName: si_G_hU_
Width: 661
VWidth: 0
Flags: HW
LayerCount: 2
Fore
SplineSet
64 -139 m 256
 64 -88 110 -49 164 -49 c 256
 205 -49 241 -72 256 -107 c 257
 227 -119 l 257
 220 -99 196 -78 164 -78 c 256
 128 -78 98 -104 98 -139 c 256
 98 -167 121 -194 185 -194 c 258
 569 -194 l 257
 569 125 l 257
 602 214 l 257
 602 -229 l 257
 168 -229 l 258
 101 -229 64 -182 64 -139 c 256
EndSplineSet
Refer: 442 3485 N 1 0 0 1 0 0 2
Validated: 5
EndChar

StartChar: si_GhUu
Encoding: 122 -1 122
GlifName: si_G_hU_u
Width: 661
VWidth: 0
Flags: HW
LayerCount: 2
Fore
SplineSet
66 -135 m 256
 66 -78 114 -39 166 -39 c 256
 207 -39 238 -54 260 -89 c 257
 230 -100 l 257
 218 -81 198 -66 170 -66 c 256
 132 -66 102 -90 102 -126 c 256
 102 -162 132 -187 174 -187 c 256
 256 -187 351 -114 444 -114 c 256
 486 -114 544 -133 570 -164 c 257
 570 119 l 257
 602 207 l 257
 602 -226 l 257
 580 -226 l 257
 565 -191 513 -141 447 -141 c 256
 358 -141 270 -231 174 -231 c 256
 120 -231 66 -201 66 -135 c 256
EndSplineSet
Refer: 442 3485 N 1 0 0 1 0 0 2
Validated: 5
EndChar

StartChar: si_Gha.reph
Encoding: 123 -1 123
GlifName: si_G_ha.reph
Width: 661
VWidth: 0
Flags: HW
AnchorPoint: "cursive" 54 0 entry 0
LayerCount: 2
Fore
SplineSet
289 479 m 256
 289 458 308 443 329 443 c 256
 350 443 369 458 369 479 c 256
 369 500 350 516 329 516 c 256
 308 516 289 500 289 479 c 256
189 498 m 256
 189 560 246 597 326 597 c 256
 401 597 464 554 464 485 c 256
 464 462 456 441 439 422 c 257
 406 422 l 257
 419 434 435 458 435 484 c 256
 435 540 385 570 325 570 c 256
 273 570 220 550 220 498 c 256
 220 460 261 441 283 439 c 257
 275 445 263 459 263 480 c 256
 263 514 293 539 328 539 c 256
 368 539 396 513 396 479 c 256
 396 441 362 415 305 415 c 256
 247 415 189 443 189 498 c 256
EndSplineSet
Refer: 442 3485 N 1 0 0 1 0 0 2
Validated: 5
EndChar

StartChar: si_H.halant
Encoding: 426 -1 124
GlifName: si_H_.halant
Width: 637
VWidth: 0
Flags: HW
LayerCount: 2
Fore
SplineSet
442 378 m 257
 442 665 l 257
 495 624 589 619 589 529 c 256
 589 486 555 457 513 457 c 256
 498 457 484 460 469 467 c 257
 469 361 l 257
 442 378 l 257
469 491 m 257
 478 486 488 484 501 484 c 256
 538 484 553 509 553 532 c 256
 553 573 515 593 469 623 c 257
 469 491 l 257
EndSplineSet
Refer: 477 3524 N 1 0 0 1 0 0 2
Validated: 5
EndChar

StartChar: si_HI
Encoding: 427 -1 125
GlifName: si_H_I_
Width: 637
VWidth: 0
Flags: HW
LayerCount: 2
Fore
SplineSet
146 524 m 260
 146 613 243 651 343 651 c 260
 446 651 546 604 546 511 c 260
 546 450 508 405 429 399 c 261
 411 421 l 261
 414 421 416 421 419 421 c 260
 476 421 518 451 518 500 c 260
 518 563 421 584 343 584 c 260
 264 584 187 555 187 504 c 260
 187 445 317 421 401 421 c 260
 402 421 402 422 403 422 c 261
 388 402 l 261
 232 405 146 451 146 524 c 260
EndSplineSet
Refer: 477 3524 N 1 0 0 1 0 0 2
Validated: 5
EndChar

StartChar: si_HIi
Encoding: 428 -1 126
GlifName: si_H_I_i
Width: 637
VWidth: 0
Flags: HW
LayerCount: 2
Fore
SplineSet
380 508 m 256
 380 474 411 446 449 446 c 256
 487 446 519 474 519 508 c 256
 519 542 487 569 449 569 c 256
 411 569 380 542 380 508 c 256
146 524 m 256
 146 613 243 651 343 651 c 256
 446 651 546 604 546 513 c 256
 546 446 489 421 447 421 c 256
 404 421 353 453 353 507 c 256
 353 552 385 577 401 580 c 257
 380 583 366 584 343 584 c 256
 264 584 187 555 187 504 c 256
 187 445 317 421 401 421 c 256
 402 421 402 422 403 422 c 257
 388 402 l 257
 232 405 146 451 146 524 c 256
EndSplineSet
Refer: 477 3524 N 1 0 0 1 0 0 2
Validated: 5
EndChar

StartChar: si_HRIi
Encoding: 435 -1 127
GlifName: si_H_R_I_i
Width: 637
VWidth: 0
Flags: HW
LayerCount: 2
Fore
SplineSet
380 508 m 256
 380 474 411 446 449 446 c 256
 487 446 519 474 519 508 c 256
 519 542 487 569 449 569 c 256
 411 569 380 542 380 508 c 256
146 524 m 256
 146 613 243 651 343 651 c 256
 446 651 546 604 546 513 c 256
 546 446 489 421 447 421 c 256
 404 421 353 453 353 507 c 256
 353 552 385 577 401 580 c 257
 380 583 366 584 343 584 c 256
 264 584 187 555 187 504 c 256
 187 445 317 421 401 421 c 256
 402 421 402 422 403 422 c 257
 388 402 l 257
 232 405 146 451 146 524 c 256
60 -43 m 257
 86 -43 l 257
 121 -116 193 -153 298 -153 c 256
 442 -153 562 -88 562 49 c 256
 562 70 556 91 549 100 c 257
 562 130 l 257
 581 104 589 73 589 37 c 256
 589 -121 459 -214 314 -214 c 256
 180 -214 97 -149 60 -43 c 257
EndSplineSet
Refer: 477 3524 N 1 0 0 1 0 0 2
Validated: 5
EndChar

StartChar: si_HRa
Encoding: 433 -1 128
GlifName: si_H_R_a
Width: 637
VWidth: 0
Flags: HW
LayerCount: 2
Fore
SplineSet
60 -43 m 261
 86 -43 l 261
 121 -116 193 -153 298 -153 c 260
 442 -153 562 -88 562 49 c 260
 562 70 556 91 549 100 c 261
 562 130 l 261
 581 104 589 73 589 37 c 260
 589 -121 459 -214 314 -214 c 260
 180 -214 97 -149 60 -43 c 261
EndSplineSet
Refer: 477 3524 N 1 0 0 1 0 0 2
Validated: 5
EndChar

StartChar: si_HU
Encoding: 429 -1 129
GlifName: si_H_U_
Width: 637
VWidth: 0
Flags: HW
LayerCount: 2
Fore
SplineSet
44 -139 m 256
 44 -88 90 -49 144 -49 c 256
 185 -49 220 -72 235 -107 c 257
 206 -119 l 257
 199 -99 176 -78 144 -78 c 256
 108 -78 77 -104 77 -139 c 256
 77 -167 100 -194 164 -194 c 258
 552 -194 l 257
 552 125 l 257
 584 193 l 257
 584 -229 l 257
 147 -229 l 258
 80 -229 44 -182 44 -139 c 256
EndSplineSet
Refer: 477 3524 N 1 0 0 1 0 0 2
Validated: 5
EndChar

StartChar: si_HUu
Encoding: 430 -1 130
GlifName: si_H_U_u
Width: 637
VWidth: 0
Flags: HW
LayerCount: 2
Fore
SplineSet
44 -135 m 256
 44 -78 92 -39 144 -39 c 256
 185 -39 216 -54 238 -89 c 257
 209 -100 l 257
 197 -81 176 -66 148 -66 c 256
 110 -66 79 -90 79 -126 c 256
 79 -162 116 -187 158 -187 c 256
 262 -187 343 -114 436 -114 c 256
 478 -114 526 -133 552 -164 c 257
 552 148 l 257
 584 207 l 257
 584 -226 l 257
 562 -226 l 257
 547 -191 504 -141 438 -141 c 256
 349 -141 273 -231 158 -231 c 256
 104 -231 44 -201 44 -135 c 256
EndSplineSet
Refer: 477 3524 N 1 0 0 1 0 0 2
Validated: 5
EndChar

StartChar: si_Ha.reph
Encoding: 431 -1 131
GlifName: si_H_a.reph
Width: 637
VWidth: 0
Flags: HW
AnchorPoint: "cursive" 42 0 entry 0
LayerCount: 2
Fore
SplineSet
264 499 m 256
 264 478 283 463 304 463 c 256
 325 463 344 478 344 499 c 256
 344 520 325 535 304 535 c 256
 283 535 264 520 264 499 c 256
164 518 m 256
 164 580 221 616 301 616 c 256
 376 616 438 574 438 505 c 256
 438 482 431 460 414 441 c 257
 381 441 l 257
 394 453 409 478 409 504 c 256
 409 560 360 590 300 590 c 256
 248 590 195 570 195 518 c 256
 195 480 236 461 258 459 c 257
 250 465 237 479 237 500 c 256
 237 534 268 559 303 559 c 256
 343 559 370 532 370 498 c 256
 370 460 336 435 279 435 c 256
 221 435 164 463 164 518 c 256
EndSplineSet
Refer: 477 3524 N 1 0 0 1 0 0 2
Validated: 1
EndChar

StartChar: si_J.halant
Encoding: 151 -1 132
GlifName: si_J_.halant
Width: 583
VWidth: 0
Flags: HW
LayerCount: 2
Fore
SplineSet
293 348 m 257
 293 738 l 257
 349 692 437 687 437 611 c 256
 437 566 403 537 361 537 c 256
 347 537 333 538 318 543 c 257
 318 391 l 257
 293 348 l 257
318 567 m 257
 328 563 339 562 354 562 c 256
 386 562 400 585 400 607 c 256
 400 656 354 671 318 695 c 257
 318 567 l 257
EndSplineSet
Refer: 447 3490 N 1 0 0 1 0 0 2
Validated: 5
EndChar

StartChar: si_JI
Encoding: 152 -1 133
GlifName: si_J_I_
Width: 583
VWidth: 0
Flags: HW
LayerCount: 2
Fore
SplineSet
228 479 m 256
 228 564 296 642 373 642 c 256
 419 642 450 611 450 569 c 256
 450 565 449 563 449 559 c 257
 420 531 l 257
 424 537 426 551 426 562 c 256
 426 590 414 607 384 607 c 256
 328 607 270 537 270 475 c 256
 270 444 284 419 324 419 c 256
 338 419 348 421 365 426 c 257
 361 415 l 257
 348 407 321 398 319 397 c 257
 318 397 316 397 315 397 c 256
 253 397 228 430 228 479 c 256
EndSplineSet
Refer: 447 3490 N 1 0 0 1 0 0 2
Validated: 5
EndChar

StartChar: si_JIi
Encoding: 153 -1 134
GlifName: si_J_I_i
Width: 583
VWidth: 0
Flags: HW
LayerCount: 2
Fore
SplineSet
330 565 m 256
 330 539 351 518 377 518 c 256
 403 518 425 539 425 565 c 256
 425 591 403 613 377 613 c 256
 351 613 330 591 330 565 c 256
228 479 m 256
 228 564 297 641 378 641 c 256
 422 641 453 604 453 565 c 256
 453 528 424 490 378 490 c 256
 331 490 305 528 305 561 c 256
 305 561 305 562 305 563 c 257
 286 539 270 508 270 475 c 256
 270 444 284 419 324 419 c 256
 338 419 348 421 365 426 c 257
 361 415 l 257
 348 407 321 398 319 397 c 257
 318 397 316 397 315 397 c 256
 253 397 228 430 228 479 c 256
EndSplineSet
Refer: 447 3490 N 1 0 0 1 0 0 2
Validated: 5
EndChar

StartChar: si_JRI
Encoding: 159 -1 135
GlifName: si_J_R_I_
Width: 583
VWidth: 0
Flags: HW
LayerCount: 2
Fore
SplineSet
39 -43 m 257
 66 -43 l 257
 100 -116 164 -153 267 -153 c 256
 407 -153 511 -88 511 49 c 256
 511 70 505 96 492 109 c 257
 508 137 l 257
 530 105 538 73 538 37 c 256
 538 -121 423 -214 282 -214 c 256
 152 -214 75 -149 39 -43 c 257
228 479 m 256
 228 564 296 642 373 642 c 256
 419 642 450 611 450 569 c 256
 450 565 449 563 449 559 c 257
 420 531 l 257
 424 537 426 551 426 562 c 256
 426 590 414 607 384 607 c 256
 328 607 270 537 270 475 c 256
 270 444 284 419 324 419 c 256
 338 419 348 421 365 426 c 257
 361 415 l 257
 348 407 321 398 319 397 c 257
 318 397 316 397 315 397 c 256
 253 397 228 430 228 479 c 256
EndSplineSet
Refer: 447 3490 N 1 0 0 1 0 0 2
Validated: 5
EndChar

StartChar: si_JRIi
Encoding: 160 -1 136
GlifName: si_J_R_I_i
Width: 583
VWidth: 0
Flags: HW
LayerCount: 2
Fore
SplineSet
39 -43 m 257
 66 -43 l 257
 100 -116 164 -153 267 -153 c 256
 407 -153 511 -88 511 49 c 256
 511 70 505 96 492 109 c 257
 508 137 l 257
 530 105 538 73 538 37 c 256
 538 -121 423 -214 282 -214 c 256
 152 -214 75 -149 39 -43 c 257
330 565 m 256
 330 539 351 518 377 518 c 256
 403 518 425 539 425 565 c 256
 425 591 403 613 377 613 c 256
 351 613 330 591 330 565 c 256
228 479 m 256
 228 564 297 641 378 641 c 256
 422 641 453 604 453 565 c 256
 453 528 424 490 378 490 c 256
 331 490 305 528 305 561 c 256
 305 561 305 562 305 563 c 257
 286 539 270 508 270 475 c 256
 270 444 284 419 324 419 c 256
 338 419 348 421 365 426 c 257
 361 415 l 257
 319 397 l 257
 318 397 316 397 315 397 c 256
 253 397 228 430 228 479 c 256
EndSplineSet
Refer: 447 3490 N 1 0 0 1 0 0 2
Validated: 5
EndChar

StartChar: si_JRa
Encoding: 158 -1 137
GlifName: si_J_R_a
Width: 583
VWidth: 0
Flags: HW
LayerCount: 2
Fore
SplineSet
39 -43 m 261
 66 -43 l 261
 100 -116 164 -153 267 -153 c 260
 407 -153 511 -88 511 49 c 260
 511 70 505 96 492 109 c 261
 508 137 l 261
 530 105 538 73 538 37 c 260
 538 -121 423 -214 282 -214 c 260
 152 -214 75 -149 39 -43 c 261
EndSplineSet
Refer: 447 3490 N 1 0 0 1 0 0 2
Validated: 5
EndChar

StartChar: si_JU
Encoding: 154 -1 138
GlifName: si_J_U_
Width: 583
VWidth: 0
Flags: HW
LayerCount: 2
Fore
SplineSet
38 -139 m 256
 38 -88 83 -49 137 -49 c 256
 178 -49 214 -72 229 -107 c 257
 199 -119 l 257
 192 -99 169 -78 137 -78 c 256
 101 -78 70 -104 70 -139 c 256
 70 -167 93 -194 157 -194 c 258
 496 -194 l 257
 496 125 l 257
 527 193 l 257
 527 -229 l 257
 141 -229 l 258
 74 -229 38 -182 38 -139 c 256
EndSplineSet
Refer: 447 3490 N 1 0 0 1 0 0 2
Validated: 5
EndChar

StartChar: si_JUu
Encoding: 155 -1 139
GlifName: si_J_U_u
Width: 583
VWidth: 0
Flags: HW
LayerCount: 2
Fore
SplineSet
38 -135 m 256
 38 -78 86 -39 138 -39 c 256
 179 -39 210 -54 232 -89 c 257
 203 -100 l 257
 191 -81 171 -66 143 -66 c 256
 105 -66 73 -90 73 -126 c 256
 73 -162 104 -187 146 -187 c 256
 228 -187 293 -114 386 -114 c 256
 433 -114 472 -135 496 -164 c 257
 496 138 l 257
 528 196 l 257
 528 -226 l 257
 506 -226 l 257
 491 -191 452 -141 389 -141 c 256
 300 -141 242 -231 146 -231 c 256
 92 -231 38 -201 38 -135 c 256
EndSplineSet
Refer: 447 3490 N 1 0 0 1 0 0 2
Validated: 5
EndChar

StartChar: si_Ja.reph
Encoding: 156 -1 140
GlifName: si_J_a.reph
Width: 583
VWidth: 0
Flags: HW
AnchorPoint: "cursive" 46 0 entry 0
LayerCount: 2
Fore
SplineSet
197 479 m 256
 197 458 216 443 237 443 c 256
 258 443 277 458 277 479 c 256
 277 500 258 516 237 516 c 256
 216 516 197 500 197 479 c 256
98 498 m 256
 98 560 154 597 234 597 c 256
 309 597 372 554 372 485 c 256
 372 462 365 441 348 422 c 257
 314 422 l 257
 327 434 343 458 343 484 c 256
 343 540 293 570 233 570 c 256
 181 570 129 550 129 498 c 256
 129 460 169 441 191 439 c 257
 183 445 171 459 171 480 c 256
 171 514 201 539 236 539 c 256
 276 539 304 513 304 479 c 256
 304 441 270 415 213 415 c 256
 155 415 98 443 98 498 c 256
EndSplineSet
Refer: 447 3490 N 1 0 0 1 0 0 2
Validated: 5
EndChar

StartChar: si_Jh.halant
Encoding: 161 -1 141
GlifName: si_J_h.halant
Width: 1061
VWidth: 0
Flags: HW
LayerCount: 2
Fore
SplineSet
68 93 m 257
 74 96 80 98 87 98 c 256
 115 98 138 69 194 69 c 256
 244 69 274 99 274 158 c 256
 274 160 274 157 274 159 c 257
 300 159 l 257
 300 158 300 159 300 158 c 256
 300 95 326 69 383 69 c 256
 444 69 463 120 463 155 c 256
 463 236 392 284 291 284 c 256
 235 284 199 276 178 267 c 257
 161 252 142 229 126 207 c 256
 98 167 79 129 68 93 c 257
21 21 m 257
 29 88 72 180 106 227 c 256
 131 262 146 275 164 294 c 257
 176 307 188 323 188 344 c 256
 188 365 178 383 154 383 c 256
 140 383 119 375 113 354 c 256
 106 332 111 332 104 315 c 256
 97 297 82 290 67 290 c 256
 34 290 28 320 28 332 c 256
 28 385 77 423 133 423 c 256
 182 423 215 393 215 348 c 256
 215 343 215 338 214 333 c 257
 274 388 362 424 464 424 c 256
 562 424 627 405 655 389 c 257
 600 381 l 257
 557 393 506 396 463 396 c 256
 334 396 261 342 214 301 c 257
 237 307 269 309 295 309 c 256
 412 309 503 245 503 123 c 256
 503 66 471 -1 388 -1 c 256
 343 -1 310 20 289 62 c 257
 272 22 240 -1 199 -1 c 256
 114 -1 117 71 85 71 c 256
 64 71 49 50 46 11 c 257
 21 21 l 257
575 530 m 256
 575 518 599 514 599 503 c 256
 599 501 598 498 596 496 c 257
 628 502 667 507 712 507 c 256
 817 507 900 478 957 412 c 257
 925 524 830 576 717 576 c 256
 647 576 575 553 575 530 c 256
472 190 m 256
 472 281 524 356 588 378 c 256
 609 385 631 389 655 389 c 257
 655 364 l 258
 652 364 649 364 646 364 c 256
 569 364 505 294 505 207 c 256
 505 133 552 69 623 69 c 256
 673 69 723 90 723 152 c 258
 723 191 l 257
 750 191 l 257
 750 152 l 258
 750 90 799 69 847 69 c 256
 945 69 980 184 980 260 c 256
 980 404 872 482 715 482 c 256
 641 482 572 467 497 445 c 257
 497 474 l 257
 524 478 562 487 562 496 c 256
 562 508 535 512 535 533 c 256
 535 569 599 614 711 614 c 256
 914 614 986 479 998 348 c 257
 1007 324 1016 280 1016 239 c 256
 1016 131 975 0 852 0 c 256
 804 0 764 20 735 58 c 257
 705 20 669 0 625 0 c 256
 525 0 472 93 472 190 c 256
EndSplineSet
Validated: 5
EndChar

StartChar: si_JhI
Encoding: 162 -1 142
GlifName: si_J_hI_
Width: 1061
VWidth: 0
Flags: HW
LayerCount: 2
Fore
SplineSet
68 93 m 257
 74 96 80 98 87 98 c 256
 115 98 138 69 194 69 c 256
 244 69 274 99 274 158 c 256
 274 160 274 157 274 159 c 257
 300 159 l 257
 300 158 300 159 300 158 c 256
 300 95 326 69 383 69 c 256
 444 69 463 120 463 155 c 256
 463 236 392 284 291 284 c 256
 235 284 199 276 178 267 c 257
 161 252 142 229 126 207 c 256
 98 167 79 129 68 93 c 257
21 21 m 257
 29 88 72 180 106 227 c 256
 131 262 146 275 164 294 c 257
 176 307 188 323 188 344 c 256
 188 365 178 383 154 383 c 256
 140 383 119 375 113 354 c 256
 106 332 111 332 104 315 c 256
 97 297 82 290 67 290 c 256
 34 290 28 320 28 332 c 256
 28 385 77 423 133 423 c 256
 182 423 215 393 215 348 c 256
 215 343 215 338 214 333 c 257
 274 388 362 424 464 424 c 256
 562 424 627 405 655 389 c 257
 600 381 l 257
 557 393 506 396 463 396 c 256
 334 396 261 342 214 301 c 257
 237 307 269 309 295 309 c 256
 412 309 503 245 503 123 c 256
 503 66 471 -1 388 -1 c 256
 343 -1 310 20 289 62 c 257
 272 22 240 -1 199 -1 c 256
 114 -1 117 71 85 71 c 256
 64 71 49 50 46 11 c 257
 21 21 l 257
EndSplineSet
Refer: 85 -1 N 1 0 0 1 439 0 2
Validated: 5
EndChar

StartChar: si_JhIi
Encoding: 163 -1 143
GlifName: si_J_hI_i
Width: 1061
VWidth: 0
Flags: HW
LayerCount: 2
Fore
SplineSet
68 93 m 257
 74 96 80 98 87 98 c 256
 115 98 138 69 194 69 c 256
 244 69 274 99 274 158 c 256
 274 160 274 157 274 159 c 257
 300 159 l 257
 300 158 300 159 300 158 c 256
 300 95 326 69 383 69 c 256
 444 69 463 120 463 155 c 256
 463 236 392 284 291 284 c 256
 235 284 199 276 178 267 c 257
 161 252 142 229 126 207 c 256
 98 167 79 129 68 93 c 257
21 21 m 257
 29 88 72 180 106 227 c 256
 131 262 146 275 164 294 c 257
 176 307 188 323 188 344 c 256
 188 365 178 383 154 383 c 256
 140 383 119 375 113 354 c 256
 106 332 111 332 104 315 c 256
 97 297 82 290 67 290 c 256
 34 290 28 320 28 332 c 256
 28 385 77 423 133 423 c 256
 182 423 215 393 215 348 c 256
 215 343 215 338 214 333 c 257
 274 388 362 424 464 424 c 256
 562 424 627 405 655 389 c 257
 600 381 l 257
 557 393 506 396 463 396 c 256
 334 396 261 342 214 301 c 257
 237 307 269 309 295 309 c 256
 412 309 503 245 503 123 c 256
 503 66 471 -1 388 -1 c 256
 343 -1 310 20 289 62 c 257
 272 22 240 -1 199 -1 c 256
 114 -1 117 71 85 71 c 256
 64 71 49 50 46 11 c 257
 21 21 l 257
EndSplineSet
Refer: 86 -1 N 1 0 0 1 439 0 2
Validated: 5
EndChar

StartChar: si_JhRI
Encoding: 171 -1 144
GlifName: si_J_hR_I_
Width: 1061
VWidth: 0
Flags: HW
LayerCount: 2
Fore
SplineSet
494 -43 m 257
 521 -43 l 257
 555 -116 623 -153 726 -153 c 256
 866 -153 980 -88 980 49 c 256
 980 70 976 91 969 100 c 257
 981 130 l 257
 999 104 1008 73 1008 37 c 256
 1008 -121 882 -214 741 -214 c 256
 611 -214 530 -149 494 -43 c 257
EndSplineSet
Refer: 142 -1 N 1 0 0 1 0 0 2
Validated: 5
EndChar

StartChar: si_JhRIi
Encoding: 172 -1 145
GlifName: si_J_hR_I_i
Width: 1061
VWidth: 0
Flags: HW
LayerCount: 2
Fore
SplineSet
494 -43 m 257
 521 -43 l 257
 555 -116 623 -153 726 -153 c 256
 866 -153 980 -88 980 49 c 256
 980 70 976 91 969 100 c 257
 981 130 l 257
 999 104 1008 73 1008 37 c 256
 1008 -121 882 -214 741 -214 c 256
 611 -214 530 -149 494 -43 c 257
EndSplineSet
Refer: 143 -1 N 1 0 0 1 0 0 2
Validated: 5
EndChar

StartChar: si_JhRa
Encoding: 170 -1 146
GlifName: si_J_hR_a
Width: 1061
VWidth: 0
Flags: HW
LayerCount: 2
Fore
SplineSet
494 -43 m 261
 521 -43 l 261
 555 -116 623 -153 726 -153 c 260
 866 -153 980 -88 980 49 c 260
 980 70 976 91 969 100 c 261
 981 130 l 261
 999 104 1008 73 1008 37 c 260
 1008 -121 882 -214 741 -214 c 260
 611 -214 530 -149 494 -43 c 261
EndSplineSet
Refer: 448 3491 N 1 0 0 1 0 0 2
Validated: 5
EndChar

StartChar: si_JhU
Encoding: 164 -1 147
GlifName: si_J_hU_
Width: 1061
VWidth: 0
Flags: HW
LayerCount: 2
Fore
SplineSet
490 -139 m 256
 490 -88 535 -49 589 -49 c 256
 630 -49 666 -72 681 -107 c 257
 651 -119 l 257
 644 -99 621 -78 589 -78 c 256
 553 -78 522 -104 522 -139 c 256
 522 -167 545 -194 609 -194 c 258
 969 -194 l 257
 969 125 l 257
 1001 214 l 257
 1001 -229 l 257
 593 -229 l 258
 526 -229 490 -182 490 -139 c 256
EndSplineSet
Refer: 448 3491 N 1 0 0 1 0 0 2
Validated: 5
EndChar

StartChar: si_JhU.reph
Encoding: 167 -1 148
GlifName: si_J_hU_.reph
Width: 1061
VWidth: 0
Flags: HW
AnchorPoint: "cursive" 69 0 entry 0
LayerCount: 2
Fore
SplineSet
707 607 m 256
 707 586 725 571 746 571 c 256
 767 571 786 586 786 607 c 256
 786 628 767 644 746 644 c 256
 725 644 707 628 707 607 c 256
607 626 m 256
 607 688 664 725 744 725 c 256
 819 725 881 682 881 613 c 256
 881 590 874 569 857 550 c 257
 824 550 l 257
 837 562 852 586 852 612 c 256
 852 668 802 698 742 698 c 256
 690 698 638 678 638 626 c 256
 638 588 678 569 700 567 c 257
 692 573 680 587 680 608 c 256
 680 642 711 667 746 667 c 256
 786 667 812 640 812 606 c 256
 812 568 780 543 723 543 c 256
 665 543 607 571 607 626 c 256
EndSplineSet
Refer: 147 -1 N 1 0 0 1 0 0 2
Validated: 5
EndChar

StartChar: si_JhUu
Encoding: 165 -1 149
GlifName: si_J_hU_u
Width: 1061
VWidth: 0
Flags: HW
LayerCount: 2
Fore
SplineSet
489 -135 m 256
 489 -78 537 -39 589 -39 c 256
 630 -39 662 -54 684 -89 c 257
 654 -100 l 257
 642 -81 622 -66 594 -66 c 256
 556 -66 524 -90 524 -126 c 256
 524 -162 555 -187 597 -187 c 256
 679 -187 760 -114 853 -114 c 256
 895 -114 943 -133 969 -164 c 257
 969 148 l 257
 1001 207 l 257
 1001 -226 l 257
 979 -226 l 257
 964 -191 921 -141 855 -141 c 256
 766 -141 694 -231 598 -231 c 256
 544 -231 489 -201 489 -135 c 256
EndSplineSet
Refer: 448 3491 N 1 0 0 1 0 0 2
Validated: 5
EndChar

StartChar: si_JhUu.reph
Encoding: 168 -1 150
GlifName: si_J_hU_u.reph
Width: 1061
VWidth: 0
Flags: HW
AnchorPoint: "cursive" 69 0 entry 0
LayerCount: 2
Fore
SplineSet
707 607 m 256
 707 586 725 571 746 571 c 256
 767 571 786 586 786 607 c 256
 786 628 767 644 746 644 c 256
 725 644 707 628 707 607 c 256
607 626 m 256
 607 688 664 725 744 725 c 256
 819 725 881 682 881 613 c 256
 881 590 874 569 857 550 c 257
 824 550 l 257
 837 562 852 586 852 612 c 256
 852 668 802 698 742 698 c 256
 690 698 638 678 638 626 c 256
 638 588 678 569 700 567 c 257
 692 573 680 587 680 608 c 256
 680 642 711 667 746 667 c 256
 786 667 812 640 812 606 c 256
 812 568 780 543 723 543 c 256
 665 543 607 571 607 626 c 256
489 -135 m 256
 489 -78 537 -39 589 -39 c 256
 630 -39 662 -54 684 -89 c 257
 654 -100 l 257
 642 -81 622 -66 594 -66 c 256
 556 -66 524 -90 524 -126 c 256
 524 -162 555 -187 597 -187 c 256
 679 -187 760 -114 853 -114 c 256
 895 -114 943 -133 969 -164 c 257
 969 148 l 257
 1001 207 l 257
 1001 -226 l 257
 979 -226 l 257
 964 -191 921 -141 855 -141 c 256
 766 -141 694 -231 598 -231 c 256
 544 -231 489 -201 489 -135 c 256
EndSplineSet
Refer: 448 3491 N 1 0 0 1 0 0 2
Validated: 5
EndChar

StartChar: si_Jha.reph
Encoding: 166 -1 151
GlifName: si_J_ha.reph
Width: 1061
VWidth: 0
Flags: HW
AnchorPoint: "cursive" 69 0 entry 0
LayerCount: 2
Fore
SplineSet
707 607 m 256
 707 586 725 571 746 571 c 256
 767 571 786 586 786 607 c 256
 786 628 767 645 746 645 c 256
 725 645 707 628 707 607 c 256
607 626 m 256
 607 688 664 725 744 725 c 256
 819 725 881 682 881 613 c 256
 881 590 874 569 857 550 c 257
 824 550 l 257
 837 562 852 586 852 612 c 256
 852 668 802 698 742 698 c 256
 690 698 638 678 638 626 c 256
 638 588 678 570 700 568 c 257
 692 574 680 587 680 608 c 256
 680 642 711 667 746 667 c 256
 786 667 812 640 812 606 c 256
 812 568 780 543 723 543 c 256
 665 543 607 571 607 626 c 256
EndSplineSet
Refer: 448 3491 N 1 0 0 1 0 0 2
Validated: 5
EndChar

StartChar: si_Jny.halant
Encoding: 186 -1 152
GlifName: si_J_ny.halant
Width: 822
VWidth: 0
Flags: HW
LayerCount: 2
Fore
SplineSet
639 403 m 261
 639 664 l 261
 692 623 785 618 785 528 c 260
 785 485 751 456 709 456 c 260
 694 456 681 459 666 466 c 261
 666 387 l 261
 639 403 l 261
666 490 m 261
 675 485 684 483 697 483 c 260
 734 483 750 508 750 531 c 260
 750 572 712 592 666 622 c 261
 666 490 l 261
EndSplineSet
Refer: 450 3493 N 1 0 0 1 0 0 2
Validated: 5
EndChar

StartChar: si_JnyAa
Encoding: 187 -1 153
GlifName: si_J_nyA_a
Width: 822
VWidth: 0
Flags: HW
LayerCount: 2
Fore
SplineSet
411 165 m 256
 411 268 483 310 599 310 c 258
 716 310 l 257
 706 355 678 387 635 387 c 256
 616 387 602 375 593 357 c 256
 583 336 567 328 552 328 c 256
 528 328 515 342 515 363 c 256
 515 398 553 423 607 423 c 256
 691 423 733 380 751 287 c 257
 617 287 l 258
 531 287 486 251 486 169 c 256
 486 87 550 25 633 25 c 256
 682 25 723 45 762 90 c 257
 784 73 l 257
 764 56 748 40 733 32 c 257
 736 33 734 33 738 33 c 256
 785 33 817 -18 817 -85 c 256
 817 -171 779 -207 721 -207 c 256
 673 -207 657 -183 657 -162 c 257
 684 -162 l 257
 684 -172 692 -183 711 -183 c 256
 752 -183 763 -145 763 -85 c 256
 763 -41 748 0 718 0 c 256
 690 0 678 -28 678 -44 c 257
 652 -44 l 257
 652 -28 660 -6 673 4 c 257
 646 -1 630 -1 609 -1 c 256
 481 -1 411 67 411 165 c 256
131 202 m 256
 131 322 204 422 312 422 c 256
 316 422 321 421 325 421 c 257
 325 398 l 257
 322 398 317 398 314 398 c 256
 230 398 165 325 165 225 c 256
 165 144 212 69 299 69 c 256
 357 69 408 96 408 154 c 256
 408 191 388 212 358 212 c 256
 351 212 341 209 336 205 c 257
 335 199 334 191 334 188 c 257
 308 188 l 257
 322 344 397 428 547 428 c 256
 577 428 626 426 658 416 c 257
 540 399 l 257
 534 399 531 400 525 400 c 256
 421 400 360 332 339 230 c 257
 347 234 354 235 361 235 c 256
 408 235 441 197 441 133 c 256
 441 55 386 -2 301 -2 c 256
 193 -2 131 94 131 202 c 256
26 216 m 256
 26 345 97 423 233 423 c 256
 242 423 294 424 316 422 c 257
 312 422 226 396 226 396 c 257
 95 396 55 305 55 213 c 256
 55 134 81 73 132 29 c 257
 132 0 l 257
 68 32 26 117 26 216 c 256
EndSplineSet
Validated: 37
EndChar

StartChar: si_JnyI
Encoding: 191 -1 154
GlifName: si_J_nyI_
Width: 822
VWidth: 0
Flags: HW
LayerCount: 2
Fore
SplineSet
415 506 m 256
 415 605 504 654 599 654 c 256
 694 654 782 603 782 506 c 256
 782 433 720 396 669 395 c 257
 622 419 l 257
 634 417 651 416 657 416 c 256
 705 416 752 448 752 496 c 256
 752 557 669 584 599 584 c 256
 529 584 445 558 445 496 c 256
 445 449 501 428 541 428 c 257
 523 404 l 257
 470 410 415 444 415 506 c 256
EndSplineSet
Refer: 450 3493 N 1 0 0 1 0 0 2
Validated: 5
EndChar

StartChar: si_JnyIi
Encoding: 192 -1 155
GlifName: si_J_nyI_i
Width: 822
VWidth: 0
Flags: HW
LayerCount: 2
Fore
SplineSet
622 502 m 256
 622 472 652 447 687 447 c 256
 722 447 751 472 751 502 c 256
 751 532 722 557 687 557 c 256
 652 557 622 532 622 502 c 256
415 512 m 256
 415 600 504 654 599 654 c 256
 694 654 782 600 782 510 c 256
 782 452 736 418 686 418 c 256
 627 418 591 458 591 502 c 256
 591 546 626 573 652 578 c 257
 641 581 613 584 599 584 c 256
 529 584 449 557 449 501 c 256
 449 454 504 428 562 428 c 257
 490 422 l 257
 454 428 415 462 415 512 c 256
EndSplineSet
Refer: 450 3493 N 1 0 0 1 0 0 2
Validated: 5
EndChar

StartChar: si_JnyRI
Encoding: 197 -1 156
GlifName: si_J_nyR_I_
Width: 822
VWidth: 0
Flags: HW
LayerCount: 2
Fore
SplineSet
411 165 m 256
 411 268 483 310 599 310 c 258
 716 310 l 257
 706 355 678 387 635 387 c 256
 616 387 601 375 592 357 c 256
 582 336 567 328 552 328 c 256
 528 328 515 342 515 363 c 256
 515 398 553 423 607 423 c 256
 691 423 733 380 751 287 c 257
 617 287 l 258
 531 287 486 251 486 169 c 256
 486 87 555 26 636 26 c 256
 681 26 724 49 756 90 c 257
 778 77 l 257
 739 33 701 -1 609 -1 c 256
 481 -1 411 67 411 165 c 256
415 506 m 256
 415 605 504 654 599 654 c 256
 694 654 782 603 782 506 c 256
 782 433 720 396 669 395 c 257
 622 419 l 257
 634 417 651 416 657 416 c 256
 705 416 752 448 752 496 c 256
 752 557 669 584 599 584 c 256
 529 584 445 558 445 496 c 256
 445 449 501 428 541 428 c 257
 523 404 l 257
 470 410 415 444 415 506 c 256
414 -42 m 257
 438 -42 l 257
 459 -109 504 -139 579 -139 c 256
 681 -139 754 -70 754 50 c 256
 754 71 754 64 753 72 c 257
 778 77 l 257
 778 57 778 74 778 38 c 256
 778 -107 694 -199 591 -199 c 256
 488 -199 434 -142 414 -42 c 257
26 216 m 256
 26 345 97 423 233 423 c 256
 242 423 294 424 316 422 c 257
 312 422 226 396 226 396 c 257
 95 396 55 305 55 213 c 256
 55 134 81 73 132 29 c 257
 132 0 l 257
 68 32 26 117 26 216 c 256
131 202 m 256
 131 322 204 422 312 422 c 256
 316 422 321 421 325 421 c 257
 325 398 l 257
 322 398 317 398 314 398 c 256
 230 398 165 325 165 225 c 256
 165 144 212 69 299 69 c 256
 357 69 408 96 408 154 c 256
 408 191 388 212 358 212 c 256
 351 212 341 209 336 205 c 257
 335 199 334 191 334 188 c 257
 308 188 l 257
 322 344 397 428 547 428 c 256
 577 428 626 426 658 416 c 257
 540 399 l 257
 534 399 531 400 525 400 c 256
 421 400 360 332 339 230 c 257
 347 234 354 235 361 235 c 256
 408 235 441 197 441 133 c 256
 441 55 386 -2 301 -2 c 256
 193 -2 131 94 131 202 c 256
EndSplineSet
Validated: 37
EndChar

StartChar: si_JnyRIi
Encoding: 198 -1 157
GlifName: si_J_nyR_I_i
Width: 822
VWidth: 0
Flags: HW
LayerCount: 2
Fore
SplineSet
622 502 m 256
 622 472 652 447 687 447 c 256
 722 447 751 472 751 502 c 256
 751 532 722 557 687 557 c 256
 652 557 622 532 622 502 c 256
415 506 m 256
 415 605 504 655 599 655 c 256
 694 655 782 601 782 511 c 256
 782 453 736 419 686 419 c 256
 627 419 591 459 591 503 c 256
 591 547 626 573 652 578 c 257
 641 581 613 584 599 584 c 256
 529 584 445 559 445 497 c 256
 445 450 488 422 562 422 c 257
 529 401 l 257
 465 411 415 441 415 506 c 256
414 -42 m 257
 438 -42 l 257
 459 -109 504 -139 579 -139 c 256
 681 -139 754 -70 754 50 c 256
 754 71 754 64 753 72 c 257
 778 77 l 257
 778 57 778 74 778 38 c 256
 778 -107 694 -199 591 -199 c 256
 488 -199 434 -142 414 -42 c 257
411 165 m 256
 411 268 483 310 599 310 c 258
 716 310 l 257
 706 355 678 387 635 387 c 256
 616 387 601 375 592 357 c 256
 582 336 567 328 552 328 c 256
 528 328 515 342 515 363 c 256
 515 398 553 423 607 423 c 256
 691 423 733 380 751 287 c 257
 617 287 l 258
 531 287 486 251 486 169 c 256
 486 87 555 26 636 26 c 256
 681 26 724 49 756 90 c 257
 778 77 l 257
 739 33 701 -1 609 -1 c 256
 481 -1 411 67 411 165 c 256
131 202 m 256
 131 322 204 422 312 422 c 256
 316 422 321 421 325 421 c 257
 325 398 l 257
 322 398 317 398 314 398 c 256
 230 398 165 325 165 225 c 256
 165 144 212 69 299 69 c 256
 357 69 408 96 408 154 c 256
 408 191 388 212 358 212 c 256
 351 212 341 209 336 205 c 257
 335 199 334 191 334 188 c 257
 308 188 l 257
 322 344 397 428 547 428 c 256
 577 428 626 426 658 416 c 257
 540 399 l 257
 534 399 531 400 525 400 c 256
 421 400 360 332 339 230 c 257
 347 234 354 235 361 235 c 256
 408 235 441 197 441 133 c 256
 441 55 386 -2 301 -2 c 256
 193 -2 131 94 131 202 c 256
26 216 m 256
 26 345 97 423 233 423 c 256
 242 423 294 424 316 422 c 257
 312 422 226 396 226 396 c 257
 95 396 55 305 55 213 c 256
 55 134 81 73 132 29 c 257
 132 0 l 257
 68 32 26 117 26 216 c 256
EndSplineSet
Validated: 37
EndChar

StartChar: si_JnyRa
Encoding: 196 -1 158
GlifName: si_J_nyR_a
Width: 822
VWidth: 0
Flags: HW
LayerCount: 2
Fore
SplineSet
414 -42 m 257
 438 -42 l 257
 459 -109 504 -139 579 -139 c 256
 681 -139 754 -70 754 50 c 256
 754 71 754 64 753 72 c 257
 778 77 l 257
 778 57 778 74 778 38 c 256
 778 -107 694 -199 591 -199 c 256
 488 -199 434 -142 414 -42 c 257
411 165 m 256
 411 268 483 310 599 310 c 258
 716 310 l 257
 706 355 678 387 635 387 c 256
 616 387 601 375 592 357 c 256
 582 336 567 328 552 328 c 256
 528 328 515 342 515 363 c 256
 515 398 553 423 607 423 c 256
 691 423 733 380 751 287 c 257
 617 287 l 258
 531 287 486 251 486 169 c 256
 486 87 555 26 636 26 c 256
 681 26 724 49 756 90 c 257
 778 77 l 257
 739 33 701 -1 609 -1 c 256
 481 -1 411 67 411 165 c 256
26 216 m 256
 26 345 97 423 233 423 c 256
 242 423 294 424 316 422 c 257
 312 422 226 396 226 396 c 257
 95 396 55 305 55 213 c 256
 55 134 81 73 132 29 c 257
 132 0 l 257
 68 32 26 117 26 216 c 256
131 202 m 256
 131 322 204 422 312 422 c 256
 316 422 321 421 325 421 c 257
 325 398 l 257
 322 398 317 398 314 398 c 256
 230 398 165 325 165 225 c 256
 165 144 212 69 299 69 c 256
 357 69 408 96 408 154 c 256
 408 191 388 212 358 212 c 256
 351 212 341 209 336 205 c 257
 335 199 334 191 334 188 c 257
 308 188 l 257
 322 344 397 428 547 428 c 256
 577 428 626 426 658 416 c 257
 540 399 l 257
 534 399 531 400 525 400 c 256
 421 400 360 332 339 230 c 257
 347 234 354 235 361 235 c 256
 408 235 441 197 441 133 c 256
 441 55 386 -2 301 -2 c 256
 193 -2 131 94 131 202 c 256
EndSplineSet
Validated: 37
EndChar

StartChar: si_JnyU
Encoding: 193 -1 159
GlifName: si_J_nyU_
Width: 822
VWidth: 0
Flags: HW
LayerCount: 2
Fore
SplineSet
413 -139 m 256
 413 -88 458 -49 512 -49 c 256
 553 -49 589 -72 604 -107 c 257
 574 -119 l 257
 567 -99 544 -78 512 -78 c 256
 476 -78 445 -104 445 -139 c 256
 445 -167 468 -194 532 -194 c 258
 746 -194 l 257
 746 67 l 257
 778 77 l 257
 778 -229 l 257
 516 -229 l 258
 449 -229 413 -182 413 -139 c 256
411 165 m 256
 411 268 483 310 599 310 c 258
 716 310 l 257
 706 355 678 387 635 387 c 256
 616 387 601 375 592 357 c 256
 582 336 567 328 552 328 c 256
 528 328 515 342 515 363 c 256
 515 398 553 423 607 423 c 256
 691 423 733 380 751 287 c 257
 617 287 l 258
 531 287 486 251 486 169 c 256
 486 87 555 26 636 26 c 256
 681 26 724 49 756 90 c 257
 778 77 l 257
 739 33 701 -1 609 -1 c 256
 481 -1 411 67 411 165 c 256
26 216 m 256
 26 345 97 423 233 423 c 256
 242 423 294 424 316 422 c 257
 312 422 226 396 226 396 c 257
 95 396 55 305 55 213 c 256
 55 134 81 73 132 29 c 257
 132 0 l 257
 68 32 26 117 26 216 c 256
131 202 m 256
 131 322 204 422 312 422 c 256
 316 422 321 421 325 421 c 257
 325 398 l 257
 322 398 317 398 314 398 c 256
 230 398 165 325 165 225 c 256
 165 144 212 69 299 69 c 256
 357 69 408 96 408 154 c 256
 408 191 388 212 358 212 c 256
 351 212 341 209 336 205 c 257
 335 199 334 191 334 188 c 257
 308 188 l 257
 322 344 397 428 547 428 c 256
 577 428 626 426 658 416 c 257
 540 399 l 257
 534 399 531 400 525 400 c 256
 421 400 360 332 339 230 c 257
 347 234 354 235 361 235 c 256
 408 235 441 197 441 133 c 256
 441 55 386 -2 301 -2 c 256
 193 -2 131 94 131 202 c 256
EndSplineSet
Validated: 37
EndChar

StartChar: si_JnyUu
Encoding: 194 -1 160
GlifName: si_J_nyU_u
Width: 822
VWidth: 0
Flags: HW
LayerCount: 2
Fore
SplineSet
413 -136 m 256
 413 -79 461 -40 513 -40 c 256
 554 -40 585 -55 607 -90 c 257
 578 -101 l 257
 566 -82 546 -67 518 -67 c 256
 480 -67 448 -91 448 -127 c 256
 448 -163 476 -188 518 -188 c 256
 572 -188 598 -125 674 -125 c 256
 698 -125 727 -133 746 -156 c 257
 746 70 l 257
 778 77 l 257
 778 -227 l 257
 756 -227 l 257
 742 -190 724 -150 680 -150 c 256
 605 -150 584 -232 510 -232 c 256
 463 -232 413 -202 413 -136 c 256
411 165 m 256
 411 268 483 310 599 310 c 258
 716 310 l 257
 706 355 678 387 635 387 c 256
 616 387 601 375 592 357 c 256
 582 336 567 328 552 328 c 256
 528 328 515 342 515 363 c 256
 515 398 553 423 607 423 c 256
 691 423 733 380 751 287 c 257
 617 287 l 258
 531 287 486 251 486 169 c 256
 486 87 555 26 636 26 c 256
 681 26 724 49 756 90 c 257
 778 77 l 257
 739 33 701 -1 609 -1 c 256
 481 -1 411 67 411 165 c 256
26 216 m 256
 26 345 97 423 233 423 c 256
 242 423 294 424 316 422 c 257
 312 422 226 396 226 396 c 257
 95 396 55 305 55 213 c 256
 55 134 81 73 132 29 c 257
 132 0 l 257
 68 32 26 117 26 216 c 256
131 202 m 256
 131 322 204 422 312 422 c 256
 316 422 321 421 325 421 c 257
 325 398 l 257
 322 398 317 398 314 398 c 256
 230 398 165 325 165 225 c 256
 165 144 212 69 299 69 c 256
 357 69 408 96 408 154 c 256
 408 191 388 212 358 212 c 256
 351 212 341 209 336 205 c 257
 335 199 334 191 334 188 c 257
 308 188 l 257
 322 344 397 428 547 428 c 256
 577 428 626 426 658 416 c 257
 540 399 l 257
 534 399 531 400 525 400 c 256
 421 400 360 332 339 230 c 257
 347 234 354 235 361 235 c 256
 408 235 441 197 441 133 c 256
 441 55 386 -2 301 -2 c 256
 193 -2 131 94 131 202 c 256
EndSplineSet
Validated: 37
EndChar

StartChar: si_K.halant
Encoding: 89 -1 161
GlifName: si_K_.halant
Width: 728
VWidth: 0
Flags: HW
LayerCount: 2
Fore
SplineSet
538 339 m 257
 538 664 l 257
 591 623 685 618 685 528 c 256
 685 485 650 456 608 456 c 256
 593 456 579 459 564 466 c 257
 564 322 l 257
 538 339 l 257
564 490 m 257
 573 485 584 483 597 483 c 256
 634 483 648 508 648 531 c 256
 648 572 610 592 564 622 c 257
 564 490 l 257
EndSplineSet
Refer: 439 3482 N 1 0 0 1 0 0 2
Validated: 5
EndChar

StartChar: si_KI
Encoding: 90 -1 162
GlifName: si_K_I_
Width: 728
VWidth: 0
Flags: HW
LayerCount: 2
Fore
SplineSet
213 411 m 256
 213 576 322 655 462 655 c 256
 589 655 672 596 672 493 c 256
 672 433 643 393 596 374 c 257
 564 394 l 257
 603 396 641 430 641 475 c 256
 641 561 542 584 462 584 c 256
 328 584 238 516 238 395 c 256
 238 380 240 367 243 356 c 257
 220 335 l 257
 216 353 213 381 213 411 c 256
EndSplineSet
Refer: 439 3482 N 1 0 0 1 0 0 2
Validated: 5
EndChar

StartChar: si_KIi
Encoding: 91 -1 163
GlifName: si_K_I_i
Width: 728
VWidth: 0
Flags: HW
LayerCount: 2
Fore
SplineSet
519 465 m 256
 519 434 545 407 577 407 c 256
 609 407 636 434 636 465 c 256
 636 496 609 522 577 522 c 256
 545 522 519 496 519 465 c 256
213 411 m 256
 213 576 322 655 462 655 c 256
 589 655 673 586 673 483 c 256
 673 433 636 379 579 379 c 256
 522 379 488 423 488 466 c 256
 488 527 543 565 605 549 c 257
 567 576 508 584 462 584 c 256
 328 584 238 516 238 395 c 256
 238 380 240 367 243 356 c 257
 220 335 l 257
 216 353 213 381 213 411 c 256
EndSplineSet
Refer: 439 3482 N 1 0 0 1 0 0 2
Validated: 37
EndChar

StartChar: si_KRI
Encoding: 97 -1 164
GlifName: si_K_R_I_
Width: 728
VWidth: 0
Flags: HW
LayerCount: 2
Fore
SplineSet
111 -43 m 257
 138 -43 l 257
 172 -116 257 -153 360 -153 c 256
 500 -153 645 -88 645 49 c 256
 645 70 640 91 633 100 c 257
 644 130 l 257
 662 104 670 73 670 37 c 256
 670 -121 523 -214 376 -214 c 256
 238 -214 147 -149 111 -43 c 257
EndSplineSet
Refer: 162 -1 N 1 0 0 1 0 0 2
Validated: 5
EndChar

StartChar: si_KRIi
Encoding: 98 -1 165
GlifName: si_K_R_I_i
Width: 728
VWidth: 0
Flags: HW
LayerCount: 2
Fore
SplineSet
111 -43 m 257
 138 -43 l 257
 172 -116 257 -153 360 -153 c 256
 500 -153 645 -88 645 49 c 256
 645 70 640 91 633 100 c 257
 644 130 l 257
 662 104 670 73 670 37 c 256
 670 -121 523 -214 376 -214 c 256
 238 -214 147 -149 111 -43 c 257
EndSplineSet
Refer: 163 -1 N 1 0 0 1 0 0 2
Validated: 5
EndChar

StartChar: si_KRa
Encoding: 96 -1 166
GlifName: si_K_R_a
Width: 728
VWidth: 0
Flags: HW
LayerCount: 2
Fore
SplineSet
111 -43 m 257
 138 -43 l 257
 172 -116 257 -153 360 -153 c 256
 500 -153 645 -88 645 49 c 256
 645 70 640 91 633 100 c 257
 644 130 l 257
 662 104 670 73 670 37 c 256
 670 -121 523 -214 376 -214 c 256
 238 -214 147 -149 111 -43 c 257
EndSplineSet
Refer: 439 3482 N 1 0 0 1 0 0 2
Validated: 5
EndChar

StartChar: si_KSs.halant
Encoding: 462 -1 167
GlifName: si_K_S_s.halant
Width: 1043
VWidth: 0
Flags: HW
LayerCount: 2
Fore
SplineSet
850 403 m 257
 850 664 l 257
 903 623 996 618 996 528 c 256
 996 485 962 456 920 456 c 256
 905 456 891 459 876 466 c 257
 876 400 l 257
 850 403 l 257
876 490 m 257
 885 485 895 483 908 483 c 256
 945 483 960 508 960 531 c 256
 960 572 922 592 876 622 c 257
 876 490 l 257
EndSplineSet
Refer: 172 -1 N 1 0 0 1 0 0 2
Validated: 5
EndChar

StartChar: si_KSsI
Encoding: 463 -1 168
GlifName: si_K_S_sI_
Width: 1043
VWidth: 0
Flags: HW
LayerCount: 2
Fore
SplineSet
503 506 m 256
 503 611 613 655 729 655 c 256
 845 655 956 611 956 506 c 256
 956 433 891 399 816 396 c 257
 816 416 l 257
 869 419 923 443 923 497 c 256
 923 566 816 584 729 584 c 256
 642 584 536 566 536 497 c 256
 536 443 590 419 643 416 c 257
 643 396 l 257
 568 399 503 433 503 506 c 256
EndSplineSet
Refer: 172 -1 N 1 0 0 1 0 0 2
Validated: 5
EndChar

StartChar: si_KSsIi
Encoding: 464 -1 169
GlifName: si_K_S_sI_i
Width: 1043
VWidth: 0
Flags: HW
LayerCount: 2
Fore
SplineSet
813 502 m 256
 813 472 843 447 878 447 c 256
 913 447 942 472 942 502 c 256
 942 532 913 557 878 557 c 256
 843 557 813 532 813 502 c 256
484 505 m 256
 484 609 605 655 729 655 c 256
 843 655 977 613 977 512 c 256
 977 458 933 419 878 419 c 256
 821 419 782 459 782 503 c 256
 782 547 813 568 832 577 c 257
 821 580 783 586 730 586 c 256
 638 586 521 564 521 487 c 256
 521 449 542 425 579 416 c 257
 572 396 l 257
 520 401 484 445 484 505 c 256
EndSplineSet
Refer: 172 -1 N 1 0 0 1 0 0 2
Validated: 5
EndChar

StartChar: si_KSsU
Encoding: 465 -1 170
GlifName: si_K_S_sU_
Width: 1043
VWidth: 0
Flags: HW
LayerCount: 2
Fore
SplineSet
480 -139 m 256
 480 -88 526 -49 580 -49 c 256
 621 -49 657 -72 672 -107 c 257
 643 -119 l 257
 636 -99 612 -78 580 -78 c 256
 544 -78 514 -104 514 -139 c 256
 514 -167 537 -194 601 -194 c 258
 959 -194 l 257
 959 125 l 257
 991 193 l 257
 991 -229 l 257
 584 -229 l 258
 517 -229 480 -182 480 -139 c 256
EndSplineSet
Refer: 172 -1 N 1 0 0 1 0 0 2
Validated: 5
EndChar

StartChar: si_KSsUu
Encoding: 466 -1 171
GlifName: si_K_S_sU_u
Width: 1043
VWidth: 0
Flags: HW
LayerCount: 2
Fore
SplineSet
479 -135 m 256
 479 -78 527 -39 579 -39 c 256
 620 -39 652 -54 674 -89 c 257
 645 -100 l 257
 633 -81 612 -66 584 -66 c 256
 546 -66 515 -90 515 -126 c 256
 515 -162 545 -187 587 -187 c 256
 669 -187 743 -114 836 -114 c 256
 885 -114 933 -133 959 -164 c 257
 959 148 l 257
 991 207 l 257
 991 -226 l 257
 969 -226 l 257
 949 -189 907 -142 838 -142 c 256
 749 -142 684 -231 588 -231 c 256
 534 -231 479 -201 479 -135 c 256
EndSplineSet
Refer: 172 -1 N 1 0 0 1 0 0 2
Validated: 5
EndChar

StartChar: si_KSsa
Encoding: 451 -1 172
GlifName: si_K_S_sa
Width: 1043
VWidth: 0
Flags: HW
LayerCount: 2
Fore
SplineSet
68 93 m 257
 74 96 80 98 87 98 c 256
 115 98 138 69 194 69 c 256
 244 69 274 99 274 158 c 256
 274 160 274 157 274 159 c 257
 300 159 l 257
 300 158 300 159 300 158 c 256
 300 95 326 69 383 69 c 256
 444 69 463 120 463 155 c 256
 463 236 392 284 291 284 c 256
 235 284 199 276 178 267 c 257
 161 252 142 229 126 207 c 256
 98 167 79 129 68 93 c 257
21 21 m 257
 29 88 72 180 106 227 c 256
 131 262 146 275 164 294 c 257
 176 307 188 323 188 344 c 256
 188 365 178 383 154 383 c 256
 140 383 119 375 113 354 c 256
 106 332 111 332 104 315 c 256
 97 297 82 290 67 290 c 256
 34 290 28 320 28 332 c 256
 28 385 77 423 133 423 c 256
 182 423 215 393 215 348 c 256
 215 343 215 338 214 333 c 257
 293 392 409 426 542 426 c 256
 576 426 609 423 609 423 c 257
 528 396 l 257
 528 396 517 396 512 396 c 256
 369 396 267 342 214 301 c 257
 237 307 269 309 295 309 c 256
 412 309 503 245 503 123 c 256
 503 66 471 -1 388 -1 c 256
 343 -1 310 20 289 62 c 257
 272 22 240 -1 199 -1 c 256
 114 -1 117 71 85 71 c 256
 64 71 49 50 46 11 c 257
 21 21 l 257
468 180 m 256
 468 269 534 319 639 319 c 256
 652 319 662 318 675 317 c 257
 675 321 676 324 676 328 c 256
 676 366 650 386 620 386 c 256
 589 386 577 371 572 352 c 256
 568 338 555 320 528 320 c 256
 509 320 491 332 491 356 c 256
 491 399 537 424 591 424 c 256
 661 424 705 391 705 326 c 256
 705 315 704 304 701 291 c 257
 683 293 649 295 648 295 c 256
 573 295 504 269 504 196 c 256
 504 104 625 69 736 69 c 256
 840 69 964 107 964 200 c 256
 964 271 897 297 821 297 c 256
 799 297 775 294 753 290 c 257
 751 301 750 310 750 320 c 256
 750 387 794 423 865 423 c 256
 929 423 965 384 965 346 c 256
 965 285 875 244 826 234 c 257
 845 225 858 211 858 192 c 256
 858 148 803 132 726 132 c 256
 671 132 604 145 604 193 c 256
 604 220 624 248 718 248 c 256
 740 248 786 249 816 255 c 256
 865 264 931 299 931 343 c 256
 931 371 904 396 858 396 c 256
 816 396 781 372 781 328 c 256
 781 324 781 321 782 317 c 257
 799 319 814 320 830 320 c 256
 919 320 997 286 997 182 c 256
 997 54 874 0 736 0 c 256
 591 0 468 45 468 180 c 256
634 193 m 256
 634 171 666 157 729 157 c 256
 795 157 829 171 829 192 c 256
 829 216 796 227 728 227 c 256
 665 227 634 214 634 193 c 256
EndSplineSet
Validated: 5
EndChar

StartChar: si_KU
Encoding: 92 -1 173
GlifName: si_K_U_
Width: 728
VWidth: 0
Flags: HW
LayerCount: 2
Fore
SplineSet
433 -78 m 256
 433 -29 461 8 504 21 c 257
 510 -6 l 257
 489 -14 470 -33 470 -62 c 256
 470 -105 515 -129 570 -129 c 256
 621 -129 675 -97 675 -44 c 256
 675 -41 674 -38 674 -35 c 257
 703 -35 l 257
 705 -44 705 -59 705 -68 c 256
 705 -120 661 -188 568 -188 c 256
 500 -188 433 -145 433 -78 c 256
21 21 m 257
 29 88 72 180 106 227 c 256
 131 262 146 275 164 294 c 257
 176 307 188 323 188 344 c 256
 188 365 178 383 154 383 c 256
 140 383 119 375 113 354 c 256
 106 332 111 332 104 315 c 256
 97 297 82 290 67 290 c 256
 34 290 28 320 28 332 c 256
 28 385 77 423 133 423 c 256
 182 423 215 393 215 348 c 256
 215 343 215 338 214 333 c 257
 275 392 357 424 442 424 c 256
 588 424 685 321 685 188 c 256
 685 110 641 0 552 0 c 256
 534 0 518 -3 508 -7 c 257
 500 19 l 257
 509 24 532 26 543 26 c 256
 593 26 634 72 634 149 c 256
 634 278 522 359 391 359 c 256
 320 359 260 340 214 301 c 257
 237 307 269 309 295 309 c 256
 412 309 503 245 503 123 c 256
 503 66 471 -1 388 -1 c 256
 343 -1 310 20 289 62 c 257
 272 22 240 -1 199 -1 c 256
 114 -1 117 71 85 71 c 256
 64 71 49 50 46 11 c 257
 21 21 l 257
68 93 m 257
 74 96 80 98 87 98 c 256
 115 98 138 69 194 69 c 256
 244 69 274 99 274 158 c 256
 274 160 274 157 274 159 c 257
 300 159 l 257
 300 158 300 159 300 158 c 256
 300 95 326 69 383 69 c 256
 444 69 463 120 463 155 c 256
 463 236 392 284 291 284 c 256
 235 284 199 276 178 267 c 257
 161 252 142 229 126 207 c 256
 98 167 79 129 68 93 c 257
EndSplineSet
Validated: 5
EndChar

StartChar: si_KUu
Encoding: 93 -1 175
GlifName: si_K_U_u
Width: 728
VWidth: 0
Flags: HW
LayerCount: 2
Fore
SplineSet
436 -126 m 256
 436 -91 466 -69 498 -65 c 257
 444 -38 l 257
 529 -14 l 257
 494 0 l 257
 494 21 l 257
 586 -14 l 257
 502 -42 l 257
 561 -74 l 257
 534 -81 475 -83 475 -112 c 256
 475 -142 516 -151 557 -151 c 256
 610 -151 654 -128 654 -80 c 256
 654 -75 653 -68 648 -58 c 257
 681 -58 l 257
 685 -70 685 -81 685 -92 c 256
 685 -157 635 -200 555 -200 c 256
 498 -200 436 -183 436 -126 c 256
EndSplineSet
Refer: 439 3482 N 1 0 0 1 0 0 2
Validated: 5
EndChar

StartChar: si_KV.halant
Encoding: 467 -1 176
GlifName: si_K_V_.halant
Width: 1036
VWidth: 0
Flags: HW
LayerCount: 2
Fore
SplineSet
21 21 m 257
 29 88 72 180 106 227 c 256
 131 262 146 275 164 294 c 257
 176 307 188 323 188 344 c 256
 188 365 178 383 154 383 c 256
 140 383 119 375 113 354 c 256
 106 332 111 332 104 315 c 256
 97 297 82 290 67 290 c 256
 34 290 28 320 28 332 c 256
 28 385 77 423 133 423 c 256
 182 423 215 393 215 348 c 256
 215 343 215 338 214 333 c 257
 241 352 278 375 347 396 c 256
 416 419 472 426 551 426 c 256
 573 426 630 423 666 411 c 257
 586 398 l 257
 575 399 555 399 545 399 c 256
 497 399 460 396 429 390 c 256
 348 376 287 353 214 301 c 257
 237 307 269 309 295 309 c 256
 412 309 503 245 503 123 c 256
 503 66 471 -1 388 -1 c 256
 343 -1 310 20 289 62 c 257
 272 22 240 -1 199 -1 c 256
 114 -1 117 71 85 71 c 256
 64 71 49 50 46 11 c 257
 21 21 l 257
68 93 m 257
 74 96 80 98 87 98 c 256
 115 98 138 69 194 69 c 256
 244 69 274 99 274 158 c 256
 274 160 274 157 274 159 c 257
 300 159 l 257
 300 158 300 159 300 158 c 256
 300 95 326 69 383 69 c 256
 444 69 463 120 463 155 c 256
 463 236 392 284 291 284 c 256
 235 284 199 276 178 267 c 257
 161 252 142 229 126 207 c 256
 98 167 79 129 68 93 c 257
485 161 m 256
 485 244 548 297 647 297 c 258
 707 297 l 258
 707 299 707 299 707 301 c 256
 707 354 674 386 638 386 c 256
 594 386 586 363 580 347 c 256
 573 328 564 315 543 315 c 256
 527 315 508 326 508 351 c 256
 508 395 556 422 610 422 c 256
 696 422 738 367 738 283 c 256
 738 280 738 276 738 273 c 258
 650 273 l 258
 578 273 520 239 520 176 c 256
 520 92 629 69 717 69 c 256
 861 69 955 150 955 285 c 256
 955 410 851 482 711 482 c 256
 637 482 569 465 491 441 c 257
 491 473 l 257
 522 480 572 487 572 496 c 256
 572 508 545 512 545 533 c 256
 545 569 607 614 719 614 c 256
 909 614 968 479 980 348 c 256
 985 325 988 298 988 268 c 257
 988 111 892 0 714 0 c 256
 596 0 485 45 485 161 c 256
584 530 m 256
 584 518 607 514 607 503 c 256
 607 501 607 498 605 496 c 257
 637 502 674 507 719 507 c 256
 806 507 892 475 939 412 c 257
 907 524 829 576 725 576 c 256
 655 576 584 553 584 530 c 256
EndSplineSet
Validated: 5
EndChar

StartChar: si_KVI
Encoding: 468 -1 177
GlifName: si_K_V_I_
Width: 1036
VWidth: 0
Flags: HW
LayerCount: 2
Fore
SplineSet
21 21 m 257
 29 88 72 180 106 227 c 256
 131 262 146 275 164 294 c 257
 176 307 188 323 188 344 c 256
 188 365 178 383 154 383 c 256
 140 383 119 375 113 354 c 256
 106 332 111 332 104 315 c 256
 97 297 82 290 67 290 c 256
 34 290 28 320 28 332 c 256
 28 385 77 423 133 423 c 256
 182 423 215 393 215 348 c 256
 215 343 215 338 214 333 c 257
 241 352 278 375 347 396 c 256
 416 419 472 426 551 426 c 256
 573 426 630 423 666 411 c 257
 586 398 l 257
 575 399 555 399 545 399 c 256
 497 399 460 396 429 390 c 256
 348 376 287 353 214 301 c 257
 237 307 269 309 295 309 c 256
 412 309 503 245 503 123 c 256
 503 66 471 -1 388 -1 c 256
 343 -1 310 20 289 62 c 257
 272 22 240 -1 199 -1 c 256
 114 -1 117 71 85 71 c 256
 64 71 49 50 46 11 c 257
 21 21 l 257
68 93 m 257
 74 96 80 98 87 98 c 256
 115 98 138 69 194 69 c 256
 244 69 274 99 274 158 c 256
 274 160 274 157 274 159 c 257
 300 159 l 257
 300 158 300 159 300 158 c 256
 300 95 326 69 383 69 c 256
 444 69 463 120 463 155 c 256
 463 236 392 284 291 284 c 256
 235 284 199 276 178 267 c 257
 161 252 142 229 126 207 c 256
 98 167 79 129 68 93 c 257
EndSplineSet
Refer: 397 -1 N 1 0 0 1 454 0 2
Validated: 5
EndChar

StartChar: si_KVIi
Encoding: 469 -1 178
GlifName: si_K_V_I_i
Width: 1036
VWidth: 0
Flags: HW
LayerCount: 2
Fore
SplineSet
21 21 m 257
 29 88 72 180 106 227 c 256
 131 262 146 275 164 294 c 257
 176 307 188 323 188 344 c 256
 188 365 178 383 154 383 c 256
 140 383 119 375 113 354 c 256
 106 332 111 332 104 315 c 256
 97 297 82 290 67 290 c 256
 34 290 28 320 28 332 c 256
 28 385 77 423 133 423 c 256
 182 423 215 393 215 348 c 256
 215 343 215 338 214 333 c 257
 241 352 278 375 347 396 c 256
 416 419 472 426 551 426 c 256
 573 426 630 423 666 411 c 257
 586 398 l 257
 575 399 555 399 545 399 c 256
 497 399 460 396 429 390 c 256
 348 376 287 353 214 301 c 257
 237 307 269 309 295 309 c 256
 412 309 503 245 503 123 c 256
 503 66 471 -1 388 -1 c 256
 343 -1 310 20 289 62 c 257
 272 22 240 -1 199 -1 c 256
 114 -1 117 71 85 71 c 256
 64 71 49 50 46 11 c 257
 21 21 l 257
68 93 m 257
 74 96 80 98 87 98 c 256
 115 98 138 69 194 69 c 256
 244 69 274 99 274 158 c 256
 274 160 274 157 274 159 c 257
 300 159 l 257
 300 158 300 159 300 158 c 256
 300 95 326 69 383 69 c 256
 444 69 463 120 463 155 c 256
 463 236 392 284 291 284 c 256
 235 284 199 276 178 267 c 257
 161 252 142 229 126 207 c 256
 98 167 79 129 68 93 c 257
EndSplineSet
Refer: 398 -1 N 1 0 0 1 453 0 2
Validated: 5
EndChar

StartChar: si_KVU
Encoding: 470 -1 179
GlifName: si_K_V_U_
Width: 1036
VWidth: 0
Flags: HW
LayerCount: 2
Fore
SplineSet
497 -139 m 256
 497 -88 542 -49 596 -49 c 256
 637 -49 673 -72 688 -107 c 257
 658 -119 l 257
 651 -99 628 -78 596 -78 c 256
 560 -78 529 -104 529 -139 c 256
 529 -167 552 -194 616 -194 c 258
 947 -194 l 257
 947 125 l 257
 979 214 l 257
 979 -229 l 257
 600 -229 l 258
 533 -229 497 -182 497 -139 c 256
EndSplineSet
Refer: 181 -1 N 1 0 0 1 0 0 2
Validated: 5
EndChar

StartChar: si_KVUu
Encoding: 471 -1 180
GlifName: si_K_V_U_u
Width: 1036
VWidth: 0
Flags: HW
LayerCount: 2
Fore
SplineSet
499 -135 m 256
 499 -78 547 -39 599 -39 c 256
 640 -39 671 -54 693 -89 c 257
 664 -100 l 257
 652 -81 632 -66 604 -66 c 256
 566 -66 534 -90 534 -126 c 256
 534 -162 564 -187 606 -187 c 256
 688 -187 753 -114 846 -114 c 256
 893 -114 924 -131 947 -156 c 257
 947 148 l 257
 979 207 l 257
 979 -226 l 257
 957 -226 l 257
 942 -191 913 -141 850 -141 c 256
 761 -141 703 -231 607 -231 c 256
 553 -231 499 -201 499 -135 c 256
EndSplineSet
Refer: 181 -1 N 1 0 0 1 0 0 2
Validated: 5
EndChar

StartChar: si_KVa
Encoding: 452 -1 181
GlifName: si_K_V_a
Width: 1036
VWidth: 0
Flags: HW
LayerCount: 2
Fore
SplineSet
21 21 m 257
 29 88 72 180 106 227 c 256
 131 262 146 275 164 294 c 257
 176 307 188 323 188 344 c 256
 188 365 178 383 154 383 c 256
 140 383 119 375 113 354 c 256
 106 332 111 332 104 315 c 256
 97 297 82 290 67 290 c 256
 34 290 28 320 28 332 c 256
 28 385 77 423 133 423 c 256
 182 423 215 393 215 348 c 256
 215 343 215 338 214 333 c 257
 241 352 278 375 347 396 c 256
 416 419 472 426 551 426 c 256
 573 426 630 423 666 411 c 257
 586 398 l 257
 575 399 555 399 545 399 c 256
 497 399 460 396 429 390 c 256
 348 376 287 353 214 301 c 257
 237 307 269 309 295 309 c 256
 412 309 503 245 503 123 c 256
 503 66 471 -1 388 -1 c 256
 343 -1 310 20 289 62 c 257
 272 22 240 -1 199 -1 c 256
 114 -1 117 71 85 71 c 256
 64 71 49 50 46 11 c 257
 21 21 l 257
486 161 m 256
 486 244 549 297 648 297 c 258
 708 297 l 257
 708 299 708 299 708 301 c 256
 708 354 675 386 639 386 c 256
 595 386 587 363 581 347 c 256
 574 328 566 315 545 315 c 256
 529 315 508 326 508 352 c 256
 508 394 557 422 611 422 c 256
 697 422 739 367 739 283 c 256
 739 280 739 276 739 273 c 257
 651 273 l 258
 579 273 521 239 521 176 c 256
 521 92 630 69 718 69 c 256
 867 69 956 154 956 293 c 256
 956 432 855 540 724 540 c 256
 647 540 585 513 541 459 c 257
 510 459 l 257
 558 527 628 563 724 563 c 256
 880 563 989 433 989 268 c 256
 989 112 894 0 715 0 c 256
 597 0 486 45 486 161 c 256
68 93 m 257
 74 96 80 98 87 98 c 256
 115 98 138 69 194 69 c 256
 244 69 274 99 274 158 c 256
 274 160 274 157 274 159 c 257
 300 159 l 257
 300 158 300 159 300 158 c 256
 300 95 326 69 383 69 c 256
 444 69 463 120 463 155 c 256
 463 236 392 284 291 284 c 256
 235 284 199 276 178 267 c 257
 161 252 142 229 126 207 c 256
 98 167 79 129 68 93 c 257
EndSplineSet
Validated: 5
EndChar

StartChar: si_Kh.halant
Encoding: 99 -1 183
GlifName: si_K_h.halant
Width: 615
VWidth: 0
Flags: HW
LayerCount: 2
Fore
SplineSet
136 530 m 256
 136 518 159 514 159 503 c 256
 159 501 158 498 156 496 c 257
 188 502 227 507 272 507 c 256
 377 507 458 478 515 412 c 257
 483 524 390 576 277 576 c 256
 207 576 136 553 136 530 c 256
41 432 m 257
 41 462 l 257
 72 474 123 487 123 496 c 256
 123 508 96 512 96 533 c 256
 96 569 159 614 271 614 c 256
 474 614 544 479 556 348 c 257
 562 330 568 294 568 261 c 257
 530 269 l 257
 530 394 443 482 270 482 c 256
 196 482 120 469 41 432 c 257
91 70 m 256
 91 47 110 28 133 28 c 256
 156 28 175 47 175 70 c 256
 175 93 156 112 133 112 c 256
 110 112 91 93 91 70 c 256
31 179 m 256
 31 315 121 387 234 387 c 256
 325 387 403 335 403 252 c 256
 403 196 376 149 338 112 c 257
 341 113 344 113 347 113 c 256
 375 113 378 69 421 69 c 256
 472 69 530 182 530 273 c 257
 568 266 l 257
 568 136 504 0 406 0 c 256
 344 0 339 53 313 53 c 256
 300 53 275 33 234 -21 c 257
 199 -18 l 257
 212 -5 240 33 281 82 c 256
 332 143 358 190 358 227 c 256
 358 280 320 312 230 312 c 256
 152 312 62 265 62 152 c 256
 62 140 64 116 70 99 c 257
 78 126 106 142 132 142 c 256
 177 142 205 113 205 70 c 256
 205 36 176 -1 138 -1 c 256
 55 -1 31 106 31 179 c 256
EndSplineSet
Validated: 5
EndChar

StartChar: si_KhI
Encoding: 100 -1 184
GlifName: si_K_hI_
Width: 615
VWidth: 0
Flags: HW
LayerCount: 2
Fore
SplineSet
73 549 m 256
 73 637 201 654 299 654 c 256
 432 654 539 624 539 541 c 256
 539 490 486 469 453 463 c 257
 404 479 l 257
 439 480 493 494 493 531 c 256
 493 586 404 597 299 597 c 256
 225 597 114 592 114 541 c 256
 114 496 177 496 277 492 c 256
 340 489 432 487 486 448 c 256
 534 413 569 348 569 268 c 257
 531 279 l 257
 531 326 520 375 493 404 c 256
 441 461 377 461 278 467 c 256
 191 472 73 465 73 549 c 256
91 70 m 256
 91 47 110 28 133 28 c 256
 156 28 175 47 175 70 c 256
 175 93 156 112 133 112 c 256
 110 112 91 93 91 70 c 256
31 179 m 256
 31 315 121 387 234 387 c 256
 325 387 403 335 403 252 c 256
 403 196 376 149 338 112 c 257
 341 113 344 113 347 113 c 256
 375 113 381 69 424 69 c 256
 482 69 531 183 531 284 c 257
 569 270 l 257
 569 140 511 0 406 0 c 256
 344 0 339 53 313 53 c 256
 300 53 275 33 234 -21 c 257
 199 -18 l 257
 212 -5 240 33 281 82 c 256
 332 143 358 190 358 227 c 256
 358 280 320 312 230 312 c 256
 152 312 62 265 62 152 c 256
 62 140 64 116 70 99 c 257
 78 126 106 142 132 142 c 256
 177 142 205 113 205 70 c 256
 205 36 176 -1 138 -1 c 256
 55 -1 31 106 31 179 c 256
EndSplineSet
Validated: 5
EndChar

StartChar: si_KhIi
Encoding: 101 -1 185
GlifName: si_K_hI_i
Width: 615
VWidth: 0
Flags: HW
LayerCount: 2
Fore
SplineSet
391 542 m 256
 391 513 417 489 449 489 c 256
 481 489 508 513 508 542 c 256
 508 571 481 595 449 595 c 256
 417 595 391 571 391 542 c 256
73 549 m 256
 73 637 201 654 299 654 c 256
 432 654 539 624 539 545 c 256
 539 493 492 463 449 463 c 256
 406 463 359 493 359 545 c 256
 359 569 372 586 378 594 c 257
 371 595 340 597 299 597 c 256
 225 597 114 592 114 541 c 256
 114 496 177 496 277 492 c 256
 340 489 432 487 486 448 c 256
 534 413 569 348 569 268 c 257
 531 279 l 257
 531 326 520 375 493 404 c 256
 441 461 377 461 278 467 c 256
 191 472 73 465 73 549 c 256
91 70 m 256
 91 47 110 28 133 28 c 256
 156 28 175 47 175 70 c 256
 175 93 156 112 133 112 c 256
 110 112 91 93 91 70 c 256
31 179 m 256
 31 315 121 387 234 387 c 256
 325 387 403 335 403 252 c 256
 403 196 376 149 338 112 c 257
 341 113 344 113 347 113 c 256
 375 113 381 69 424 69 c 256
 482 69 531 183 531 284 c 257
 569 270 l 257
 569 140 511 0 406 0 c 256
 344 0 339 53 313 53 c 256
 300 53 275 33 234 -21 c 257
 199 -18 l 257
 212 -5 240 33 281 82 c 256
 332 143 358 190 358 227 c 256
 358 280 320 312 230 312 c 256
 152 312 62 265 62 152 c 256
 62 140 64 116 70 99 c 257
 78 126 106 142 132 142 c 256
 177 142 205 113 205 70 c 256
 205 36 176 -1 138 -1 c 256
 55 -1 31 106 31 179 c 256
EndSplineSet
Validated: 5
EndChar

StartChar: si_KhR.halant
Encoding: 105 -1 186
GlifName: si_K_hR_.halant
Width: 615
VWidth: 0
Flags: HW
LayerCount: 2
Fore
SplineSet
136 530 m 256
 136 518 159 514 159 503 c 256
 159 501 158 498 156 496 c 257
 188 502 227 507 272 507 c 256
 377 507 458 478 515 412 c 257
 483 524 390 576 277 576 c 256
 207 576 136 553 136 530 c 256
41 432 m 257
 41 462 l 257
 72 474 123 487 123 496 c 256
 123 508 96 512 96 533 c 256
 96 569 159 614 271 614 c 256
 474 614 544 479 556 348 c 257
 562 330 568 294 568 261 c 257
 530 269 l 257
 530 277 530 272 530 276 c 256
 530 399 435 482 270 482 c 256
 196 482 120 469 41 432 c 257
91 70 m 256
 91 47 110 28 133 28 c 256
 156 28 175 47 175 70 c 256
 175 93 156 112 133 112 c 256
 110 112 91 93 91 70 c 256
31 179 m 256
 31 315 121 387 234 387 c 256
 325 387 403 335 403 252 c 256
 403 196 376 149 338 112 c 257
 341 113 344 113 347 113 c 256
 375 113 378 69 421 69 c 256
 472 69 530 182 530 273 c 257
 568 266 l 257
 568 136 504 0 406 0 c 256
 344 0 339 53 313 53 c 256
 300 53 275 33 234 -21 c 257
 199 -18 l 257
 212 -5 240 33 281 82 c 256
 332 143 358 190 358 227 c 256
 358 280 320 312 230 312 c 256
 152 312 62 265 62 152 c 256
 62 140 64 116 70 99 c 257
 78 126 106 142 132 142 c 256
 177 142 205 113 205 70 c 256
 205 36 176 -1 138 -1 c 256
 55 -1 31 106 31 179 c 256
55 -43 m 257
 81 -43 l 257
 115 -116 183 -153 286 -153 c 256
 426 -153 541 -88 541 49 c 256
 541 70 536 91 529 100 c 257
 542 130 l 257
 560 104 568 73 568 37 c 256
 568 -121 443 -214 302 -214 c 256
 172 -214 91 -149 55 -43 c 257
EndSplineSet
Validated: 5
EndChar

StartChar: si_KhRI
Encoding: 106 -1 187
GlifName: si_K_hR_I_
Width: 615
VWidth: 0
Flags: HW
LayerCount: 2
Fore
SplineSet
55 -43 m 257
 81 -43 l 257
 115 -116 183 -153 286 -153 c 256
 426 -153 541 -88 541 49 c 256
 541 70 536 91 529 100 c 257
 542 130 l 257
 560 104 568 73 568 37 c 256
 568 -121 443 -214 302 -214 c 256
 172 -214 91 -149 55 -43 c 257
73 549 m 256
 73 637 201 654 299 654 c 256
 432 654 539 624 539 541 c 256
 539 490 486 469 453 463 c 257
 404 479 l 257
 439 480 493 494 493 531 c 256
 493 586 404 597 299 597 c 256
 225 597 114 592 114 541 c 256
 114 496 177 496 277 492 c 256
 340 489 432 487 486 448 c 256
 534 413 569 348 569 268 c 257
 531 279 l 257
 531 326 520 375 493 404 c 256
 441 461 377 461 278 467 c 256
 191 472 73 465 73 549 c 256
91 70 m 256
 91 47 110 28 133 28 c 256
 156 28 175 47 175 70 c 256
 175 93 156 112 133 112 c 256
 110 112 91 93 91 70 c 256
31 179 m 256
 31 315 121 387 234 387 c 256
 325 387 403 335 403 252 c 256
 403 196 376 149 338 112 c 257
 341 113 344 113 347 113 c 256
 375 113 381 69 424 69 c 256
 482 69 531 183 531 284 c 257
 569 270 l 257
 569 140 511 0 406 0 c 256
 344 0 339 53 313 53 c 256
 300 53 275 33 234 -21 c 257
 199 -18 l 257
 212 -5 240 33 281 82 c 256
 332 143 358 190 358 227 c 256
 358 280 320 312 230 312 c 256
 152 312 62 265 62 152 c 256
 62 140 64 116 70 99 c 257
 78 126 106 142 132 142 c 256
 177 142 205 113 205 70 c 256
 205 36 176 -1 138 -1 c 256
 55 -1 31 106 31 179 c 256
EndSplineSet
Validated: 5
EndChar

StartChar: si_KhRIi
Encoding: 107 -1 188
GlifName: si_K_hR_I_i
Width: 615
VWidth: 0
Flags: HW
LayerCount: 2
Fore
SplineSet
391 542 m 256
 391 513 417 489 449 489 c 256
 481 489 508 513 508 542 c 256
 508 571 481 595 449 595 c 256
 417 595 391 571 391 542 c 256
73 549 m 256
 73 637 201 654 299 654 c 256
 432 654 539 624 539 545 c 256
 539 493 492 463 449 463 c 256
 406 463 359 493 359 545 c 256
 359 569 372 586 378 594 c 257
 371 595 340 597 299 597 c 256
 225 597 114 592 114 541 c 256
 114 496 177 496 277 492 c 256
 340 489 432 487 486 448 c 256
 534 413 569 348 569 268 c 257
 531 279 l 257
 531 326 520 375 493 404 c 256
 441 461 377 461 278 467 c 256
 191 472 73 465 73 549 c 256
91 70 m 256
 91 47 110 28 133 28 c 256
 156 28 175 47 175 70 c 256
 175 93 156 112 133 112 c 256
 110 112 91 93 91 70 c 256
31 179 m 256
 31 315 121 387 234 387 c 256
 325 387 403 335 403 252 c 256
 403 196 376 149 338 112 c 257
 341 113 344 113 347 113 c 256
 375 113 381 69 424 69 c 256
 482 69 531 183 531 284 c 257
 569 270 l 257
 569 140 511 0 406 0 c 256
 344 0 339 53 313 53 c 256
 300 53 275 33 234 -21 c 257
 199 -18 l 257
 212 -5 240 33 281 82 c 256
 332 143 358 190 358 227 c 256
 358 280 320 312 230 312 c 256
 152 312 62 265 62 152 c 256
 62 140 64 116 70 99 c 257
 78 126 106 142 132 142 c 256
 177 142 205 113 205 70 c 256
 205 36 176 -1 138 -1 c 256
 55 -1 31 106 31 179 c 256
55 -43 m 257
 81 -43 l 257
 115 -116 183 -153 286 -153 c 256
 426 -153 541 -88 541 49 c 256
 541 70 536 91 529 100 c 257
 542 130 l 257
 560 104 568 73 568 37 c 256
 568 -121 443 -214 302 -214 c 256
 172 -214 91 -149 55 -43 c 257
EndSplineSet
Validated: 5
EndChar

StartChar: si_KhRa
Encoding: 104 -1 189
GlifName: si_K_hR_a
Width: 615
VWidth: 0
Flags: HW
LayerCount: 2
Fore
SplineSet
55 -43 m 257
 81 -43 l 257
 115 -116 183 -153 286 -153 c 256
 426 -153 541 -88 541 49 c 256
 541 70 536 91 529 100 c 257
 542 130 l 257
 560 104 568 73 568 37 c 256
 568 -121 443 -214 302 -214 c 256
 172 -214 91 -149 55 -43 c 257
EndSplineSet
Refer: 440 3483 N 1 0 0 1 0 0 2
Validated: 5
EndChar

StartChar: si_KhU
Encoding: 102 -1 190
GlifName: si_K_hU_
Width: 615
VWidth: 0
Flags: HW
LayerCount: 2
Fore
SplineSet
51 -139 m 256
 51 -88 95 -49 149 -49 c 256
 190 -49 226 -72 241 -107 c 257
 212 -119 l 257
 205 -99 181 -78 149 -78 c 256
 113 -78 83 -104 83 -139 c 256
 83 -167 106 -194 170 -194 c 258
 529 -194 l 257
 529 125 l 257
 562 214 l 257
 562 -229 l 257
 153 -229 l 258
 86 -229 51 -182 51 -139 c 256
EndSplineSet
Refer: 440 3483 N 1 0 0 1 0 0 2
Validated: 5
EndChar

StartChar: si_KhUu
Encoding: 103 -1 191
GlifName: si_K_hU_u
Width: 615
VWidth: 0
Flags: HW
LayerCount: 2
Fore
SplineSet
50 -135 m 256
 50 -78 97 -39 149 -39 c 256
 190 -39 222 -54 244 -89 c 257
 215 -100 l 257
 203 -81 182 -66 154 -66 c 256
 116 -66 85 -90 85 -126 c 256
 85 -162 115 -187 157 -187 c 256
 239 -187 320 -114 413 -114 c 256
 455 -114 503 -133 529 -164 c 257
 529 148 l 257
 562 207 l 257
 562 -226 l 257
 539 -226 l 257
 524 -191 482 -141 416 -141 c 256
 327 -141 254 -231 158 -231 c 256
 104 -231 50 -201 50 -135 c 256
EndSplineSet
Refer: 440 3483 N 1 0 0 1 0 0 2
Validated: 5
EndChar

StartChar: si_L.halant
Encoding: 381 -1 192
GlifName: si_L_.halant
Width: 654
VWidth: 0
Flags: HW
LayerCount: 2
Fore
SplineSet
461 403 m 257
 461 664 l 257
 514 623 607 618 607 528 c 256
 607 485 573 456 531 456 c 256
 516 456 502 459 487 466 c 257
 487 400 l 257
 461 403 l 257
487 490 m 257
 496 485 507 483 520 483 c 256
 557 483 571 508 571 531 c 256
 571 572 533 592 487 622 c 257
 487 490 l 257
EndSplineSet
Refer: 472 3517 N 1 0 0 1 0 0 2
Validated: 5
EndChar

StartChar: si_LI
Encoding: 382 -1 193
GlifName: si_L_I_
Width: 654
VWidth: 0
Flags: HW
LayerCount: 2
Fore
SplineSet
118 506 m 256
 118 611 229 655 345 655 c 256
 461 655 571 611 571 506 c 256
 571 433 507 399 432 396 c 257
 428 416 l 257
 481 419 538 443 538 497 c 256
 538 566 432 584 345 584 c 256
 258 584 151 566 151 497 c 256
 151 446 203 416 282 416 c 256
 289 416 287 416 294 416 c 257
 258 396 l 257
 183 399 118 433 118 506 c 256
EndSplineSet
Refer: 472 3517 N 1 0 0 1 0 0 2
Validated: 5
EndChar

StartChar: si_LIi
Encoding: 383 -1 194
GlifName: si_L_I_i
Width: 654
VWidth: 0
Flags: HW
LayerCount: 2
Fore
SplineSet
415 502 m 256
 415 472 444 447 479 447 c 256
 514 447 544 472 544 502 c 256
 544 532 514 557 479 557 c 256
 444 557 415 532 415 502 c 256
97 505 m 256
 97 611 210 655 334 655 c 256
 448 655 578 613 578 512 c 256
 578 458 534 419 479 419 c 256
 422 419 384 459 384 503 c 256
 384 547 415 568 434 577 c 257
 423 580 389 586 336 586 c 256
 244 586 137 565 137 488 c 256
 137 434 205 415 268 415 c 256
 277 415 303 417 312 418 c 257
 229 395 l 257
 166 395 97 436 97 505 c 256
EndSplineSet
Refer: 472 3517 N 1 0 0 1 0 0 2
Validated: 5
EndChar

StartChar: si_LU
Encoding: 384 -1 195
GlifName: si_L_U_
Width: 654
VWidth: 0
Flags: HW
LayerCount: 2
Fore
SplineSet
30 182 m 256
 30 334 165 422 355 422 c 256
 476 422 597 383 597 273 c 256
 597 205 540 167 474 167 c 256
 408 167 359 207 359 275 c 257
 259 275 l 257
 259 301 l 257
 506 301 l 257
 506 275 l 257
 387 275 l 257
 387 274 387 272 387 271 c 256
 387 236 428 211 475 211 c 256
 529 211 562 239 562 287 c 256
 562 364 477 395 361 395 c 256
 215 395 106 311 106 189 c 256
 106 68 217 -23 357 -23 c 256
 495 -23 561 72 562 123 c 257
 589 139 l 257
 589 26 483 -57 337 -57 c 256
 178 -57 30 36 30 182 c 256
35 -139 m 256
 35 -88 80 -49 134 -49 c 256
 175 -49 211 -72 226 -107 c 257
 196 -119 l 257
 189 -99 166 -78 134 -78 c 256
 98 -78 67 -104 67 -139 c 256
 67 -167 90 -194 154 -194 c 258
 557 -194 l 257
 557 46 l 257
 589 135 l 257
 589 -229 l 257
 138 -229 l 258
 71 -229 35 -182 35 -139 c 256
EndSplineSet
Validated: 5
EndChar

StartChar: si_LUu
Encoding: 385 -1 196
GlifName: si_L_U_u
Width: 654
VWidth: 0
Flags: HW
LayerCount: 2
Fore
SplineSet
41 -135 m 256
 41 -78 89 -39 141 -39 c 256
 182 -39 212 -54 234 -89 c 257
 205 -100 l 257
 193 -81 173 -66 145 -66 c 256
 107 -66 76 -90 76 -126 c 256
 76 -164 109 -187 155 -187 c 256
 243 -187 322 -114 432 -114 c 256
 486 -114 531 -134 557 -163 c 257
 557 82 l 257
 589 138 l 257
 589 -226 l 257
 566 -226 l 257
 551 -191 508 -141 436 -141 c 256
 333 -141 251 -231 156 -231 c 256
 102 -231 41 -201 41 -135 c 256
30 182 m 256
 30 334 165 422 355 422 c 256
 476 422 597 383 597 273 c 256
 597 205 540 167 474 167 c 256
 408 167 359 207 359 275 c 257
 259 275 l 257
 259 301 l 257
 506 301 l 257
 506 275 l 257
 387 275 l 257
 387 274 387 272 387 271 c 256
 387 236 428 211 475 211 c 256
 529 211 562 239 562 287 c 256
 562 364 477 395 361 395 c 256
 215 395 106 311 106 189 c 256
 106 68 217 -23 357 -23 c 256
 495 -23 561 72 562 123 c 257
 589 139 l 257
 589 26 483 -57 337 -57 c 256
 178 -57 30 36 30 182 c 256
EndSplineSet
Validated: 5
EndChar

StartChar: si_Ll.halant
Encoding: 436 -1 197
GlifName: si_L_l.halant
Width: 621
VWidth: 0
Flags: HW
LayerCount: 2
Fore
SplineSet
428 403 m 257
 428 664 l 257
 481 623 574 618 574 528 c 256
 574 485 540 456 498 456 c 256
 483 456 468 459 453 466 c 257
 453 400 l 257
 428 403 l 257
453 490 m 257
 462 485 473 483 486 483 c 256
 523 483 537 508 537 531 c 256
 537 572 499 592 453 622 c 257
 453 490 l 257
EndSplineSet
Refer: 478 3525 N 1 0 0 1 0 0 2
Validated: 5
EndChar

StartChar: si_LlI
Encoding: 437 -1 198
GlifName: si_L_lI_
Width: 621
VWidth: 0
Flags: HW
LayerCount: 2
Fore
SplineSet
100 506 m 256
 100 611 210 655 326 655 c 256
 442 655 553 611 553 506 c 256
 553 433 489 399 414 396 c 257
 414 416 l 257
 467 419 520 443 520 497 c 256
 520 566 413 584 326 584 c 256
 239 584 133 566 133 497 c 256
 133 446 182 415 261 415 c 256
 268 415 266 416 273 416 c 257
 240 396 l 257
 165 399 100 433 100 506 c 256
EndSplineSet
Refer: 478 3525 N 1 0 0 1 0 0 2
Validated: 5
EndChar

StartChar: si_LlIi
Encoding: 438 -1 199
GlifName: si_L_lI_i
Width: 621
VWidth: 0
Flags: HW
LayerCount: 2
Fore
SplineSet
403 502 m 256
 403 472 433 447 468 447 c 256
 503 447 532 472 532 502 c 256
 532 532 503 557 468 557 c 256
 433 557 403 532 403 502 c 256
85 505 m 256
 85 611 198 655 322 655 c 256
 436 655 566 613 566 512 c 256
 566 458 523 419 468 419 c 256
 411 419 372 459 372 503 c 256
 372 547 403 568 422 577 c 257
 411 580 377 586 324 586 c 256
 232 586 125 565 125 488 c 256
 125 434 193 415 256 415 c 256
 265 415 267 417 276 418 c 257
 218 395 l 257
 155 395 85 436 85 505 c 256
EndSplineSet
Refer: 478 3525 N 1 0 0 1 0 0 2
Validated: 5
EndChar

StartChar: si_LlU
Encoding: 439 -1 200
GlifName: si_L_lU_
Width: 646
VWidth: 0
Flags: HW
LayerCount: 2
Fore
SplineSet
111 161 m 256
 111 263 193 302 303 302 c 258
 322 302 l 257
 322 304 323 306 323 308 c 256
 323 350 294 386 258 386 c 256
 220 386 209 363 203 347 c 256
 196 328 187 315 166 315 c 256
 150 315 131 326 131 351 c 256
 131 397 178 422 232 422 c 256
 318 422 354 355 354 290 c 256
 354 287 354 280 354 277 c 257
 295 277 l 258
 204 277 148 240 148 176 c 256
 148 92 252 69 340 69 c 256
 489 69 568 145 568 261 c 256
 568 317 551 367 527 402 c 257
 512 370 483 351 441 351 c 256
 379 351 344 405 344 469 c 256
 344 518 359 553 385 583 c 257
 445 551 514 481 549 420 c 256
 587 355 600 307 600 239 c 256
 600 114 517 0 338 0 c 256
 220 0 111 45 111 161 c 256
373 473 m 256
 373 425 393 386 449 386 c 256
 472 386 500 397 510 430 c 257
 481 475 432 520 395 547 c 257
 383 529 373 507 373 473 c 256
26 242 m 256
 26 371 122 422 224 422 c 256
 232 422 251 421 270 416 c 257
 258 414 235 397 220 396 c 257
 203 395 188 395 168 390 c 256
 100 371 55 330 55 240 c 256
 55 161 102 91 174 72 c 257
 174 43 l 257
 84 66 26 143 26 242 c 256
EndSplineSet
Validated: 5
EndChar

StartChar: si_LlUu
Encoding: 440 -1 201
GlifName: si_L_lU_u
Width: 907
VWidth: 0
Flags: HW
LayerCount: 2
Fore
SplineSet
579 308 m 257
 579 331 l 257
 824 331 l 257
 824 310 l 257
 700 218 l 257
 847 218 l 257
 847 196 l 257
 802 164 736 94 736 13 c 256
 736 -72 793 -104 880 -104 c 257
 880 -128 l 257
 856 -139 829 -145 805 -145 c 256
 716 -145 669 -89 669 -12 c 256
 669 76 748 151 811 194 c 257
 651 194 l 257
 651 213 l 257
 781 308 l 257
 579 308 l 257
EndSplineSet
Refer: 200 -1 N 1 0 0 1 0 0 2
Validated: 5
EndChar

StartChar: si_M.halant
Encoding: 346 -1 202
GlifName: si_M_.halant
Width: 620
VWidth: 0
Flags: HW
LayerCount: 2
Fore
SplineSet
139 530 m 256
 139 518 162 514 162 503 c 256
 162 501 161 498 159 496 c 257
 191 502 230 507 275 507 c 256
 380 507 461 478 518 412 c 257
 486 524 393 576 280 576 c 256
 210 576 139 553 139 530 c 256
44 432 m 257
 44 462 l 257
 75 474 126 487 126 496 c 256
 126 508 99 512 99 533 c 256
 99 569 162 614 274 614 c 256
 477 614 547 479 559 348 c 257
 565 330 571 299 571 261 c 257
 533 268 l 257
 533 271 534 265 534 276 c 256
 534 399 437 482 272 482 c 256
 198 482 123 469 44 432 c 257
258 344 m 256
 258 318 280 296 306 296 c 256
 332 296 354 318 354 344 c 256
 354 370 332 392 306 392 c 256
 280 392 258 370 258 344 c 256
32 244 m 256
 32 331 77 422 152 422 c 256
 200 422 204 388 204 364 c 256
 204 338 199 330 199 295 c 256
 199 241 239 213 293 213 c 256
 352 213 392 249 392 307 c 256
 392 334 383 350 378 357 c 257
 380 347 380 343 380 335 c 256
 380 299 353 265 306 265 c 256
 256 265 228 308 228 343 c 256
 228 388 264 422 311 422 c 256
 378 422 421 373 421 299 c 256
 421 232 366 182 295 182 c 256
 236 182 169 211 169 288 c 256
 169 326 176 340 176 370 c 256
 176 382 171 396 150 396 c 256
 103 396 66 338 66 261 c 256
 66 131 169 69 301 69 c 256
 440 69 533 167 533 271 c 257
 543 268 559 268 571 266 c 257
 571 110 464 0 303 0 c 256
 140 0 32 92 32 244 c 256
EndSplineSet
Validated: 5
EndChar

StartChar: si_MI
Encoding: 347 -1 203
GlifName: si_M_I_
Width: 620
VWidth: 0
Flags: HW
LayerCount: 2
Fore
SplineSet
66 549 m 256
 66 637 198 654 296 654 c 256
 429 654 541 624 541 541 c 256
 541 490 488 469 455 463 c 257
 406 479 l 257
 441 480 494 494 494 531 c 256
 494 586 401 597 296 597 c 256
 222 597 107 592 107 541 c 256
 107 496 174 496 274 492 c 256
 337 489 434 487 488 448 c 256
 536 413 570 348 570 268 c 257
 533 289 l 257
 533 331 521 375 494 404 c 256
 440 462 374 462 275 467 c 256
 188 472 66 465 66 549 c 256
258 344 m 256
 258 318 280 296 306 296 c 256
 332 296 354 318 354 344 c 256
 354 370 332 392 306 392 c 256
 280 392 258 370 258 344 c 256
32 244 m 256
 32 331 77 422 152 422 c 256
 200 422 204 388 204 364 c 256
 204 338 199 330 199 295 c 256
 199 241 239 213 293 213 c 256
 352 213 392 249 392 307 c 256
 392 334 383 350 378 357 c 257
 380 347 380 343 380 335 c 256
 380 299 353 265 306 265 c 256
 256 265 228 308 228 343 c 256
 228 388 264 422 311 422 c 256
 378 422 421 373 421 299 c 256
 421 232 366 182 295 182 c 256
 236 182 169 211 169 288 c 256
 169 326 176 340 176 370 c 256
 176 382 171 396 150 396 c 256
 103 396 66 338 66 261 c 256
 66 131 169 69 301 69 c 256
 440 69 533 167 533 291 c 257
 543 288 558 273 570 271 c 257
 570 109 464 0 303 0 c 256
 140 0 32 92 32 244 c 256
EndSplineSet
Validated: 5
EndChar

StartChar: si_MIi
Encoding: 348 -1 204
GlifName: si_M_I_i
Width: 620
VWidth: 0
Flags: HW
LayerCount: 2
Fore
SplineSet
393 542 m 256
 393 513 419 489 451 489 c 256
 483 489 511 513 511 542 c 256
 511 571 483 595 451 595 c 256
 419 595 393 571 393 542 c 256
65 549 m 256
 65 637 197 654 295 654 c 256
 428 654 541 628 541 545 c 256
 541 493 494 463 451 463 c 256
 408 463 361 493 361 545 c 256
 361 569 374 586 380 594 c 257
 373 595 336 597 295 597 c 256
 221 597 106 592 106 541 c 256
 106 496 173 496 273 492 c 256
 336 489 413 487 473 458 c 256
 533 429 570 351 570 267 c 257
 533 294 l 257
 533 334 522 375 495 404 c 256
 443 461 374 461 275 467 c 256
 188 472 65 465 65 549 c 256
258 344 m 256
 258 318 280 296 306 296 c 256
 332 296 354 318 354 344 c 256
 354 370 332 392 306 392 c 256
 280 392 258 370 258 344 c 256
32 244 m 256
 32 331 77 422 152 422 c 256
 200 422 204 388 204 364 c 256
 204 338 199 330 199 295 c 256
 199 241 239 213 293 213 c 256
 352 213 392 249 392 307 c 256
 392 334 383 350 378 357 c 257
 380 347 380 343 380 335 c 256
 380 299 353 265 306 265 c 256
 256 265 228 308 228 343 c 256
 228 388 264 422 311 422 c 256
 378 422 421 373 421 299 c 256
 421 232 366 182 295 182 c 256
 236 182 169 211 169 288 c 256
 169 326 176 340 176 370 c 256
 176 382 171 396 150 396 c 256
 103 396 66 338 66 261 c 256
 66 131 169 69 301 69 c 256
 440 69 533 166 533 297 c 257
 543 294 558 273 570 271 c 257
 570 109 464 0 303 0 c 256
 140 0 32 92 32 244 c 256
EndSplineSet
Validated: 5
EndChar

StartChar: si_MRI
Encoding: 354 -1 205
GlifName: si_M_R_I_
Width: 620
VWidth: 0
Flags: HW
LayerCount: 2
Fore
SplineSet
66 549 m 256
 66 637 198 654 296 654 c 256
 429 654 541 624 541 541 c 256
 541 490 488 469 455 463 c 257
 406 479 l 257
 441 480 494 494 494 531 c 256
 494 586 401 597 296 597 c 256
 222 597 107 592 107 541 c 256
 107 496 174 496 274 492 c 256
 337 489 434 487 488 448 c 256
 536 413 570 348 570 268 c 257
 533 289 l 257
 533 331 521 375 494 404 c 256
 440 462 374 462 275 467 c 256
 188 472 66 465 66 549 c 256
258 344 m 256
 258 318 280 296 306 296 c 256
 332 296 354 318 354 344 c 256
 354 370 332 392 306 392 c 256
 280 392 258 370 258 344 c 256
32 244 m 256
 32 331 77 422 152 422 c 256
 200 422 204 388 204 364 c 256
 204 338 199 330 199 295 c 256
 199 241 239 213 293 213 c 256
 352 213 392 249 392 307 c 256
 392 334 383 350 378 357 c 257
 380 347 380 343 380 335 c 256
 380 299 353 265 306 265 c 256
 256 265 228 308 228 343 c 256
 228 388 264 422 311 422 c 256
 378 422 421 373 421 299 c 256
 421 232 366 182 295 182 c 256
 236 182 169 211 169 288 c 256
 169 326 176 340 176 370 c 256
 176 382 171 396 150 396 c 256
 103 396 66 338 66 261 c 256
 66 131 169 69 301 69 c 256
 440 69 533 167 533 291 c 257
 543 288 558 273 570 271 c 257
 570 109 464 0 303 0 c 256
 140 0 32 92 32 244 c 256
55 -43 m 257
 81 -43 l 257
 115 -116 183 -153 286 -153 c 256
 426 -153 539 -87 539 47 c 256
 539 71 533 98 521 107 c 257
 537 137 l 257
 557 111 568 73 568 37 c 256
 568 -121 443 -214 302 -214 c 256
 172 -214 91 -149 55 -43 c 257
EndSplineSet
Validated: 5
EndChar

StartChar: si_MRIi
Encoding: 355 -1 206
GlifName: si_M_R_I_i
Width: 620
VWidth: 0
Flags: HW
LayerCount: 2
Fore
SplineSet
393 542 m 256
 393 513 419 489 451 489 c 256
 483 489 511 513 511 542 c 256
 511 571 483 595 451 595 c 256
 419 595 393 571 393 542 c 256
65 549 m 256
 65 637 197 654 295 654 c 256
 428 654 541 628 541 545 c 256
 541 493 494 463 451 463 c 256
 408 463 361 493 361 545 c 256
 361 569 374 586 380 594 c 257
 373 595 336 597 295 597 c 256
 221 597 106 592 106 541 c 256
 106 496 173 496 273 492 c 256
 336 489 413 487 473 458 c 256
 533 429 570 351 570 267 c 257
 533 294 l 257
 533 334 522 375 495 404 c 256
 443 461 374 461 275 467 c 256
 188 472 65 465 65 549 c 256
258 344 m 256
 258 318 280 296 306 296 c 256
 332 296 354 318 354 344 c 256
 354 370 332 392 306 392 c 256
 280 392 258 370 258 344 c 256
32 244 m 256
 32 331 77 422 152 422 c 256
 200 422 204 388 204 364 c 256
 204 338 199 330 199 295 c 256
 199 241 239 213 293 213 c 256
 352 213 392 249 392 307 c 256
 392 334 383 350 378 357 c 257
 380 347 380 343 380 335 c 256
 380 299 353 265 306 265 c 256
 256 265 228 308 228 343 c 256
 228 388 264 422 311 422 c 256
 378 422 421 373 421 299 c 256
 421 232 366 182 295 182 c 256
 236 182 169 211 169 288 c 256
 169 326 176 340 176 370 c 256
 176 382 171 396 150 396 c 256
 103 396 66 338 66 261 c 256
 66 131 169 69 301 69 c 256
 440 69 533 166 533 297 c 257
 543 294 558 273 570 271 c 257
 570 109 464 0 303 0 c 256
 140 0 32 92 32 244 c 256
55 -43 m 257
 81 -43 l 257
 115 -116 183 -153 286 -153 c 256
 426 -153 539 -87 539 47 c 256
 539 71 533 98 521 107 c 257
 537 137 l 257
 557 111 568 73 568 37 c 256
 568 -121 443 -214 302 -214 c 256
 172 -214 91 -149 55 -43 c 257
EndSplineSet
Validated: 5
EndChar

StartChar: si_MRa
Encoding: 353 -1 207
GlifName: si_M_R_a
Width: 620
VWidth: 0
Flags: HW
LayerCount: 2
Fore
SplineSet
55 -43 m 261
 81 -43 l 261
 115 -116 183 -153 286 -153 c 260
 426 -153 539 -87 539 47 c 260
 539 71 533 98 521 107 c 261
 537 137 l 261
 557 111 568 73 568 37 c 260
 568 -121 443 -214 302 -214 c 260
 172 -214 91 -149 55 -43 c 261
EndSplineSet
Refer: 468 3512 N 1 0 0 1 0 0 2
Validated: 5
EndChar

StartChar: si_MU
Encoding: 349 -1 208
GlifName: si_M_U_
Width: 620
VWidth: 0
Flags: HW
LayerCount: 2
Fore
SplineSet
51 -139 m 256
 51 -88 95 -49 149 -49 c 256
 190 -49 226 -72 241 -107 c 257
 212 -119 l 257
 205 -99 181 -78 149 -78 c 256
 113 -78 83 -104 83 -139 c 256
 83 -167 106 -194 170 -194 c 258
 529 -194 l 257
 529 125 l 257
 562 214 l 257
 562 -229 l 257
 153 -229 l 258
 86 -229 51 -182 51 -139 c 256
EndSplineSet
Refer: 468 3512 N 1 0 0 1 0 0 2
Validated: 5
EndChar

StartChar: si_MUu
Encoding: 350 -1 209
GlifName: si_M_U_u
Width: 620
VWidth: 0
Flags: HW
LayerCount: 2
Fore
SplineSet
50 -135 m 256
 50 -78 97 -39 149 -39 c 256
 190 -39 222 -54 244 -89 c 257
 215 -100 l 257
 203 -81 182 -66 154 -66 c 256
 116 -66 85 -90 85 -126 c 256
 85 -162 115 -187 157 -187 c 256
 239 -187 320 -114 413 -114 c 256
 455 -114 503 -133 529 -164 c 257
 529 148 l 257
 562 207 l 257
 562 -226 l 257
 539 -226 l 257
 524 -191 482 -141 416 -141 c 256
 327 -141 254 -231 158 -231 c 256
 104 -231 50 -201 50 -135 c 256
EndSplineSet
Refer: 468 3512 N 1 0 0 1 0 0 2
Validated: 5
EndChar

StartChar: si_Ma.reph
Encoding: 351 -1 210
GlifName: si_M_a.reph
Width: 620
VWidth: 0
Flags: HW
AnchorPoint: "cursive" 47 0 entry 0
LayerCount: 2
Fore
SplineSet
268 613 m 256
 268 592 286 577 307 577 c 256
 328 577 347 592 347 613 c 256
 347 634 328 649 307 649 c 256
 286 649 268 634 268 613 c 256
168 632 m 256
 168 694 225 730 305 730 c 256
 380 730 441 688 441 619 c 256
 441 596 435 575 418 556 c 257
 385 556 l 257
 398 568 412 592 412 618 c 256
 412 674 363 704 303 704 c 256
 251 704 198 684 198 632 c 256
 198 594 239 575 261 573 c 257
 253 579 240 593 240 614 c 256
 240 648 272 673 307 673 c 256
 347 673 373 646 373 612 c 256
 373 574 340 549 283 549 c 256
 225 549 168 577 168 632 c 256
EndSplineSet
Refer: 468 3512 N 1 0 0 1 0 0 2
Validated: 5
EndChar

StartChar: si_MatraU.alt
Encoding: 85 -1 212
GlifName: si_M_atraU_.alt
Width: 1
VWidth: 0
Flags: HW
LayerCount: 2
Fore
SplineSet
-307 -78 m 256
 -307 -29 -278 5 -239 21 c 257
 -230 1 l 257
 -252 -12 -270 -34 -270 -62 c 256
 -270 -107 -220 -129 -170 -129 c 256
 -110 -129 -66 -92 -66 -44 c 256
 -66 -41 -66 -38 -66 -35 c 257
 -36 -35 l 257
 -34 -44 -34 -59 -34 -68 c 256
 -34 -120 -76 -188 -175 -188 c 256
 -241 -188 -307 -145 -307 -78 c 256
EndSplineSet
Validated: 1
EndChar

StartChar: si_MatraUu.alt
Encoding: 86 -1 213
GlifName: si_M_atraU_u.alt
Width: 728
VWidth: 0
Flags: HW
LayerCount: 2
Fore
SplineSet
-287 -126 m 256
 -287 -91 -257 -69 -225 -65 c 257
 -278 -38 l 257
 -193 -14 l 257
 -229 0 l 257
 -229 21 l 257
 -137 -14 l 257
 -221 -42 l 257
 -162 -74 l 257
 -189 -81 -248 -83 -248 -112 c 256
 -248 -142 -207 -151 -166 -151 c 256
 -113 -151 -68 -128 -68 -80 c 256
 -68 -75 -69 -68 -74 -58 c 257
 -42 -58 l 257
 -38 -70 -38 -81 -38 -92 c 256
 -38 -157 -88 -200 -168 -200 c 256
 -225 -200 -287 -183 -287 -126 c 256
EndSplineSet
Validated: 1
EndChar

StartChar: si_Mb.halant
Encoding: 356 -1 214
GlifName: si_M_b.halant
Width: 621
VWidth: 0
Flags: HW
LayerCount: 2
Fore
SplineSet
29 222 m 256
 29 325 73 422 145 422 c 256
 164 422 169 418 176 413 c 256
 187 405 194 391 194 362 c 256
 194 348 194 332 194 329 c 256
 194 277 234 247 288 247 c 256
 340 247 380 274 380 318 c 256
 380 319 380 321 379 323 c 257
 373 310 351 282 311 282 c 256
 265 282 239 317 239 352 c 256
 239 393 270 424 314 424 c 256
 372 424 408 380 408 322 c 256
 408 261 358 219 289 219 c 256
 220 219 168 261 168 331 c 256
 168 336 168 354 168 363 c 256
 168 375 166 385 160 391 c 256
 156 395 151 396 142 396 c 256
 92 396 60 319 60 248 c 256
 60 155 106 70 187 70 c 256
 208 70 216 74 220 77 c 257
 218 85 217 98 217 105 c 256
 217 175 271 195 303 195 c 256
 335 195 389 175 389 105 c 256
 389 98 388 85 386 77 c 257
 390 74 398 70 419 70 c 256
 481 70 540 167 540 266 c 256
 540 294 535 321 526 344 c 256
 492 432 399 481 275 481 c 256
 201 481 120 469 41 432 c 257
 41 462 l 257
 72 474 123 487 123 496 c 256
 123 508 96 512 96 533 c 256
 96 569 159 614 271 614 c 256
 494 614 553 409 559 348 c 257
 570 323 576 287 576 243 c 256
 576 125 517 0 404 0 c 256
 381 0 363 4 342 17 c 257
 342 31 346 42 350 54 c 256
 355 70 360 84 360 105 c 256
 360 138 337 167 303 167 c 256
 269 167 245 138 245 105 c 256
 245 84 251 70 256 55 c 256
 260 42 264 31 264 17 c 257
 243 4 224 0 201 0 c 256
 86 0 29 115 29 222 c 256
136 530 m 256
 136 518 159 514 159 503 c 256
 159 501 158 498 156 496 c 257
 188 502 227 507 272 507 c 256
 377 507 461 478 518 412 c 257
 486 524 390 576 277 576 c 256
 207 576 136 553 136 530 c 256
268 354 m 256
 268 329 288 309 313 309 c 256
 338 309 359 329 359 354 c 256
 359 379 338 400 313 400 c 256
 288 400 268 379 268 354 c 256
EndSplineSet
Validated: 1
EndChar

StartChar: si_MbI
Encoding: 357 -1 215
GlifName: si_M_bI_
Width: 621
VWidth: 0
Flags: HW
LayerCount: 2
Fore
SplineSet
70 549 m 256
 70 637 203 654 301 654 c 256
 434 654 545 624 545 541 c 256
 545 490 492 469 459 463 c 257
 410 479 l 257
 445 480 499 494 499 531 c 256
 499 586 406 597 301 597 c 256
 227 597 111 592 111 541 c 256
 111 496 179 496 279 492 c 256
 342 489 433 489 492 448 c 256
 541 414 576 347 576 251 c 257
 541 277 l 257
 541 326 526 375 499 404 c 256
 445 462 378 462 279 467 c 256
 192 472 70 465 70 549 c 256
268 354 m 256
 268 329 288 309 313 309 c 256
 338 309 359 329 359 354 c 256
 359 379 338 400 313 400 c 256
 288 400 268 379 268 354 c 256
29 222 m 256
 29 325 73 422 145 422 c 256
 164 422 169 418 176 413 c 256
 187 405 194 391 194 362 c 256
 194 348 194 332 194 329 c 256
 194 277 234 247 288 247 c 256
 340 247 380 274 380 318 c 256
 380 319 380 321 379 323 c 257
 373 310 351 282 311 282 c 256
 265 282 239 317 239 352 c 256
 239 393 270 424 314 424 c 256
 372 424 408 380 408 322 c 256
 408 261 358 219 289 219 c 256
 220 219 168 261 168 331 c 256
 168 336 168 354 168 363 c 256
 168 383 164 396 142 396 c 256
 92 396 60 319 60 248 c 256
 60 155 106 70 187 70 c 256
 208 70 216 74 220 77 c 257
 218 85 217 98 217 105 c 256
 217 175 271 195 303 195 c 256
 335 195 389 175 389 105 c 256
 389 98 388 85 386 77 c 257
 390 74 398 70 419 70 c 256
 486 70 541 177 541 279 c 257
 576 256 l 257
 576 124 517 0 404 0 c 256
 381 0 363 4 342 17 c 257
 342 31 346 42 350 54 c 256
 355 70 360 84 360 105 c 256
 360 138 337 167 303 167 c 256
 269 167 245 138 245 105 c 256
 245 86 250 73 255 59 c 256
 260 45 264 33 264 17 c 257
 243 4 224 0 201 0 c 256
 86 0 29 115 29 222 c 256
EndSplineSet
Validated: 5
EndChar

StartChar: si_MbIi
Encoding: 358 -1 216
GlifName: si_M_bI_i
Width: 621
VWidth: 0
Flags: HW
LayerCount: 2
Fore
SplineSet
29 222 m 256
 29 325 73 422 145 422 c 256
 164 422 169 418 176 413 c 256
 187 405 194 391 194 362 c 256
 194 348 194 332 194 329 c 256
 194 277 234 247 288 247 c 256
 340 247 380 274 380 318 c 256
 380 319 380 321 379 323 c 257
 373 310 351 282 311 282 c 256
 265 282 239 317 239 352 c 256
 239 393 270 424 314 424 c 256
 372 424 408 380 408 322 c 256
 408 261 358 219 289 219 c 256
 220 219 168 261 168 331 c 256
 168 336 168 354 168 363 c 256
 168 383 164 396 142 396 c 256
 92 396 60 319 60 248 c 256
 60 155 106 70 187 70 c 256
 208 70 216 74 220 77 c 257
 218 85 217 98 217 105 c 256
 217 175 271 195 303 195 c 256
 335 195 389 175 389 105 c 256
 389 98 388 85 386 77 c 257
 390 74 398 70 419 70 c 256
 486 70 541 177 541 279 c 257
 576 271 l 257
 576 139 517 0 404 0 c 256
 381 0 363 4 342 17 c 257
 342 29 345 38 348 49 c 256
 354 66 360 83 360 105 c 256
 360 138 337 167 303 167 c 256
 269 167 245 138 245 105 c 256
 245 83 252 68 257 51 c 256
 261 40 264 30 264 17 c 257
 243 4 224 0 201 0 c 256
 86 0 29 115 29 222 c 256
268 354 m 256
 268 329 288 309 313 309 c 256
 338 309 359 329 359 354 c 256
 359 379 338 400 313 400 c 256
 288 400 268 379 268 354 c 256
397 542 m 260
 397 513 425 489 457 489 c 260
 489 489 516 513 516 542 c 260
 516 571 489 595 457 595 c 260
 425 595 397 571 397 542 c 260
70 549 m 256
 70 637 203 654 301 654 c 256
 434 654 547 628 547 545 c 256
 547 493 500 463 457 463 c 256
 414 463 367 493 367 545 c 256
 367 569 380 586 386 594 c 257
 379 595 342 597 301 597 c 256
 227 597 111 592 111 541 c 256
 111 496 179 496 279 492 c 256
 342 489 419 487 479 458 c 256
 539 429 576 351 576 267 c 257
 541 276 l 257
 541 323 528 375 501 404 c 256
 449 461 379 461 280 467 c 256
 193 472 70 465 70 549 c 256
EndSplineSet
Validated: 5
EndChar

StartChar: si_MbU
Encoding: 359 -1 217
GlifName: si_M_bU_
Width: 621
VWidth: 0
Flags: HW
LayerCount: 2
Fore
SplineSet
51 -139 m 256
 51 -88 95 -49 149 -49 c 256
 190 -49 226 -72 241 -107 c 257
 212 -119 l 257
 205 -99 181 -78 149 -78 c 256
 113 -78 83 -104 83 -139 c 256
 83 -167 106 -194 170 -194 c 258
 529 -194 l 257
 529 125 l 257
 562 214 l 257
 562 -229 l 257
 153 -229 l 258
 86 -229 51 -182 51 -139 c 256
EndSplineSet
Refer: 469 3513 N 1 0 0 1 0 0 2
Validated: 5
EndChar

StartChar: si_MbUu
Encoding: 360 -1 218
GlifName: si_M_bU_u
Width: 621
VWidth: 0
Flags: HW
LayerCount: 2
Fore
SplineSet
50 -135 m 256
 50 -78 97 -39 149 -39 c 256
 190 -39 222 -54 244 -89 c 257
 215 -100 l 257
 203 -81 182 -66 154 -66 c 256
 116 -66 85 -90 85 -126 c 256
 85 -162 115 -187 157 -187 c 256
 239 -187 320 -114 413 -114 c 256
 455 -114 503 -133 529 -164 c 257
 529 148 l 257
 562 207 l 257
 562 -226 l 257
 539 -226 l 257
 524 -191 482 -141 416 -141 c 256
 327 -141 254 -231 158 -231 c 256
 104 -231 50 -201 50 -135 c 256
EndSplineSet
Refer: 469 3513 N 1 0 0 1 0 0 2
Validated: 5
EndChar

StartChar: si_N.halant
Encoding: 294 -1 219
GlifName: si_N_.halant
Width: 787
VWidth: 0
Flags: HW
LayerCount: 2
Fore
SplineSet
593 339 m 257
 593 664 l 257
 646 623 739 618 739 528 c 256
 739 485 705 456 663 456 c 256
 648 456 634 459 619 466 c 257
 619 322 l 257
 593 339 l 257
619 490 m 257
 628 485 638 483 651 483 c 256
 688 483 703 508 703 531 c 256
 703 572 665 592 619 622 c 257
 619 490 l 257
EndSplineSet
Refer: 462 3505 N 1 0 0 1 0 0 2
Validated: 5
EndChar

StartChar: si_ND.halant
Encoding: 477 -1 220
GlifName: si_N_D_.halant
Width: 873
VWidth: 0
Flags: HW
LayerCount: 2
Fore
SplineSet
687 403 m 261
 687 664 l 261
 740 623 833 618 833 528 c 260
 833 485 799 456 757 456 c 260
 742 456 728 459 713 466 c 261
 713 387 l 261
 687 403 l 261
713 490 m 261
 722 485 732 483 745 483 c 260
 782 483 797 508 797 531 c 260
 797 572 759 592 713 622 c 261
 713 490 l 261
EndSplineSet
Refer: 231 -1 N 1 0 0 1 0 0 2
Validated: 5
EndChar

StartChar: si_NDAa
Encoding: 478 -1 221
GlifName: si_N_D_A_a
Width: 907
VWidth: 0
Flags: HW
LayerCount: 2
Fore
SplineSet
26 121 m 257
 40 115 52 112 62 112 c 256
 122 112 127 196 202 271 c 257
 217 286 221 306 221 319 c 256
 221 356 205 380 172 380 c 256
 144 380 132 358 131 337 c 256
 130 318 122 290 91 290 c 256
 68 290 54 308 54 333 c 256
 54 374 87 421 150 421 c 256
 218 421 247 371 247 325 c 256
 247 324 247 315 245 308 c 257
 301 361 391 426 577 426 c 256
 601 426 659 426 693 419 c 257
 592 398 l 257
 583 398 581 399 571 399 c 256
 418 399 331 352 260 288 c 257
 285 297 310 301 337 301 c 256
 419 301 486 243 486 165 c 256
 486 52 389 -1 270 -1 c 256
 147 -1 65 40 26 121 c 257
104 100 m 257
 149 80 201 70 258 70 c 256
 365 70 443 108 443 186 c 256
 443 241 390 277 330 277 c 256
 156 277 175 141 104 100 c 257
EndSplineSet
Refer: 41 -1 N 1 0 0 1 429 0 2
Validated: 5
EndChar

StartChar: si_NDAe
Encoding: 480 -1 222
GlifName: si_N_D_A_e
Width: 895
VWidth: 0
Flags: HW
LayerCount: 2
Fore
SplineSet
26 121 m 257
 40 115 52 112 62 112 c 256
 122 112 127 196 202 271 c 257
 217 286 221 306 221 319 c 256
 221 356 205 380 172 380 c 256
 144 380 132 358 131 337 c 256
 130 318 122 290 91 290 c 256
 68 290 54 308 54 333 c 256
 54 374 87 421 150 421 c 256
 218 421 247 371 247 325 c 256
 247 324 247 315 245 308 c 257
 301 361 391 426 577 426 c 256
 601 426 659 426 693 419 c 257
 674 415 604 398 592 398 c 257
 583 398 581 399 571 399 c 256
 418 399 331 352 260 288 c 257
 285 297 310 301 337 301 c 256
 419 301 486 243 486 165 c 256
 486 52 389 -1 270 -1 c 256
 147 -1 65 40 26 121 c 257
104 100 m 257
 149 80 201 70 258 70 c 256
 365 70 443 108 443 186 c 256
 443 241 390 277 330 277 c 256
 156 277 175 141 104 100 c 257
EndSplineSet
Refer: 44 -1 N 1 0 0 1 429 0 2
Validated: 5
EndChar

StartChar: si_NDAee
Encoding: 481 -1 223
GlifName: si_N_D_A_ee
Width: 891
VWidth: 0
Flags: HW
LayerCount: 2
Fore
SplineSet
26 121 m 257
 40 115 52 112 62 112 c 256
 122 112 127 196 202 271 c 257
 217 286 221 306 221 319 c 256
 221 356 205 380 172 380 c 256
 144 380 132 358 131 337 c 256
 130 318 122 290 91 290 c 256
 68 290 54 308 54 333 c 256
 54 374 87 421 150 421 c 256
 218 421 247 371 247 325 c 256
 247 324 247 315 245 308 c 257
 301 361 391 426 577 426 c 256
 601 426 659 426 693 419 c 257
 674 415 604 398 592 398 c 257
 583 398 581 399 571 399 c 256
 418 399 331 352 260 288 c 257
 285 297 310 301 337 301 c 256
 419 301 486 243 486 165 c 256
 486 52 389 -1 270 -1 c 256
 147 -1 65 40 26 121 c 257
104 100 m 257
 149 80 201 70 258 70 c 256
 365 70 443 108 443 186 c 256
 443 241 390 277 330 277 c 256
 156 277 175 141 104 100 c 257
EndSplineSet
Refer: 43 -1 N 1 0 0 1 429 0 2
Validated: 5
EndChar

StartChar: si_NDI
Encoding: 482 -1 224
GlifName: si_N_D_I_
Width: 873
VWidth: 0
Flags: HW
LayerCount: 2
Fore
SplineSet
463 508 m 256
 463 607 551 655 646 655 c 256
 741 655 829 603 829 506 c 256
 829 433 768 397 717 396 c 257
 705 416 l 257
 758 416 800 451 800 497 c 256
 800 558 716 584 646 584 c 256
 576 584 493 559 493 497 c 256
 493 458 527 430 573 426 c 257
 518 422 l 257
 509 422 463 447 463 508 c 256
EndSplineSet
Refer: 231 -1 N 1 0 0 1 0 0 2
Validated: 5
EndChar

StartChar: si_NDIi
Encoding: 483 -1 225
GlifName: si_N_D_I_i
Width: 873
VWidth: 0
Flags: HW
LayerCount: 2
Fore
SplineSet
669 502 m 256
 669 472 698 447 733 447 c 256
 768 447 798 472 798 502 c 256
 798 532 768 557 733 557 c 256
 698 557 669 532 669 502 c 256
463 506 m 256
 463 605 551 655 646 655 c 256
 741 655 829 601 829 511 c 256
 829 453 783 419 733 419 c 256
 674 419 638 459 638 503 c 256
 638 547 673 573 699 578 c 257
 688 581 660 584 646 584 c 256
 576 584 493 559 493 497 c 256
 493 453 530 426 582 426 c 257
 517 422 l 257
 509 424 463 444 463 506 c 256
EndSplineSet
Refer: 231 -1 N 1 0 0 1 0 0 2
Validated: 5
EndChar

StartChar: si_NDRI
Encoding: 487 -1 226
GlifName: si_N_D_R_I_
Width: 873
VWidth: 0
Flags: HW
LayerCount: 2
Fore
SplineSet
463 508 m 260
 463 607 551 655 646 655 c 260
 741 655 829 603 829 506 c 260
 829 433 768 397 717 396 c 261
 705 416 l 261
 758 416 800 451 800 497 c 260
 800 558 716 584 646 584 c 260
 576 584 493 559 493 497 c 260
 493 458 527 430 573 426 c 261
 518 422 l 261
 509 422 463 447 463 508 c 260
461 -42 m 257
 485 -42 l 257
 506 -109 552 -139 627 -139 c 256
 729 -139 802 -70 802 50 c 256
 802 71 801 64 800 72 c 257
 826 77 l 257
 826 57 826 74 826 38 c 256
 826 -107 742 -199 639 -199 c 256
 536 -199 481 -142 461 -42 c 257
459 165 m 256
 459 268 530 310 646 310 c 258
 764 310 l 257
 754 355 725 387 682 387 c 256
 663 387 649 375 640 357 c 256
 630 336 615 328 600 328 c 256
 576 328 562 342 562 363 c 256
 562 398 600 423 654 423 c 256
 738 423 781 380 799 287 c 257
 664 287 l 258
 578 287 533 251 533 169 c 256
 533 87 603 26 684 26 c 256
 729 26 771 49 803 90 c 257
 826 77 l 257
 787 33 748 -1 656 -1 c 256
 528 -1 459 67 459 165 c 256
26 121 m 257
 40 115 52 112 62 112 c 256
 122 112 127 196 202 271 c 257
 217 286 221 306 221 319 c 256
 221 356 205 380 172 380 c 256
 144 380 132 358 131 337 c 256
 130 318 122 290 91 290 c 256
 68 290 54 308 54 333 c 256
 54 374 87 421 150 421 c 256
 218 421 247 371 247 325 c 256
 247 324 247 315 245 308 c 257
 301 361 391 426 577 426 c 256
 601 426 659 426 693 419 c 257
 674 415 604 398 592 398 c 257
 583 398 581 399 571 399 c 256
 418 399 331 352 260 288 c 257
 285 297 310 301 337 301 c 256
 419 301 486 243 486 165 c 256
 486 52 389 -1 270 -1 c 256
 147 -1 65 40 26 121 c 257
104 100 m 257
 149 80 201 70 258 70 c 256
 365 70 443 108 443 186 c 256
 443 241 390 277 330 277 c 256
 156 277 175 141 104 100 c 257
EndSplineSet
Validated: 5
EndChar

StartChar: si_NDRIi
Encoding: 488 -1 227
GlifName: si_N_D_R_I_i
Width: 873
VWidth: 0
Flags: HW
LayerCount: 2
Fore
SplineSet
669 502 m 256
 669 472 698 447 733 447 c 256
 768 447 798 472 798 502 c 256
 798 532 768 557 733 557 c 256
 698 557 669 532 669 502 c 256
463 506 m 256
 463 605 551 655 646 655 c 256
 741 655 829 601 829 511 c 256
 829 453 783 419 733 419 c 256
 674 419 638 459 638 503 c 256
 638 547 673 573 699 578 c 257
 688 581 660 584 646 584 c 256
 576 584 493 559 493 497 c 256
 493 453 530 426 582 426 c 257
 517 422 l 257
 509 424 463 444 463 506 c 256
461 -42 m 257
 485 -42 l 257
 506 -109 552 -139 627 -139 c 256
 729 -139 802 -70 802 50 c 256
 802 71 801 64 800 72 c 257
 826 77 l 257
 826 57 826 74 826 38 c 256
 826 -107 742 -199 639 -199 c 256
 536 -199 481 -142 461 -42 c 257
459 165 m 256
 459 268 530 310 646 310 c 258
 764 310 l 257
 754 355 725 387 682 387 c 256
 663 387 649 375 640 357 c 256
 630 336 615 328 600 328 c 256
 576 328 562 342 562 363 c 256
 562 398 600 423 654 423 c 256
 738 423 781 380 799 287 c 257
 664 287 l 258
 578 287 533 251 533 169 c 256
 533 87 603 26 684 26 c 256
 729 26 771 49 803 90 c 257
 826 77 l 257
 787 33 748 -1 656 -1 c 256
 528 -1 459 67 459 165 c 256
26 121 m 257
 40 115 52 112 62 112 c 256
 122 112 127 196 202 271 c 257
 217 286 221 306 221 319 c 256
 221 356 205 380 172 380 c 256
 144 380 132 358 131 337 c 256
 130 318 122 290 91 290 c 256
 68 290 54 308 54 333 c 256
 54 374 87 421 150 421 c 256
 218 421 247 371 247 325 c 256
 247 324 247 315 245 308 c 257
 301 361 391 426 577 426 c 256
 601 426 659 426 693 419 c 257
 674 415 604 398 592 398 c 257
 583 398 581 399 571 399 c 256
 418 399 331 352 260 288 c 257
 285 297 310 301 337 301 c 256
 419 301 486 243 486 165 c 256
 486 52 389 -1 270 -1 c 256
 147 -1 65 40 26 121 c 257
104 100 m 257
 149 80 201 70 258 70 c 256
 365 70 443 108 443 186 c 256
 443 241 390 277 330 277 c 256
 156 277 175 141 104 100 c 257
EndSplineSet
Validated: 5
EndChar

